<svg id="direct" xmlns="http://www.w3.org/2000/svg" width="134.788" height="134.788" viewBox="0 0 134.788 134.788">
  <path id="direct-2" data-name="direct" d="M104.36.18,2.42,33.49a3.518,3.518,0,0,0-.675,6.38l38.524,22.4a3.514,3.514,0,0,0,3.863-.217l10.829-8.042L46.919,64.841A3.516,3.516,0,0,0,46.7,68.7l22.4,38.524a3.518,3.518,0,0,0,6.38-.675l33.31-101.94A3.518,3.518,0,0,0,104.36.18ZM71.237,96.912,53.944,67.173,74.8,39.094a3.515,3.515,0,0,0-4.918-4.918L41.8,55.029,12.061,37.736l87.9-28.722ZM36.907,77.037l-23.34,23.34A3.515,3.515,0,1,1,8.6,95.406l23.34-23.34a3.515,3.515,0,0,1,4.971,4.971ZM6.073,77.92a3.515,3.515,0,0,1,0-4.971l9.21-9.21a3.515,3.515,0,0,1,4.971,4.971l-9.21,9.21a3.515,3.515,0,0,1-4.971,0Zm39.161,10.8a3.515,3.515,0,0,1,0,4.971l-9.21,9.21a3.515,3.515,0,1,1-4.971-4.971l9.21-9.21a3.515,3.515,0,0,1,4.971,0Z" transform="translate(30.036 134.788) rotate(-106)" fill="#89dbed" opacity="0.42"/>
</svg>
