<svg xmlns="http://www.w3.org/2000/svg" xmlns:xlink="http://www.w3.org/1999/xlink" width="185.305" height="163.182" viewBox="0 0 185.305 163.182">
  <defs>
    <linearGradient id="linear-gradient" x1="0.5" y1="1" x2="0.5" y2="0.001" gradientUnits="objectBoundingBox">
      <stop offset="0" stop-color="gray" stop-opacity="0.251"/>
      <stop offset="0.54" stop-color="gray" stop-opacity="0.122"/>
      <stop offset="1" stop-color="gray" stop-opacity="0.102"/>
    </linearGradient>
    <linearGradient id="linear-gradient-2" x1="0.5" y1="1" x2="0.5" y2="0" xlink:href="#linear-gradient"/>
  </defs>
  <g id="undraw_product_teardown_elol" transform="translate(0 -0.001)">
    <ellipse id="Ellipse_41" data-name="Ellipse 41" cx="23.696" cy="4.076" rx="23.696" ry="4.076" transform="translate(126.518 146.278)" fill="#6c63ff" opacity="0.1"/>
    <ellipse id="Ellipse_42" data-name="Ellipse 42" cx="35.081" cy="2.482" rx="35.081" ry="2.482" transform="translate(43.389 143.886)" fill="#6c63ff" opacity="0.1"/>
    <path id="Path_267" data-name="Path 267" d="M193.169,47.041c6.283-5.6,16.145-6.739,25.115-6.293,28.192,1.4,53.64,15.011,75.653,30.4,7.973,5.581,15.814,11.579,20.987,19.255,10.53,15.623,7.407,37.273-7.235,50.136-4.983,4.385-11.021,7.736-17.222,10.712-11.023,5.292-22.922,9.54-35.428,10.747-8.922.863-17.955.161-26.825-1.04-24.78-3.361-49.1-10.793-69.486-23.508-8.942-5.581-17.371-12.51-21.057-21.527s-1.326-20.455,7.8-25.794c3.787-2.209,8.292-3.205,12.713-4.142,6.506-1.379,13.117-2.739,18.99-5.541,6.067-2.9,13.243-8.5,12.047-14.9C187.929,58.668,186.894,52.632,193.169,47.041Z" transform="translate(-135.837 -40.66)" fill="#6c63ff" opacity="0.1"/>
    <line id="Line_2" data-name="Line 2" x1="1.501" transform="translate(31.188 35.263)" fill="#6c63ff"/>
    <g id="Group_16" data-name="Group 16" transform="translate(47.648 23.278)" opacity="0.1">
      <path id="Path_268" data-name="Path 268" d="M410.235,552.895a3.94,3.94,0,0,0,3.317,2.141c2.308,0,4.186-2.446,4.186-5.465s-1.884-5.446-4.186-5.446a3.69,3.69,0,0,0-2.82,1.433,5.4,5.4,0,0,0-.712,1.114l-.04.237a1.841,1.841,0,0,1-2.1.062v-17.7H390.589a1.4,1.4,0,0,1-.209-1.3,1.666,1.666,0,0,1,.779-.951A3.942,3.942,0,0,0,393.3,523.7c0-2.308-2.448-4.186-5.465-4.186s-5.465,1.872-5.465,4.186a3.7,3.7,0,0,0,1.435,2.822,5.43,5.43,0,0,0,1.112.71l.024.04a1.7,1.7,0,0,1,.333,1.993h-7.8v32.785a7.774,7.774,0,0,0,7.774,7.774h22.627v-17.4a1.377,1.377,0,0,1,1.409-.3A1.651,1.651,0,0,1,410.235,552.895Z" transform="translate(-376.828 -447.341)"/>
      <path id="Path_269" data-name="Path 269" d="M378.525,239.021h2.707a5.463,5.463,0,0,1-2.135-4.287,6.071,6.071,0,0,1,12.109,0,5.464,5.464,0,0,1-2.135,4.287H405.3V221.554a1.4,1.4,0,0,1,1.409-.3,1.66,1.66,0,0,1,.953.779,3.935,3.935,0,0,0,3.317,2.141c2.308,0,4.186-2.446,4.186-5.463s-1.87-5.465-4.186-5.465a3.7,3.7,0,0,0-2.822,1.433,5.505,5.505,0,0,0-.712,1.114l-.038.024a1.7,1.7,0,0,1-2.107.281V198.4H388.655a1.4,1.4,0,0,1-.209-1.3,1.656,1.656,0,0,1,.779-.951,3.937,3.937,0,0,0,2.141-3.317c0-2.308-2.446-4.186-5.463-4.186s-5.465,1.872-5.465,4.186a3.7,3.7,0,0,0,1.433,2.822,5.508,5.508,0,0,0,1.114.712l.024.038a1.7,1.7,0,0,1,.333,1.993h-4.816v-.9h3.556a5.462,5.462,0,0,1-2.133-4.279,6.071,6.071,0,0,1,12.109,0,5.462,5.462,0,0,1-2.143,4.285h15.368v-17.68a1.383,1.383,0,0,1,1.411-.3,1.662,1.662,0,0,1,.951.779,3.937,3.937,0,0,0,3.317,2.141c2.308,0,4.186-2.446,4.186-5.465s-1.87-5.463-4.186-5.463a3.69,3.69,0,0,0-2.822,1.433,5.4,5.4,0,0,0-.712,1.114l-.038.237a1.844,1.844,0,0,1-2.107.062V157.87H382.665a7.774,7.774,0,0,0-7.774,7.774v8.415h-.118a.456.456,0,0,0-.456.456V178.5a.458.458,0,0,0,.456.456h.118v4.07h-.153a.458.458,0,0,0-.458.456V191.1a.458.458,0,0,0,.458.456h.153v2.99h-.126a.456.456,0,0,0-.456.456v2.452h-.1v5.166a.454.454,0,0,0,.456.456h.136v35.946Z" transform="translate(-374.21 -157.784)"/>
      <path id="Path_270" data-name="Path 270" d="M568.95,185.756a.458.458,0,0,0-.456-.458h-.275v-.5h-.149V164.915a7.473,7.473,0,0,0-7.475-7.475H538.17v15.149a5.531,5.531,0,0,1,4.385-2.2,6.071,6.071,0,0,1,0,12.115,5.527,5.527,0,0,1-4.385-2.2v16.809h18.138a5.475,5.475,0,0,1-2.131-4.291,5.848,5.848,0,0,1,6.044-5.633,6.269,6.269,0,0,1,4.06,1.463,5.326,5.326,0,0,1,0,8.322v.134h3.937v-.014h.732Z" transform="translate(-505.489 -157.44)"/>
      <path id="Path_271" data-name="Path 271" d="M562.063,527.85v-1.993h0a3.8,3.8,0,0,0,.225-.373,3.321,3.321,0,0,0,.411-1.585,3.261,3.261,0,0,0-.187-1.084,3.583,3.583,0,0,0-.448-.873h0a5.858,5.858,0,0,0-4.828-2.222c-3.02,0-5.465,1.872-5.465,4.186a3.7,3.7,0,0,0,1.433,2.822,5.5,5.5,0,0,0,1.114.712l.024.038a1.7,1.7,0,0,1,.333,1.993H537.09v16.344a5.463,5.463,0,0,1,4.339-2.192,6.071,6.071,0,0,1,0,12.109,5.464,5.464,0,0,1-4.339-2.193v13.193h20.177a4.8,4.8,0,0,0,4.8-4.784V529.477h0v32.45a4.8,4.8,0,0,1-4.8,4.8H537.09v3.189h20.929a7.774,7.774,0,0,0,7.774-7.774V529.477h0v-.857h-3.729Z" transform="translate(-504.624 -447.509)"/>
    </g>
    <path id="Path_272" data-name="Path 272" d="M387.005,601.813a4.8,4.8,0,0,1-4.8-4.8V564.46H378.48v32.779a7.774,7.774,0,0,0,7.774,7.774h22.627v-3.189Z" transform="translate(-329.981 -460.053)" fill="#3a3768"/>
    <path id="Path_273" data-name="Path 273" d="M425.257,548.123a1.65,1.65,0,0,1,.951.779,3.94,3.94,0,0,0,3.317,2.141c2.308,0,4.186-2.446,4.186-5.465s-1.876-5.453-4.178-5.453a3.689,3.689,0,0,0-2.82,1.433,5.4,5.4,0,0,0-.712,1.114l-.04.237a1.841,1.841,0,0,1-2.1.062v-17.7H406.57a1.4,1.4,0,0,1-.209-1.3,1.667,1.667,0,0,1,.779-.951,3.942,3.942,0,0,0,2.143-3.317c0-2.308-2.448-4.186-5.465-4.186s-5.465,1.872-5.465,4.186a3.7,3.7,0,0,0,1.435,2.822,5.433,5.433,0,0,0,1.112.71l.024.04a1.7,1.7,0,0,1,.333,1.993H397.19v32.563a4.8,4.8,0,0,0,4.8,4.8h21.876v-14.2a1.377,1.377,0,0,1,1.4-.3Z" transform="translate(-344.961 -420.86)" fill="#6c63ff"/>
    <rect id="Rectangle_26" data-name="Rectangle 26" width="0.592" height="0.965" transform="translate(47.842 62.132)" fill="#3a3768"/>
    <rect id="Rectangle_27" data-name="Rectangle 27" width="3.235" height="0.965" transform="translate(48.928 62.132)" fill="#3a3768"/>
    <rect id="Rectangle_28" data-name="Rectangle 28" width="0.494" height="0.965" transform="translate(48.434 62.132)" fill="#3a3768"/>
    <path id="Path_274" data-name="Path 274" d="M537.09,566.33" transform="translate(-456.976 -461.551)" fill="#6c63ff"/>
    <path id="Path_275" data-name="Path 275" d="M375.612,361.86h.135V357.2h-.6v4.2a.454.454,0,0,0,.462.456Z" transform="translate(-327.314 -294.105)" fill="#3a3768"/>
    <path id="Path_276" data-name="Path 276" d="M381.879,357.2h-3.235v4.2a.456.456,0,0,1-.458.456h-.036v35.962h3.729Z" transform="translate(-329.716 -294.105)" fill="#3a3768"/>
    <path id="Path_277" data-name="Path 277" d="M378.15,361.86h.036a.456.456,0,0,0,.458-.456v-4.2h-.494Z" transform="translate(-329.716 -294.105)" fill="#3a3768"/>
    <path id="Path_278" data-name="Path 278" d="M397.432,354.334a6.071,6.071,0,0,1,12.109,0,5.463,5.463,0,0,1-2.135,4.3h16.225V341.162a1.4,1.4,0,0,1,1.409-.3,1.66,1.66,0,0,1,.953.779,3.935,3.935,0,0,0,3.317,2.141c2.308,0,4.186-2.446,4.186-5.463s-1.87-5.465-4.186-5.465a3.7,3.7,0,0,0-2.822,1.433,5.5,5.5,0,0,0-.712,1.114l-.038.024a1.7,1.7,0,0,1-2.107.281v-17.7H406.99a1.4,1.4,0,0,1-.209-1.3,1.656,1.656,0,0,1,.779-.951,3.937,3.937,0,0,0,2.141-3.317c0-2.308-2.446-4.186-5.463-4.186s-5.465,1.872-5.465,4.186a3.7,3.7,0,0,0,1.433,2.822,5.506,5.506,0,0,0,1.114.712l.024.038a1.7,1.7,0,0,1,.333,1.993H396.86v40.628h2.707A5.463,5.463,0,0,1,397.432,354.334Z" transform="translate(-344.697 -254.912)" fill="#6c63ff"/>
    <path id="Path_279" data-name="Path 279" d="M379.144,337.906a.456.456,0,0,0-.458-.456h-.036v2.974h.494Z" transform="translate(-330.117 -278.292)" fill="#3a3768"/>
    <path id="Path_280" data-name="Path 280" d="M376.326,235.07h-.1a.456.456,0,0,0-.456.456v3.986a.458.458,0,0,0,.456.456h.118v-4.9Z" transform="translate(-327.811 -196.319)" fill="#3a3768"/>
    <path id="Path_281" data-name="Path 281" d="M376.038,280.05a.458.458,0,0,0-.458.456v7.612a.458.458,0,0,0,.458.456h.153V280.05Z" transform="translate(-327.659 -232.333)" fill="#3a3768"/>
    <path id="Path_282" data-name="Path 282" d="M376.3,337.78h-.13a.456.456,0,0,0-.456.456v2.517h.6Z" transform="translate(-327.763 -278.556)" fill="#3a3768"/>
    <path id="Path_283" data-name="Path 283" d="M378.634,161.642v8.415a.454.454,0,0,1,.439.454V174.5a.456.456,0,0,1-.439.454v4.07h.07a.456.456,0,0,1,.456.456v7.612a.456.456,0,0,1-.456.456h-.074v2.99h.036a.458.458,0,0,1,.458.456V193.5h3.235V161.869a4.8,4.8,0,0,1,4.794-4.8h6.5v.833a3.949,3.949,0,0,0,3.949,3.949h11.435v-2.607h-5.264a.775.775,0,0,1-.771-.767v-.167a.773.773,0,0,1,.771-.771h5.254V153.87H386.4A7.774,7.774,0,0,0,378.634,161.642Z" transform="translate(-330.101 -131.304)" fill="#3a3768"/>
    <path id="Path_284" data-name="Path 284" d="M379.089,239.511v-3.986a.455.455,0,0,0-.439-.454v4.893a.456.456,0,0,0,.439-.452Z" transform="translate(-330.117 -196.319)" fill="#3a3768"/>
    <path id="Path_285" data-name="Path 285" d="M379.18,288.119v-7.612a.456.456,0,0,0-.456-.456h-.074v8.525h.07a.456.456,0,0,0,.46-.456Z" transform="translate(-330.117 -232.333)" fill="#3a3768"/>
    <path id="Path_286" data-name="Path 286" d="M398.684,202.059a6.071,6.071,0,0,1,12.109,0,5.461,5.461,0,0,1-2.143,4.285h15.368v-17.68a1.383,1.383,0,0,1,1.411-.3,1.662,1.662,0,0,1,.951.779,3.937,3.937,0,0,0,3.317,2.141c2.308,0,4.186-2.446,4.186-5.465s-1.87-5.463-4.186-5.463a3.69,3.69,0,0,0-2.822,1.433,5.4,5.4,0,0,0-.712,1.114l-.038.237a1.844,1.844,0,0,1-2.107.062v-8.511H412.588a3.949,3.949,0,0,1-3.939-3.949v-.833h-6.5a4.8,4.8,0,0,0-4.794,4.8v31.633h3.456a5.461,5.461,0,0,1-2.133-4.285Z" transform="translate(-345.097 -144.146)" fill="#6c63ff"/>
    <path id="Path_287" data-name="Path 287" d="M501.671,172.26a.773.773,0,0,0-.771.771v.173a.775.775,0,0,0,.771.773h5.254v-1.712Z" transform="translate(-427.999 -146.028)" fill="#e6e8ec"/>
    <path id="Path_288" data-name="Path 288" d="M683.17,291.166V303h1.345V290.69h-.728A.561.561,0,0,0,683.17,291.166Z" transform="translate(-573.939 -240.852)" fill="#3a3768"/>
    <rect id="Rectangle_29" data-name="Rectangle 29" width="1.595" height="3.588" transform="translate(80.529 22.481)" fill="#3a3768"/>
    <rect id="Rectangle_30" data-name="Rectangle 30" width="1.595" height="2.591" transform="translate(80.529 27.862)" fill="#3a3768"/>
    <rect id="Rectangle_31" data-name="Rectangle 31" width="1.595" height="1.794" transform="translate(80.529 26.068)" fill="#e6e8ec"/>
    <path id="Path_289" data-name="Path 289" d="M689.795,293.2h-.375v11.794h.831V293.658a.458.458,0,0,0-.456-.458Z" transform="translate(-578.943 -242.862)" fill="#3a3768"/>
    <path id="Path_290" data-name="Path 290" d="M546.367,157.028c.425.1.8.869.8.869v.167s-.375.771-.8.757h0v2.591h9.007a3.951,3.951,0,0,0,3.949-3.951v-.833H566.1a4.794,4.794,0,0,1,4.784,4.794v23.223a5.326,5.326,0,0,1,0,8.322v.134h2.791V181.4a.058.058,0,0,1,.06-.058h.937V160.915a7.473,7.473,0,0,0-7.475-7.475H546.17v3.588Zm3.018-.018a.971.971,0,1,1-.971.971A.971.971,0,0,1,549.385,157.01Z" transform="translate(-464.246 -130.959)" fill="#3a3768"/>
    <path id="Path_291" data-name="Path 291" d="M543.505,179.195a6.071,6.071,0,0,1,0,12.115,5.527,5.527,0,0,1-4.385-2.2v16.809h18.138a5.475,5.475,0,0,1-2.131-4.291,5.848,5.848,0,0,1,6.043-5.633,6.269,6.269,0,0,1,4.07,1.465V174.234a4.794,4.794,0,0,0-4.784-4.794h-6.777v.833a3.951,3.951,0,0,1-3.949,3.951h-10.6V181.4a5.531,5.531,0,0,1,4.375-2.2Z" transform="translate(-458.601 -143.77)" fill="#6c63ff"/>
    <path id="Path_292" data-name="Path 292" d="M546.359,173.234a.8.8,0,0,0,.8-.757v-.167a1,1,0,0,0-.8-.869h-.2v1.794Z" transform="translate(-464.238 -145.372)" fill="#e6e8ec"/>
    <circle id="Ellipse_43" data-name="Ellipse 43" cx="0.971" cy="0.971" r="0.971" transform="translate(84.025 26.214) rotate(-9.22)" fill="#e6e8ec"/>
    <path id="Path_293" data-name="Path 293" d="M663.38,532.778v-1.993a3.331,3.331,0,0,0,0-3.915Z" transform="translate(-558.093 -429.956)" fill="#3a3768"/>
    <rect id="Rectangle_32" data-name="Rectangle 32" width="3.729" height="0.857" transform="translate(105.287 103.591)" fill="#3a3768"/>
    <path id="Path_294" data-name="Path 294" d="M652.388,547.873a1.662,1.662,0,0,0-.779.951,1.4,1.4,0,0,0,.209,1.306h2.075v-.857h-.8a5.972,5.972,0,0,0,.8-.769V546.51A4.722,4.722,0,0,1,652.388,547.873Z" transform="translate(-548.607 -445.681)" fill="#6c63ff"/>
    <path id="Path_295" data-name="Path 295" d="M659.36,557.279h.8v-.769A5.987,5.987,0,0,1,659.36,557.279Z" transform="translate(-554.875 -453.688)" fill="#6c63ff"/>
    <path id="Path_296" data-name="Path 296" d="M664.016,528.847a3.4,3.4,0,0,0-.636-1.957V530.8A3.41,3.41,0,0,0,664.016,528.847Z" transform="translate(-558.094 -429.972)" fill="#3a3768"/>
    <path id="Path_297" data-name="Path 297" d="M566.793,564.67v32.671a7.774,7.774,0,0,1-7.774,7.774H538.09v-3.189h20.177a4.8,4.8,0,0,0,4.8-4.8V564.67Z" transform="translate(-457.777 -460.222)" fill="#3a3768"/>
    <path id="Path_298" data-name="Path 298" d="M560.779,524.187a1.663,1.663,0,0,1,.779-.951,4.719,4.719,0,0,0,1.5-1.361v-3.913a5.857,5.857,0,0,0-4.828-2.222c-3.02,0-5.465,1.872-5.465,4.186a3.7,3.7,0,0,0,1.433,2.822,5.5,5.5,0,0,0,1.114.712l.024.038a1.7,1.7,0,0,1,.333,1.993H538.09v16.344a5.464,5.464,0,0,1,4.339-2.193,6.071,6.071,0,0,1,0,12.109,5.463,5.463,0,0,1-4.339-2.193v13.193h20.177a4.8,4.8,0,0,0,4.8-4.784V525.493h-2.069A1.4,1.4,0,0,1,560.779,524.187Z" transform="translate(-457.777 -421.044)" fill="#6c63ff"/>
    <path id="Path_299" data-name="Path 299" d="M842.18,284.218a3.764,3.764,0,0,0,2.216-2.424,3.069,3.069,0,0,0,.076-.4,3.568,3.568,0,0,0,.128-.381,3.666,3.666,0,0,0-.761-3.165l-1.457,5.581h0Z" transform="translate(-701.254 -230.572)" fill="url(#linear-gradient)"/>
    <path id="Path_300" data-name="Path 300" d="M731.388,197.351c-.227-1.333-4.437-4.222-4.437-4.222a11.817,11.817,0,0,1-2.844-2.149c-.63-.733-.827-.726-.887-.626a.3.3,0,0,0-.136-.046c-.04-.028-.078-.054-.114-.084h0a.269.269,0,0,0-.157-.273c-.048-.028-.1-.064-.143-.1a4.519,4.519,0,0,1-.47-1.957c-.048-.835-1-.626-1.322-.532-.223-.419-.44-.853-.646-1.288a2.366,2.366,0,0,0,.225-.448c.586-1.274.458-2.735.714-4.082a11.843,11.843,0,0,0,.49-2.942v-.056a2.522,2.522,0,0,0-.161-.694c-.169-.427-.464-.8-.6-1.238-.213-.644-.078-1.353-.255-2.005a3,3,0,0,0-1.708-1.828,8.489,8.489,0,0,0-2.533-.6c-2.163-.271-4.461-.433-6.434.476a1.156,1.156,0,0,1-.6.161,1.837,1.837,0,0,1-.546-.253,1.662,1.662,0,0,0-1.67.255,4.8,4.8,0,0,0-1.11,1.347,4.194,4.194,0,0,1-1.146,1.318c-.576.385-1.338.514-1.794,1.033a1.668,1.668,0,0,0-.371.861v-.014a1.1,1.1,0,0,0,0,.114v.419a5.442,5.442,0,0,0,.385,1.415,1.97,1.97,0,0,0,.522.889c.694.564,1.794.032,2.631.347.074.026.143.06.213.092a.4.4,0,0,1-.032.1,6.614,6.614,0,0,0-.269,1.876,6.86,6.86,0,0,0,6.94,6.777,3.8,3.8,0,0,0,.427-.016c.02.074.042.149.06.221a7.348,7.348,0,0,1,.2,2.535l-.042-.371a1.841,1.841,0,0,0-.289-.11,2.579,2.579,0,0,0-.861-.132c-.943-.012-2.362.367-3.877,2.2,0,0-1.933,1.074-2.5,1.333a.267.267,0,0,0-.106.12h0s-2.585,3.9-2.852,5.39-.6,3.189-.6,3.189-.646,1.925-1.062,2.779a9.16,9.16,0,0,0-.833,2.037,1.758,1.758,0,0,1-.646,1.7,3.166,3.166,0,0,0-1,1.925s-.4.375-.963.849h-.02l2.083-7.987.373.094a.479.479,0,0,0,.49-.167.446.446,0,0,0,.082-.165l.421-1.618.169-.644.034-.132.245-.939-.829-.2-.971-.241-2.743-.692.239-.917h0l.2-.777h0l1.254-4.812h0l.2-.775a6.57,6.57,0,0,0-3.628-2.26c-3.01-.747-5.924.468-6.51,2.715a3.052,3.052,0,0,0-.078.4,2.9,2.9,0,0,0-.126.379,3.205,3.205,0,0,0-.08,1.2q.012.1.03.2a4.1,4.1,0,0,0,.763,1.708,5.451,5.451,0,0,0,.931.967l.014.044a1.82,1.82,0,0,1,.261.8v.124a1.839,1.839,0,0,1-.239.335l-18.39-4.57-.2.775h0L668.019,211.8h0a6,6,0,0,1,1.794-.947,5.836,5.836,0,0,1,.777-.2l.094-.016a5.555,5.555,0,0,1,2.228.092,5.7,5.7,0,0,1,4.23,4.885,5.944,5.944,0,0,1,.05.887,6.248,6.248,0,0,1-.12,1.126,6,6,0,0,1-7.032,4.114,5.581,5.581,0,0,1-3.767-3.219l-.2.777h0L661.8,235.639l16.287,4.05h0l.175-.783h.026a5.412,5.412,0,0,1-1.124-4.309.229.229,0,0,1,.026-.076c.02-.058.042-.114.064-.169a5.492,5.492,0,0,1,.4-.787c.08-.13.163-.255.253-.377q.084-.114.173-.221a5.664,5.664,0,0,1,.975-.929l.116-.084c.132-.094.267-.183.4-.267.082-.048.165-.1.249-.14a6.465,6.465,0,0,1,3.133-.747,6.879,6.879,0,0,1,1.555.2,6.447,6.447,0,0,1,3.845,2.673,5.844,5.844,0,0,1,.327.558,5.457,5.457,0,0,1,.564,1.822,5.161,5.161,0,0,1-.04,1.525,5.426,5.426,0,0,1-2.109,2.729l-.2.749h.022l-.03.022-.2.747,3.719.925,5.268-20.142a3.212,3.212,0,0,0,2.149-.889,10.424,10.424,0,0,1,2.655-1.3c.47-.128,1.015-.219,1.447-.311-.51,2.533-1,4.983-.953,5.127.014.056.106-.032.245-.223a1.074,1.074,0,0,0-.018.223c0,.038.054.01.124-.068l-.01.048s-2.958,5.723-3.189,6.378a2.976,2.976,0,0,0,.967,2.89,1.95,1.95,0,0,1,.466.413l-.108.213a4.313,4.313,0,0,0-.586,1.929,2.613,2.613,0,0,1-.4,1.722s-2.561,7.915-2.5,10.193a49.959,49.959,0,0,1-.911,7.277s-1.052,3.221-.427,4.138,1.337,4.917,1.337,4.917a4.058,4.058,0,0,1,.455,1.694,8.378,8.378,0,0,0,.456,2.193l1.595,5.748a5.1,5.1,0,0,0,.427,2.611c.6,1.082.54.749.255,2.639s.343,3.638,1.365,4.186a.625.625,0,0,1,.3.865h0c-.261-.1-.478.438-.608.875l-.132.126.088.022c-.056.2-.088.367-.088.367s-2.673,2.222-2.844,3.028-2.049,1.222-2.049,1.222a33.038,33.038,0,0,0-3.588,1.166,1.356,1.356,0,0,0-.785,1.078,2.958,2.958,0,0,0,.1,1.088c.283,1.138,4.266,1.25,6.179.945s5.858-1.417,5.858-1.417a33.919,33.919,0,0,0,5.382-.889c1.228-.49.255-1.778.255-1.778v-.12a6.965,6.965,0,0,0-.179-2.591,3.766,3.766,0,0,1-.183-1.738c.831-1.495-.953-5.98-.953-5.98a34.6,34.6,0,0,0,.114-5.027c-.227-.642-1.2-6.083-1.2-6.083s-.6-2.472-.369-2.888-.143-1.613-.143-1.613-.975-1.329-.887-1.748a2.489,2.489,0,0,0-.285-1.166s2.9-4.333,2.645-5.139a4.63,4.63,0,0,1,.116-2.111s.365-.614.8-1.349c.538-.9,1.2-1.979,1.411-2.316a29.074,29.074,0,0,0,1.326-3.3c.159-.447.267-.753.267-.753s.454,8.172.853,9,1,7.417,1,7.417a4.508,4.508,0,0,1,.285,1.834,45.674,45.674,0,0,0,.911,5.5,16.633,16.633,0,0,1,.142,4c-.285.833-.056,6.976-.056,6.976a7.934,7.934,0,0,0-1.963,2.111c-.4.915.056,3.416.056,3.416l.183.086a5.268,5.268,0,0,0-.325,1.08c-.056.528-.911,2.918-.825,3.251a12.748,12.748,0,0,1-.427,1.888c-.058.526-.767,1.306-.825,1.585a6.783,6.783,0,0,1-.313.732,6.973,6.973,0,0,0-.369,1.128c-.285,1.168,3.1,1.361,3.1,1.361,5.007.917,5.918-2.832,5.918-2.832a27.9,27.9,0,0,1,.853-3.588.4.4,0,0,0,.038-.317h0a4.226,4.226,0,0,0-.721-1.569,1.868,1.868,0,0,1-.144-1.088,2.519,2.519,0,0,0,.429-.08c2.019-.582,1.2-3.945,1.2-3.945a10.592,10.592,0,0,0,1.365-3.082,34.131,34.131,0,0,1,.484-3.5c1.736-3.111,1.052-10.666,1.338-11.278s-.6-2.888-1.31-3.917-.427-3.805,0-4.61-.427-3.588-.427-3.588.825-5.382.8-6.223a18.064,18.064,0,0,1,.711-3.3s.74-1.278.568-1.666.568-1.4.371-1.834a4.923,4.923,0,0,1,.54-2.611,14.808,14.808,0,0,0,.6-2.559c.02-.112.04-.223.058-.333.829.524,1.595.915,1.866.809.508-.2-.3-2.791-.855-4.405.1-.072.135-.126.1-.15-.341-.223.038-1.224.038-1.224,2.011-1.184,1.328-2.073.684-2.591s-.227-1.993-.419-2.591.229-3.295.57-5.258a3.763,3.763,0,0,0-.01-1.288c.365-.556.741-1.138,1.072-1.676,1.136-1.852,3.564-10.666,3.564-10.666l-.016-.046c.237-.468.415-.849.51-1.1C732.98,204.469,731.615,198.688,731.388,197.351Zm-17.676-5.075.052-.024v.042Zm-36.245,46.442Zm25.208,48.107a.911.911,0,0,1-.361-.072Z" transform="translate(-556.828 -145.799)" fill="url(#linear-gradient-2)"/>
    <path id="Path_301" data-name="Path 301" d="M754.212,408.908c1.64.622,5.453.69,7.148.69h.833l1.086-2.213-1.086-1.844s-1-.275-2.32-.514c-1.953-.351-4.626-.626-5.9.163C751.836,406.512,752.075,408.1,754.212,408.908Z" transform="translate(-629.438 -332.121)" fill="#fec2be"/>
    <path id="Path_302" data-name="Path 302" d="M791.035,410.991h.833l1.086-2.212-1.084-1.844s-1-.275-2.32-.514C790.624,407.209,793.208,408.928,791.035,410.991Z" transform="translate(-659.115 -333.514)" opacity="0.1"/>
    <path id="Path_303" data-name="Path 303" d="M808.175,290.894l-.478-.554s-2.47,3.907-2.729,5.382-.6,3.169-.6,3.169-.626,1.917-1.033,2.765a9.169,9.169,0,0,0-.809,2.027,1.779,1.779,0,0,1-.628,1.7,3.141,3.141,0,0,0-.957,1.918s-2.8,2.727-4.277,2.79-5.713.811-5.565,1.549-1.768,1.178-2.543,1.363,4.983,2.392,1.622,5.234c0,0,2.137.442,2.358.957s2.47-.293,2.47-.293a2.336,2.336,0,0,1,2.139-1.218,3.347,3.347,0,0,0,2.505-.921,9.369,9.369,0,0,1,2.591-1.29c.933-.257,2.137-.369,2.175-.628s5.529-23.957,5.529-23.957Z" transform="translate(-658.262 -240.572)" fill="#dd6d7d"/>
    <path id="Path_304" data-name="Path 304" d="M808.175,290.894l-.478-.554s-2.47,3.907-2.729,5.382-.6,3.169-.6,3.169-.626,1.917-1.033,2.765a9.169,9.169,0,0,0-.809,2.027,1.779,1.779,0,0,1-.628,1.7,3.141,3.141,0,0,0-.957,1.918s-2.8,2.727-4.277,2.79-5.713.811-5.565,1.549-1.768,1.178-2.543,1.363,4.983,2.392,1.622,5.234c0,0,2.137.442,2.358.957s2.47-.293,2.47-.293a2.336,2.336,0,0,1,2.139-1.218,3.347,3.347,0,0,0,2.505-.921,9.369,9.369,0,0,1,2.591-1.29c.933-.257,2.137-.369,2.175-.628s5.529-23.957,5.529-23.957Z" transform="translate(-658.262 -240.572)" fill="#dd6d7d" opacity="0.05"/>
    <path id="Path_305" data-name="Path 305" d="M903.933,759.863c4.865.913,5.75-2.82,5.75-2.82a28.025,28.025,0,0,1,.829-3.566.4.4,0,0,0,.038-.315h0a4.339,4.339,0,0,0-.7-1.563c-.3-.359-.056-1.852-.056-1.852l-5.639-1.437a8.434,8.434,0,0,0-.552,1.658c-.054.526-.885,2.9-.8,3.235a12.475,12.475,0,0,1-.415,1.88c-.056.526-.745,1.3-.8,1.575a6.5,6.5,0,0,1-.3.729,7.306,7.306,0,0,0-.359,1.122C900.645,759.669,903.933,759.863,903.933,759.863Z" transform="translate(-748.28 -607.258)" fill="#ca8496"/>
    <path id="Path_306" data-name="Path 306" d="M903.9,779.351c4.865.913,5.75-2.82,5.75-2.82a28.024,28.024,0,0,1,.829-3.566.4.4,0,0,0,.038-.315l-1.172,3.357s-.967,2.017-4.561,1.714a8.439,8.439,0,0,1-3.54-.847,7.29,7.29,0,0,0-.359,1.122C900.609,779.158,903.9,779.351,903.9,779.351Z" transform="translate(-748.245 -626.746)" opacity="0.1"/>
    <path id="Path_307" data-name="Path 307" d="M929.85,776.037s-1.216.028-1.3-.967Z" transform="translate(-770.409 -628.684)" opacity="0.1"/>
    <path id="Path_308" data-name="Path 308" d="M609.694,467.07l.771.2-.169.783-.716-.181Z" transform="translate(-488.077 -373.971)" fill="#6c63ff"/>
    <path id="Path_309" data-name="Path 309" d="M609.694,467.07l.771.2-.169.783-.716-.181Z" transform="translate(-488.077 -373.971)" opacity="0.1"/>
    <rect id="Rectangle_33" data-name="Rectangle 33" width="0.965" height="0.831" transform="translate(144.272 57.562) rotate(-75.72)" fill="#3a3768"/>
    <rect id="Rectangle_34" data-name="Rectangle 34" width="0.965" height="2.757" transform="translate(140.656 56.64) rotate(-75.72)" fill="#3a3768"/>
    <rect id="Rectangle_35" data-name="Rectangle 35" width="0.965" height="0.975" transform="translate(143.326 57.323) rotate(-75.72)" fill="#3a3768"/>
    <path id="Path_310" data-name="Path 310" d="M835.95,313.267c-.064.03-.126.062-.187.088l.155.04-.239.935-1.182-.3a1.4,1.4,0,0,1,.122-1.314,1.648,1.648,0,0,1,1-.73,5.174,5.174,0,0,0,.74-.275Z" transform="translate(-695.015 -257.682)" fill="#6c63ff"/>
    <path id="Path_311" data-name="Path 311" d="M856.38,331.547l.361.094a.456.456,0,0,0,.556-.331l.4-1.611-.8-.2Z" transform="translate(-712.624 -271.926)" fill="#3a3768"/>
    <path id="Path_312" data-name="Path 312" d="M846.345,286.959a3.716,3.716,0,0,1-2.155,2.412l1.415-5.561A3.681,3.681,0,0,1,846.345,286.959Z" transform="translate(-702.864 -235.344)" fill="#3a3768"/>
    <path id="Path_313" data-name="Path 313" d="M803,327.7a.456.456,0,0,1-.329-.554l.411-1.613-2.671-.68-8.146,32a5.314,5.314,0,0,1-1.736,6.821l-.189.745,3.614.927,9.55-37.511Z" transform="translate(-659.747 -268.203)" fill="#3a3768"/>
    <path id="Path_314" data-name="Path 314" d="M852.154,329.873a.456.456,0,0,0,.329.554l.5.128.522-2.053-.943-.241Z" transform="translate(-709.229 -270.934)" fill="#3a3768"/>
    <path id="Path_315" data-name="Path 315" d="M702.123,280.46a1.664,1.664,0,0,1,1-.73,5.309,5.309,0,0,0,.737-.275l1.417-5.561a6.337,6.337,0,0,0-3.526-2.248c-2.924-.745-5.758.464-6.327,2.7a3.693,3.693,0,0,0,.694,3.09,5.384,5.384,0,0,0,.9.963l.014.044a1.7,1.7,0,0,1-.171,2.021l-17.871-4.551-4.032,15.842a5.47,5.47,0,0,1,4.734-1.064,6.075,6.075,0,0,1-2.98,11.744,5.467,5.467,0,0,1-3.661-3.2l-4.14,16.257,15.83,4.028a5.457,5.457,0,0,1-1.013-4.68,5.853,5.853,0,0,1,7.255-3.959,6.233,6.233,0,0,1,4.056,3.2l8.146-32-1.17-.3A1.4,1.4,0,0,1,702.123,280.46Z" transform="translate(-562.521 -225.428)" fill="#6c63ff"/>
    <path id="Path_316" data-name="Path 316" d="M841.443,319.648l.034-.128c-.062.03-.124.062-.187.09Z" transform="translate(-700.542 -263.936)" fill="#6c63ff"/>
    <g id="Group_17" data-name="Group 17" transform="translate(106.389 45.998)" opacity="0.1">
      <path id="Path_317" data-name="Path 317" d="M707.036,282.061l-.943-.241-2.669-.68h0l.034-.128h0l.4-1.557a5.185,5.185,0,0,1-.74.275,1.648,1.648,0,0,0-1,.73,1.921,1.921,0,0,0-.147.315,1.9,1.9,0,0,1,.146-.315,1.664,1.664,0,0,1,1-.73,5.322,5.322,0,0,0,.738-.275l1.417-5.561a6.337,6.337,0,0,0-3.526-2.248c-2.924-.745-5.759.464-6.327,2.7a3.692,3.692,0,0,0,.694,3.09,5.382,5.382,0,0,0,.9.963l.014.044a1.7,1.7,0,0,1-.171,2.021l-17.871-4.551-4.032,15.842a5.469,5.469,0,0,1,4.738-1.064,6.075,6.075,0,0,1-2.98,11.744,5.467,5.467,0,0,1-3.661-3.2l-4.14,16.257,15.83,4.028a5.457,5.457,0,0,1-1.013-4.68,5.853,5.853,0,0,1,7.255-3.959,6.233,6.233,0,0,1,4.056,3.2,5.314,5.314,0,0,1-1.736,6.821l-.189.745,3.614.927,9.55-37.511.361.094a.456.456,0,0,0,.556-.331l.4-1.618.237-.935Zm-3.676-1c-.03.014-.06.03-.09.042h0Zm-1.355.716h0l1.182.3h0Z" transform="translate(-668.91 -271.426)"/>
      <path id="Path_318" data-name="Path 318" d="M846.345,286.959a3.721,3.721,0,0,0-.74-3.149l-1.415,5.561A3.69,3.69,0,0,0,846.345,286.959Z" transform="translate(-809.253 -281.342)"/>
    </g>
    <rect id="Rectangle_36" data-name="Rectangle 36" width="0.965" height="0.831" transform="translate(144.468 56.791) rotate(-75.72)" fill="#3a3768"/>
    <rect id="Rectangle_37" data-name="Rectangle 37" width="0.965" height="2.757" transform="translate(140.852 55.87) rotate(-75.72)" fill="#3a3768"/>
    <rect id="Rectangle_38" data-name="Rectangle 38" width="0.965" height="0.975" transform="translate(143.522 56.548) rotate(-75.72)" fill="#3a3768"/>
    <path id="Path_319" data-name="Path 319" d="M836.931,309.411l-.187.09.153.038-.237.941-1.182-.3a1.383,1.383,0,0,1,.12-1.314,1.658,1.658,0,0,1,1-.73,5.155,5.155,0,0,0,.738-.275Z" transform="translate(-695.798 -254.6)" fill="#6c63ff"/>
    <path id="Path_320" data-name="Path 320" d="M857.36,327.669l.363.092a.456.456,0,0,0,.562-.331l.411-1.611-.8-.2Z" transform="translate(-713.409 -268.82)" fill="#3a3768"/>
    <path id="Path_321" data-name="Path 321" d="M847.345,283.081a3.707,3.707,0,0,1-2.155,2.41l1.417-5.561A3.7,3.7,0,0,1,847.345,283.081Z" transform="translate(-703.664 -232.237)" fill="#3a3768"/>
    <path id="Path_322" data-name="Path 322" d="M804,323.842a.456.456,0,0,1-.329-.556l.4-1.611L801.41,321l-8.144,32a5.306,5.306,0,0,1-1.736,6.819l-.189.745,3.616.921L804.5,323.97Z" transform="translate(-660.548 -265.121)" fill="#3a3768"/>
    <path id="Path_323" data-name="Path 323" d="M853.142,326a.456.456,0,0,0,.329.556l.5.128.526-2.055-.945-.239Z" transform="translate(-710.02 -267.835)" fill="#3a3768"/>
    <path id="Path_324" data-name="Path 324" d="M703.113,276.583a1.658,1.658,0,0,1,1-.73,5.16,5.16,0,0,0,.737-.275l1.415-5.561a6.334,6.334,0,0,0-3.524-2.248c-2.926-.743-5.758.464-6.329,2.7a3.691,3.691,0,0,0,.7,3.087,5.394,5.394,0,0,0,.9.965l.014.042a1.706,1.706,0,0,1-.171,2.021l-17.873-4.549-4.038,15.84a5.465,5.465,0,0,1,4.744-1.062,6.071,6.071,0,0,1-2.99,11.734,5.473,5.473,0,0,1-3.656-3.205L669.9,311.6l15.828,4.03a5.457,5.457,0,0,1-1.011-4.68,5.851,5.851,0,0,1,7.255-3.959,6.219,6.219,0,0,1,4.058,3.205l8.144-32-1.182-.3A1.4,1.4,0,0,1,703.113,276.583Z" transform="translate(-563.314 -222.324)" fill="#6c63ff"/>
    <path id="Path_325" data-name="Path 325" d="M842.433,315.77l.032-.13c-.062.03-.124.062-.185.09Z" transform="translate(-701.334 -260.829)" fill="#6c63ff"/>
    <path id="Path_326" data-name="Path 326" d="M828.212,482.639c.6.911,1.3,4.893,1.3,4.893a4.116,4.116,0,0,1,.443,1.686,8.673,8.673,0,0,0,.442,2.193l1.549,5.723a5.143,5.143,0,0,0,.415,2.591c.582,1.07.524.745.249,2.625s.331,3.622,1.326,4.186-.442,1.852-.442,1.852,6.358,1.714,7.686.664-.692-6.249-.692-6.249a35.191,35.191,0,0,0,.112-5c-.221-.636-1.162-6.053-1.162-6.053a10.289,10.289,0,0,1-.359-2.876c.221-.415-.138-1.595-.138-1.595s-.941-1.328-.857-1.742a2.55,2.55,0,0,0-.277-1.16s2.814-4.325,2.565-5.137a4.723,4.723,0,0,1,.11-2.1l.785-1.343c.524-.9,1.158-1.971,1.371-2.306a29.379,29.379,0,0,0,1.29-3.287l.259-.749s.443,8.128.829,8.958.967,7.375.967,7.375a4.585,4.585,0,0,1,.277,1.824,46.115,46.115,0,0,0,.885,5.473,16.99,16.99,0,0,1,.138,3.986c-.277.835-.056,6.94-.056,6.94a7.9,7.9,0,0,0-1.908,2.1c-.387.9.056,3.389.056,3.389s4.423,2.212,6.378,1.632,1.16-3.927,1.16-3.927a10.668,10.668,0,0,0,1.327-3.068,33.67,33.67,0,0,1,.482-3.474c1.686-3.1,1.023-10.614,1.3-11.222s-.582-2.876-1.272-3.9-.415-3.787,0-4.584-.427-3.57-.427-3.57.8-5.364.773-6.193a18.816,18.816,0,0,1,.692-3.289s.718-1.272.552-1.66.552-1.381.359-1.824a4.962,4.962,0,0,1,.526-2.591,16.64,16.64,0,0,0,.6-2.545c.169-.955.295-1.794.295-1.794l-4.562-3.677-11.389-2.99-4.284-1.381-4.176,6.578a16.724,16.724,0,0,0-.811,1.481,4.376,4.376,0,0,0-.57,1.919,2.653,2.653,0,0,1-.387,1.714s-2.49,7.877-2.434,10.146a50.876,50.876,0,0,1-.885,7.242S827.6,481.724,828.212,482.639Z" transform="translate(-689.913 -367.96)" fill="#ceddf9"/>
    <path id="Path_327" data-name="Path 327" d="M911.886,239.383c.175-.072,12.2-5.039,10.544-6.026-.983-.586-2.193-3.07-3.022-5.013-.578-1.357-.971-2.452-.971-2.452s-9.651-1.714-6.2,4.2a10.963,10.963,0,0,1,1.218,2.914A6.547,6.547,0,0,1,911.886,239.383Z" transform="translate(-756.753 -188.786)" fill="#fec2be"/>
    <path id="Path_328" data-name="Path 328" d="M912.241,230.095a10.965,10.965,0,0,1,1.218,2.914,6.739,6.739,0,0,0,5.7-4,6.424,6.424,0,0,0,.251-.66c-.578-1.357-.971-2.452-.971-2.452S908.786,224.179,912.241,230.095Z" transform="translate(-756.752 -188.786)" opacity="0.1"/>
    <path id="Path_329" data-name="Path 329" d="M885.14,200.549a6.743,6.743,0,1,0,.263-1.868A6.743,6.743,0,0,0,885.14,200.549Z" transform="translate(-735.652 -163.277)" fill="#fec2be"/>
    <path id="Path_330" data-name="Path 330" d="M852.5,457.5a4.127,4.127,0,0,1,.977,1.864s3.319,2.266,3.1.829,1.714-7.243,1.714-7.243l-.221,7.907s10.614-.5,11.389-1.272,5.308-2.256,5.308-2.256,1.4,1.114,2.663,1.959c.169-.955.295-1.794.295-1.794l-4.562-3.677-11.389-2.99-4.283-1.381-4.176,6.578A16.745,16.745,0,0,0,852.5,457.5Z" transform="translate(-709.518 -367.968)" opacity="0.1"/>
    <path id="Path_331" data-name="Path 331" d="M846.649,297.894a3.712,3.712,0,0,1,1.216,2.045s3.317,2.266,3.1.829,1.714-7.243,1.714-7.243l-.221,7.907s10.616-.494,11.387-1.272,5.308-2.266,5.308-2.266,3.927,3.151,4.644,2.874-1.272-5.639-1.272-5.639l-2.043-31.4s.552-9.344-.277-9.677a1.2,1.2,0,0,1-.349-.217,3.526,3.526,0,0,1-.757-2.324c-.054-1-1.381-.5-1.381-.5l.773,1-6.851,4.166-.06.036a7.568,7.568,0,0,0-.823-.373,2.981,2.981,0,0,0-1.941-.235,1.878,1.878,0,0,0-.726.654,8.215,8.215,0,0,0-.933,1.89l-2.482,4.2s-1.272,5.581-1.272,5.806-.387,5.308-.829,5.86a9.244,9.244,0,0,0-.72,4.146,22.6,22.6,0,0,1-.277,3.927c-1.824,1.493-2.763,6.578-2.763,6.578s-2.882,5.7-3.109,6.358A3,3,0,0,0,846.649,297.894Z" transform="translate(-704.015 -208.981)" fill="#fff"/>
    <path id="Path_332" data-name="Path 332" d="M925.94,257.26a14,14,0,0,0,2.613,2.392l5.6-4.734a3.528,3.528,0,0,1-.757-2.326c-.054-1-1.381-.5-1.381-.5l.161.2a.893.893,0,0,1-.241,1.31Z" transform="translate(-768.319 -209.85)" opacity="0.1"/>
    <path id="Path_333" data-name="Path 333" d="M925.94,256.154a14.006,14.006,0,0,0,2.613,2.392l5.6-4.734a3.527,3.527,0,0,1-.757-2.324c-.054-1-1.381-.5-1.381-.5l.161.2a.891.891,0,0,1-.241,1.308Z" transform="translate(-768.319 -208.965)" fill="#fff"/>
    <path id="Path_334" data-name="Path 334" d="M912.94,277.715c.724.865,1.75,1.848,1.7,1.355a4.274,4.274,0,0,1,1.032-2.065,3.06,3.06,0,0,0-2.009.056A1.861,1.861,0,0,0,912.94,277.715Z" transform="translate(-757.91 -229.781)" opacity="0.1"/>
    <path id="Path_335" data-name="Path 335" d="M912.39,276.488c.724.867,1.748,1.848,1.7,1.357s.544-1.29.965-1.776a2.966,2.966,0,0,0-1.941-.233,1.854,1.854,0,0,0-.724.652Z" transform="translate(-757.47 -228.887)" fill="#fff"/>
    <circle id="Ellipse_44" data-name="Ellipse 44" cx="0.442" cy="0.442" r="0.442" transform="translate(156.289 51.317)" fill="#ff718d"/>
    <circle id="Ellipse_45" data-name="Ellipse 45" cx="0.442" cy="0.442" r="0.442" transform="translate(152.935 63.258)" fill="#ff718d"/>
    <circle id="Ellipse_46" data-name="Ellipse 46" cx="0.442" cy="0.442" r="0.442" transform="translate(149.14 75.349)" fill="#ff718d"/>
    <circle id="Ellipse_47" data-name="Ellipse 47" cx="0.442" cy="0.442" r="0.442" transform="translate(149.028 88.507)" fill="#ff718d"/>
    <circle id="Ellipse_48" data-name="Ellipse 48" cx="0.442" cy="0.442" r="0.442" transform="translate(154.336 56.956)" fill="#ff718d"/>
    <circle id="Ellipse_49" data-name="Ellipse 49" cx="0.442" cy="0.442" r="0.442" transform="translate(151.35 69.23)" fill="#ff718d"/>
    <circle id="Ellipse_50" data-name="Ellipse 50" cx="0.442" cy="0.442" r="0.442" transform="translate(148.438 81.283)" fill="#ff718d"/>
    <circle id="Ellipse_51" data-name="Ellipse 51" cx="0.442" cy="0.442" r="0.442" transform="translate(149.102 89.981)" fill="#ff718d"/>
    <path id="Path_336" data-name="Path 336" d="M927.519,266.231s-.074-.664.883.48a11.541,11.541,0,0,0,2.765,2.137s4.092,2.876,4.313,4.2,1.547,7.078.847,8.993-6.049,11.1-6.049,11.1a4.987,4.987,0,0,1,1.07,3.614,24.558,24.558,0,0,0-.554,5.234c.183.59-.221,2.063.4,2.579s1.29,1.4-.664,2.579c0,0-.369,1-.038,1.218s-4.9,2.506-6.976,1.29-5.78-10.947-5.86-13.121a51.678,51.678,0,0,1,1.806-11.059c.664-1.69,2.655-8.294,3.5-9.767S927.519,266.231,927.519,266.231Z" transform="translate(-761.682 -221.115)" opacity="0.1"/>
    <path id="Path_337" data-name="Path 337" d="M928.644,266.231s-.074-.664.885.48a11.582,11.582,0,0,0,2.765,2.137s4.092,2.876,4.313,4.2,1.547,7.078.847,8.993-6.046,11.1-6.046,11.1a4.987,4.987,0,0,1,1.07,3.614,24.562,24.562,0,0,0-.554,5.234c.183.59-.221,2.063.4,2.579s1.29,1.4-.664,2.579c0,0-.369,1-.038,1.218s-4.9,2.506-6.976,1.29-5.78-10.947-5.86-13.121a51.671,51.671,0,0,1,1.806-11.059c.664-1.69,2.655-8.294,3.5-9.767S928.644,266.231,928.644,266.231Z" transform="translate(-762.587 -221.115)" fill="#dd6d7d"/>
    <path id="Path_338" data-name="Path 338" d="M963.358,298.48s-3.169,3.5-3.06,5.824A7.414,7.414,0,0,1,963.358,298.48Z" transform="translate(-795.827 -247.089)" opacity="0.1"/>
    <path id="Path_339" data-name="Path 339" d="M938.992,327.33c0,.11-2.139,8.071-2.027,9.067a19.3,19.3,0,0,1-.628,3.943l-1-.257s.773-4.092.921-5.6S938.992,327.33,938.992,327.33Z" transform="translate(-775.846 -270.189)" opacity="0.1"/>
    <path id="Path_340" data-name="Path 340" d="M949.4,441.24c.074.11,5.051,5.749,3.65,6.155S949.4,441.24,949.4,441.24Z" transform="translate(-787.103 -361.394)" opacity="0.1"/>
    <path id="Path_341" data-name="Path 341" d="M969.93,434c.11.074,1.993,4.054,2.211,2.99s-1.62,2.912-1.916-.036Z" transform="translate(-803.541 -355.597)" opacity="0.1"/>
    <path id="Path_342" data-name="Path 342" d="M873.152,272.36s-2.055-1.254-4.636,1.953c0,0-1.88,1.068-2.432,1.327s-1.18,7.114-1.18,7.114-1.216,2.948-.885,4.644-.957,7.518-.957,7.518-2.141,10.464-2.069,10.763,2.175-3.281,2.139-5.051,1.768-7.3,2.027-7.63,2.027-9.8,2.027-9.8a35.616,35.616,0,0,1,2.358-5.346c.921-1.328,2.065-3.833,2.543-4.276a4.874,4.874,0,0,1,1.142-.737Z" transform="translate(-716.316 -225.983)" opacity="0.1"/>
    <path id="Path_343" data-name="Path 343" d="M872.3,272.36s-2.3-1.254-4.883,1.953c0,0-1.882,1.068-2.434,1.327s-1.18,7.114-1.18,7.114-1.216,2.948-.885,4.644-.957,7.518-.957,7.518-2.139,10.468-2.065,10.763,2.175-3.281,2.139-5.051,1.768-7.3,2.027-7.63,2.033-9.8,2.033-9.8a35.609,35.609,0,0,1,2.358-5.346c.921-1.328,2.065-3.833,2.543-4.276a4.53,4.53,0,0,1,1.363-.737Z" transform="translate(-715.435 -225.983)" fill="#dd6d7d"/>
    <path id="Path_344" data-name="Path 344" d="M830.742,381.474s-4.385-2.874-6.506-1.455-5.581,3.428-2.175,4.883a21.3,21.3,0,0,0,8.126,1.176Z" transform="translate(-683.999 -312.06)" fill="#fec2be"/>
    <path id="Path_345" data-name="Path 345" d="M885.7,516.714c.654,1.4,1.2,8.447,1.559,10.682.524-.9,1.158-1.971,1.371-2.306a29.384,29.384,0,0,0,1.29-3.287,22.037,22.037,0,0,1-1.567-4.983c0-1.3-2.1-2.93-2.1-2.93A2.448,2.448,0,0,0,885.7,516.714Z" transform="translate(-735.903 -419.563)" opacity="0.1"/>
    <path id="Path_346" data-name="Path 346" d="M931.368,632.12s-4.865-2.073-6.3-.6S931.368,632.12,931.368,632.12Z" transform="translate(-767.476 -513.324)" opacity="0.1"/>
    <path id="Path_347" data-name="Path 347" d="M943.67,640.81s4.921,2.765,3.235,3.227S943.67,640.81,943.67,640.81Z" transform="translate(-782.515 -521.185)" opacity="0.1"/>
    <path id="Path_348" data-name="Path 348" d="M869.89,628.75s2.1.138,1.3.552S869.89,628.75,869.89,628.75Z" transform="translate(-723.441 -511.529)" opacity="0.1"/>
    <path id="Path_349" data-name="Path 349" d="M856.71,631.94c.028.138,6.109,2.1,4.921,2.99S856.71,631.94,856.71,631.94Z" transform="translate(-712.888 -514.083)" opacity="0.1"/>
    <path id="Path_350" data-name="Path 350" d="M935.851,711.167c-.911-.14-6-2.49-4.008-.8A3.943,3.943,0,0,0,935.851,711.167Z" transform="translate(-772.679 -576.391)" opacity="0.1"/>
    <path id="Path_351" data-name="Path 351" d="M930.891,726.11a1.977,1.977,0,0,1-2.129,1.493C927.076,727.382,930.891,726.11,930.891,726.11Z" transform="translate(-770.234 -589.483)" opacity="0.1"/>
    <path id="Path_352" data-name="Path 352" d="M932.143,738.873c-.3-.082-3.927-1.74-4.008-.967s3.454,2.129,3.731,1.714A1.482,1.482,0,0,0,932.143,738.873Z" transform="translate(-770.075 -598.764)" opacity="0.1"/>
    <path id="Path_353" data-name="Path 353" d="M867.678,730.946c-.443-.028-4.584-1.355-5.418-.167Z" transform="translate(-717.332 -592.826)" opacity="0.1"/>
    <path id="Path_354" data-name="Path 354" d="M864.219,735.872a1.471,1.471,0,0,0-1.437-.305C862.065,735.9,864.219,735.872,864.219,735.872Z" transform="translate(-717.633 -596.978)" opacity="0.1"/>
    <path id="Path_355" data-name="Path 355" d="M912.851,771.88a1.238,1.238,0,0,1-.941.967Z" transform="translate(-757.086 -626.13)" opacity="0.1"/>
    <path id="Path_356" data-name="Path 356" d="M810.319,748.99c.277,1.134,4.148,1.244,6,.941s5.695-1.411,5.695-1.411a31.165,31.165,0,0,0,5.224-.883c1.188-.5.249-1.77.249-1.77v-.12a7.243,7.243,0,0,0-.173-2.591,5.507,5.507,0,0,1-.138-2.24s-5.723,1.106-5.834.582a2.984,2.984,0,0,0-1.409-1.437c-.413-.165-.72,1.381-.72,1.381s-2.591,2.212-2.765,3.014-1.993,1.216-1.993,1.216a31.366,31.366,0,0,0-3.484,1.16,1.337,1.337,0,0,0-.761,1.074,2.989,2.989,0,0,0,.11,1.084Z" transform="translate(-675.648 -600.643)" fill="#ca8496"/>
    <path id="Path_357" data-name="Path 357" d="M810.344,771.883c.277,1.134,4.148,1.244,6,.941s5.695-1.411,5.695-1.411a31.152,31.152,0,0,0,5.224-.883c1.188-.5.249-1.77.249-1.77v-.12l-5.78,1.282a15.742,15.742,0,0,1-4.672,1.216c-1.595,0-5.162.652-6.817-.337a2.992,2.992,0,0,0,.1,1.082Z" transform="translate(-675.673 -623.536)" opacity="0.1"/>
    <path id="Path_358" data-name="Path 358" d="M850.05,763a3.765,3.765,0,0,0,1.383,2.432Z" transform="translate(-707.556 -619.02)" opacity="0.1"/>
    <path id="Path_359" data-name="Path 359" d="M886.46,198.672a1.981,1.981,0,0,0,.329.138,2.037,2.037,0,0,0,1.485-.49c.46-.279,1.1-.486,1.495-.124.52.472.143,1.481.68,1.937.339.289.877.189,1.254.427a1.8,1.8,0,0,1,.586,1.206c.1.448.287.961.726,1.092s.847-.157,1.28-.141c.09,0,.2.014.255-.05a.269.269,0,0,0,.042-.2,4.259,4.259,0,0,1,.142-1.595,1.537,1.537,0,0,1,1.124-1.052c.775-.12,1.427.56,1.884,1.2a19.576,19.576,0,0,1,1.308,2.1,1.361,1.361,0,0,1,.066.146,6.745,6.745,0,1,0-12.653-4.584Z" transform="translate(-736.708 -163.267)" opacity="0.1"/>
    <path id="Path_360" data-name="Path 360" d="M883.16,185.454c-.456-.642-1.108-1.32-1.886-1.2a1.529,1.529,0,0,0-1.122,1.05,4.222,4.222,0,0,0-.14,1.595.279.279,0,0,1-.044.2c-.062.066-.166.056-.255.052-.432-.016-.863.265-1.28.141s-.63-.644-.726-1.092a1.773,1.773,0,0,0-.586-1.206c-.387-.245-.915-.138-1.254-.429-.536-.454-.157-1.465-.68-1.937-.4-.361-1.035-.153-1.495.126a2.037,2.037,0,0,1-1.487.488c-.175-.048-.333-.147-.5-.213-.819-.313-1.882.217-2.555-.345a1.974,1.974,0,0,1-.51-.883,5.617,5.617,0,0,1-.373-1.409,1.884,1.884,0,0,1,.375-1.373c.439-.516,1.18-.646,1.74-1.027a4.374,4.374,0,0,0,1.112-1.312,4.9,4.9,0,0,1,1.08-1.341,1.591,1.591,0,0,1,1.62-.255,1.794,1.794,0,0,0,.532.253,1.1,1.1,0,0,0,.588-.161c1.918-.9,4.15-.743,6.253-.474a8.052,8.052,0,0,1,2.462.6,2.957,2.957,0,0,1,1.66,1.818c.172.65.04,1.357.247,1.993.14.435.427.8.6,1.234.448,1.166-.088,2.446-.315,3.674-.247,1.341-.124,2.791-.694,4.062-.112.249-.237.686-.518.522-.2-.122-.411-.829-.53-1.05A19.367,19.367,0,0,0,883.16,185.454Z" transform="translate(-722.129 -147.817)" fill="#9a5e7f"/>
    <path id="Path_361" data-name="Path 361" d="M890.942,312.3l1,2.838s-2.36,8.77-3.466,10.614-2.727,4.2-2.727,4.2a10.1,10.1,0,0,1-5.9.737c-3.171-.628-12.426-2.284-12.426-2.284a1.23,1.23,0,0,1-1.18-.443c-.4-.59-2.512-.889-2.512-.889s-2.432-3.538.554-5.013c0,0,.369.811,1.953.259s2.063.441,2.063.441a16.86,16.86,0,0,0,4.018.333c1.427-.183,5.013-.259,5.382-.554a.474.474,0,0,1,.664.038,4,4,0,0,0,1.178-.664c.295-.333.7.369.7.369s.516-.3.369-.664.478-1.768.478-1.768a3.6,3.6,0,0,0,.112-1.66c-.183-.737.921-3.388.921-3.388a4.691,4.691,0,0,0-.147-1.327c-.185-.662,1.4-1.993,1.4-1.993s1.547-7.52,4.828-5.051A6.485,6.485,0,0,1,890.942,312.3Z" transform="translate(-717.761 -253.056)" opacity="0.1"/>
    <path id="Path_362" data-name="Path 362" d="M892.042,312.3l1,2.838s-2.36,8.77-3.466,10.614-2.725,4.2-2.725,4.2a10.1,10.1,0,0,1-5.9.737c-3.171-.628-12.422-2.284-12.422-2.284a1.227,1.227,0,0,1-1.178-.443c-.4-.59-2.509-.889-2.509-.889s-2.432-3.538.554-5.013c0,0,.369.811,1.953.259s2.063.441,2.063.441a16.86,16.86,0,0,0,4.018.333c1.427-.183,5.013-.259,5.382-.554a.474.474,0,0,1,.664.038,4,4,0,0,0,1.178-.664c.3-.333.7.369.7.369s.516-.3.369-.664.478-1.768.478-1.768a3.586,3.586,0,0,0,.11-1.66c-.185-.737.923-3.388.923-3.388a4.693,4.693,0,0,0-.147-1.327c-.185-.662,1.4-1.993,1.4-1.993s1.547-7.52,4.828-5.051A6.463,6.463,0,0,1,892.042,312.3Z" transform="translate(-718.65 -253.056)" fill="#dd6d7d"/>
    <path id="Path_363" data-name="Path 363" d="M883.093,397.41c.036.259.847,1.29.552,1.475s-.773.074-.331.664.4,1.473.11,1.363a3.563,3.563,0,0,1-.773-1.953A5.8,5.8,0,0,1,883.093,397.41Z" transform="translate(-733.658 -326.3)" opacity="0.1"/>
    <path id="Path_364" data-name="Path 364" d="M939.79,394.45s.221,2.581,2.035,3.319S939.79,394.45,939.79,394.45Z" transform="translate(-779.408 -323.93)" opacity="0.1"/>
    <path id="Path_365" data-name="Path 365" d="M958.65,390c.11.038,2.579,1.365,1.475,2.139S958.65,390,958.65,390Z" transform="translate(-794.509 -320.367)" opacity="0.1"/>
    <path id="Path_366" data-name="Path 366" d="M959.39,380.77s3.612.737,2.392,1.363S959.39,380.77,959.39,380.77Z" transform="translate(-795.102 -312.977)" opacity="0.1"/>
    <g id="Group_18" data-name="Group 18" transform="translate(146.128 32.042)" opacity="0.1">
      <path id="Path_367" data-name="Path 367" d="M927.355,210.9a1.542,1.542,0,0,1,1.122-1.05c.777-.12,1.429.56,1.885,1.2a19.575,19.575,0,0,1,1.308,2.1c.12.221.323.927.53,1.048.281.165.4-.271.518-.52.57-1.268.446-2.721.694-4.062a23.553,23.553,0,0,0,.474-2.372,11.512,11.512,0,0,1-.474,2.96c-.247,1.341-.124,2.791-.694,4.064-.112.249-.237.686-.518.52-.2-.122-.411-.827-.53-1.048a19.573,19.573,0,0,0-1.308-2.1c-.456-.64-1.108-1.32-1.885-1.2a1.529,1.529,0,0,0-1.122,1.05,2.922,2.922,0,0,0-.148.829,3.861,3.861,0,0,1,.148-1.419Z" transform="translate(-915.451 -206.078)"/>
      <path id="Path_368" data-name="Path 368" d="M868.66,202.724a1.971,1.971,0,0,0,.51.885c.674.562,1.736.032,2.555.345.171.064.329.165.5.213a2.045,2.045,0,0,0,1.487-.49c.458-.279,1.1-.484,1.495-.124.522.472.143,1.481.68,1.937.339.289.877.2,1.254.429a1.775,1.775,0,0,1,.586,1.2c.1.44.285.961.726,1.092s.847-.155,1.28-.14c.09,0,.2.014.255-.052a.189.189,0,0,0,.03-.056c0,.149,0,.3.014.444a.281.281,0,0,1-.044.2c-.062.064-.165.054-.255.05-.433-.014-.863.265-1.28.142s-.63-.642-.726-1.092a1.725,1.725,0,0,0-.586-1.2c-.387-.235-.915-.14-1.254-.429-.536-.456-.157-1.467-.68-1.937-.4-.363-1.034-.155-1.495.124a2.048,2.048,0,0,1-1.487.49c-.175-.048-.333-.149-.5-.213-.819-.313-1.882.217-2.555-.345a1.982,1.982,0,0,1-.51-.885,5.629,5.629,0,0,1-.373-1.407,2.281,2.281,0,0,1,.012-.494,5.928,5.928,0,0,0,.361,1.314Z" transform="translate(-868.279 -201.41)"/>
    </g>
    <path id="Path_369" data-name="Path 369" d="M204.748,767.2s-8.427-.508-7.435,5.4a1.438,1.438,0,0,0,.749,1.519s.014-.438.865-.291a3.962,3.962,0,0,0,.915.046,1.905,1.905,0,0,0,1.118-.462h0s2.37-.979,3.291-4.852c0,0,.682-.843.654-1.06l-1.421.6a2.551,2.551,0,0,1,.1,1.88s-.046-1.842-.319-1.794c-.056,0-.74.355-.74.355a4.187,4.187,0,0,1,.2,3.088s.239-2.2-.466-2.958l-1,.584a4.424,4.424,0,0,1,.315,3.353s.169-2.31-.526-3.209l-.907.708s.919,1.818.359,3.068c0,0-.074-2.689-.554-2.892a5.22,5.22,0,0,0-.915,1s.628,1.322.237,2.019c0,0-.239-1.794-.435-1.794a5.82,5.82,0,0,0-.873,1.993,4.316,4.316,0,0,1,.682-2.115,2.374,2.374,0,0,0-1.21.628s.122-.839,1.405-.913a5.522,5.522,0,0,1,.827-.955,5.189,5.189,0,0,0-2.049.235,2.287,2.287,0,0,1,2.284-.431l.895-.731a7.416,7.416,0,0,0-2.392.024,2.91,2.91,0,0,1,2.633-.189l.975-.584a8.876,8.876,0,0,0-2.284-.2,3.507,3.507,0,0,1,2.571.042l.7-.313s-1.048-.2-1.355-.239-.325-.118-.325-.118a3.64,3.64,0,0,1,1.971.219A9.094,9.094,0,0,0,204.748,767.2Z" transform="translate(-184.86 -622.371)" fill="#6c63ff"/>
    <ellipse id="Ellipse_52" data-name="Ellipse 52" cx="5.964" cy="1.009" rx="5.964" ry="1.009" transform="translate(8.12 151.245)" fill="#6c63ff" opacity="0.1"/>
    <path id="Path_370" data-name="Path 370" d="M299,689.145s-4.752-.287-4.186,3.044a.813.813,0,0,0,.423.855s0-.247.488-.163a2.339,2.339,0,0,0,.516.026,1.091,1.091,0,0,0,.63-.261h0a3.766,3.766,0,0,0,1.858-2.737s.385-.476.369-.6l-.8.341a1.445,1.445,0,0,1,.058,1.06s-.026-1.038-.179-1.015c-.032,0-.417.2-.417.2a2.365,2.365,0,0,1,.116,1.74s.134-1.242-.263-1.668l-.568.339a2.5,2.5,0,0,1,.177,1.89,3.539,3.539,0,0,0-.3-1.81l-.51.4a2.436,2.436,0,0,1,.2,1.73s-.042-1.517-.313-1.63a3.19,3.19,0,0,0-.516.556s.355.745.136,1.138c0,0-.136-1.01-.245-1.015a3.328,3.328,0,0,0-.492,1.128,2.432,2.432,0,0,1,.383-1.2,1.351,1.351,0,0,0-.682.355s.07-.474.8-.514a3.018,3.018,0,0,1,.466-.538,2.92,2.92,0,0,0-1.156.132,1.3,1.3,0,0,1,1.288-.243l.5-.413a4.156,4.156,0,0,0-1.347.014,1.628,1.628,0,0,1,1.485-.108l.548-.327a4.929,4.929,0,0,0-1.288-.112,1.97,1.97,0,0,1,1.449.022l.4-.175s-.6-.118-.763-.136-.183-.066-.183-.066a2.057,2.057,0,0,1,1.112.124A4.637,4.637,0,0,0,299,689.145Z" transform="translate(-262.952 -559.881)" fill="#6c63ff"/>
    <ellipse id="Ellipse_53" data-name="Ellipse 53" cx="3.363" cy="0.568" rx="3.363" ry="0.568" transform="translate(29.418 132.884)" fill="#6c63ff" opacity="0.1"/>
    <path id="Path_371" data-name="Path 371" d="M154.826,703.64s-5.737-.347-5.053,3.674a.981.981,0,0,0,.51,1.032s0-.3.588-.2a2.62,2.62,0,0,0,.624.03,1.287,1.287,0,0,0,.761-.315h0s1.613-.666,2.24-3.3c0,0,.462-.574.445-.722l-.983.415a1.741,1.741,0,0,1,.07,1.278s-.032-1.252-.217-1.222c-.038,0-.5.241-.5.241a2.867,2.867,0,0,1,.14,2.1s.161-1.5-.319-2.013l-.68.4a3.009,3.009,0,0,1,.213,2.28,4.32,4.32,0,0,0-.357-2.193l-.618.482a2.946,2.946,0,0,1,.243,2.089s-.05-1.832-.377-1.969a3.822,3.822,0,0,0-.624.672s.429.9.163,1.373c0,0-.163-1.22-.3-1.226a4.123,4.123,0,0,0-.6,1.363,2.94,2.94,0,0,1,.464-1.439,1.613,1.613,0,0,0-.825.427s.084-.572.959-.622a3.813,3.813,0,0,1,.562-.65,3.534,3.534,0,0,0-1.4.159,1.569,1.569,0,0,1,1.555-.293l.61-.5a5.03,5.03,0,0,0-1.628.018,1.977,1.977,0,0,1,1.794-.13l.664-.4a6,6,0,0,0-1.555-.136,2.381,2.381,0,0,1,1.75.028l.474-.213s-.714-.139-.923-.161-.221-.08-.221-.08a2.463,2.463,0,0,1,1.341.147A5.854,5.854,0,0,0,154.826,703.64Z" transform="translate(-146.815 -571.485)" fill="#6c63ff"/>
    <ellipse id="Ellipse_54" data-name="Ellipse 54" cx="4.06" cy="0.686" rx="4.06" ry="0.686" transform="translate(0 136.525)" fill="#6c63ff" opacity="0.1"/>
    <ellipse id="Ellipse_55" data-name="Ellipse 55" cx="5.964" cy="1.009" rx="5.964" ry="1.009" transform="translate(115.169 161.166)" fill="#6c63ff" opacity="0.1"/>
    <path id="Path_372" data-name="Path 372" d="M722.79,823.408s3.4-.106,4.427-.835,5.232-1.595,5.487-.431,5.113,5.822,1.272,5.854-8.924-.6-9.948-1.222S722.79,823.408,722.79,823.408Z" transform="translate(-605.662 -665.918)" fill="#a8a8a8"/>
    <path id="Path_373" data-name="Path 373" d="M734.036,834.944c-3.841.032-8.924-.6-9.946-1.22-.779-.476-1.09-2.179-1.2-2.964h-.114s.215,2.743,1.238,3.367,6.107,1.252,9.948,1.222c1.108,0,1.491-.4,1.471-1C735.286,834.717,734.861,834.938,734.036,834.944Z" transform="translate(-605.654 -673.274)" opacity="0.2"/>
  </g>
</svg>
