<svg xmlns="http://www.w3.org/2000/svg" width="202.761" height="156.958" viewBox="0 0 202.761 156.958">
  <g id="undraw_special_event_4aj8" transform="translate(0)">
    <path id="Path_115" data-name="Path 115" d="M190.926,111.007a74.749,74.749,0,0,1-24.52-4.116c-10.572-3.655-19.234-8.7-25.743-14.986-12.313-11.9-22.407-13.688-28.706-13.1a20.186,20.186,0,0,0-10.827,4.166l-.271-.3a20.592,20.592,0,0,1,11.034-4.266,27.252,27.252,0,0,1,12.655,2c5.395,2.137,10.912,5.907,16.4,11.207,6.466,6.247,15.077,11.258,25.593,14.894a76.881,76.881,0,0,0,59.694-4.434A67.3,67.3,0,0,1,244.354,95.7a43.015,43.015,0,0,1,20.815.946c14.126,4.395,23.775,4.162,29.382,3.193,6.049-1.046,8.794-3.138,8.821-3.159l.25.321c-.114.088-2.853,2.176-9,3.239-5.651.977-15.369,1.214-29.571-3.205-14.38-4.473-28.945.47-38.631,5.4a77.97,77.97,0,0,1-29.58,8.345Q193.871,111.007,190.926,111.007Z" transform="translate(-100.859 -75.317)" fill="#3f3d56"/>
    <circle id="Ellipse_5" data-name="Ellipse 5" cx="4.117" cy="4.117" r="4.117" transform="translate(85.13 32.498)" fill="#6c63ff"/>
    <circle id="Ellipse_6" data-name="Ellipse 6" cx="4.117" cy="4.117" r="4.117" transform="translate(148.907 16.046)" fill="#6c63ff"/>
    <circle id="Ellipse_7" data-name="Ellipse 7" cx="4.117" cy="4.117" r="4.117" transform="translate(16.276 0)" fill="#6c63ff"/>
    <path id="Path_116" data-name="Path 116" d="M685.6,392.044v39.774h6.254V395.546h25.015v36.272h6.254V352.269h-6.254c-2.072,0-5.253,10.793-5.253,21.638,0,8.175.955,15.18,2.312,18.136Zm31.269,0h-.061c.02-.045.041-.091.061-.138Z" transform="translate(-566.835 -293.64)" fill="#3f3d56"/>
    <path id="Path_117" data-name="Path 117" d="M763.236,255.342h0c-5.133,0-9.295,4.618-9.295,10.315V272.9h2.226l1.289-2.682-.322,2.682h14.308l1.172-2.438-.293,2.438h1.611v-5.683C773.932,260.656,769.144,255.342,763.236,255.342Z" transform="translate(-621.294 -216.4)" fill="#2f2e41"/>
    <path id="Path_118" data-name="Path 118" d="M624.548,488.168l-5.707,2.425-19.832,16.122a5.838,5.838,0,0,0-1.284,3.139c-.143,1.855-6.135,11.557-3.995,12.841s9.844,5.136,10.272,2.568,2.711-13.554,2.711-13.554l19.118-17.121Z" transform="translate(-493.255 -401.937)" fill="#2f2e41"/>
    <path id="Path_119" data-name="Path 119" d="M580.254,658.027l-2.425,7.134s2.568,2.711,1.284,4.994V678h-2l-.571-4.138s-2.275,4.085-3.424,4.138c-2.409.109-7.179.966-7.322-.318s3.612-2.536,3.612-2.536l3.995-10.986,1.712-6.706Z" transform="translate(-471.361 -536.841)" fill="#2f2e41"/>
    <path id="Path_120" data-name="Path 120" d="M682.808,452.167s1.284,12.555-2.425,14.838-20.117,9.559-20.117,9.559,6.991,6.563,5.564,8.132-7.847,5.85-8.7,4.994-10.415-11.129-9.274-14.41S664.832,461.3,664.832,461.3l1.855-6.706.571-5.422,5.992-3.852Z" transform="translate(-536.678 -367.79)" fill="#2f2e41"/>
    <circle id="Ellipse_8" data-name="Ellipse 8" cx="5.948" cy="5.948" r="5.948" transform="translate(133.646 43.249)" fill="#ffb9b9"/>
    <path id="Path_121" data-name="Path 121" d="M783.971,317.825s-.285,5.422,4.138,7.134S777.123,337.8,777.123,337.8V325.387s2-2.14,0-5.422Z" transform="translate(-639.766 -266.192)" fill="#ffb9b9"/>
    <path id="Path_122" data-name="Path 122" d="M826.133,443.211l-1.141,5.564-3.424,19.118s2.853,8.132-1,7.99-2-8.846-2-8.846l2-15.837v-6.135Z" transform="translate(-672.441 -366.111)" fill="#ffb9b9"/>
    <path id="Path_123" data-name="Path 123" d="M700.868,429.865l-1.284,4.994-5.85,14.125s-3.995,6.706-.713,6.563,3.281-6.563,3.281-6.563l6.706-11.414v-6.42Z" transform="translate(-571.715 -355.475)" fill="#ffb9b9"/>
    <path id="Path_124" data-name="Path 124" d="M713.9,634.978l4.708,4.423s3.281-.713,4.566,3.139,2.14,6.278,2.14,6.278l-1.712,1-2.14-3s-1.284,5.422-2.568,5.85-7.7,3.281-7.134,0L714.9,648.1s.428-5.136-.856-5.564-4.708-4.708-4.708-4.708Z" transform="translate(-585.748 -518.928)" fill="#2f2e41"/>
    <path id="Path_125" data-name="Path 125" d="M757.574,474.318s-13.411-4.851-14.267-4.423a6.434,6.434,0,0,1-2.01.522l.012-1.948s4.423-1.569,6.848-.571S758,473.319,758,473.319Z" transform="translate(-611.218 -385.518)" fill="#3f3d56"/>
    <path id="Path_126" data-name="Path 126" d="M749.387,359.844s3.852-4.423,4.994-7.134a7,7,0,0,1,3.7-3.641s8.567,1.929,8.424,5.353-5.422,8.7-5.422,8.7.713,18.976-3.139,18.69a8.262,8.262,0,0,1-1.712-3.424c-.428-2-13.7-4.138-13.7-4.138s-1.141,2-1.284,1.141,1.141-21.829,1.141-21.829l6.8-4.5Z" transform="translate(-611.175 -291.09)" fill="#dd6d7d"/>
    <path id="Path_127" data-name="Path 127" d="M832.857,367.651l.1.054a1.969,1.969,0,0,1,1.005,1.717V380.01a1.984,1.984,0,0,0,.706,1.51c.55.467,1.059,1.141.008,1.492-1.712.571-8.418,3.424-8.56,2.425s-.428-2.14,0-2.14c.335,0,2.332-10.231,3.936-14.605a1.969,1.969,0,0,1,2.812-1.04Z" transform="translate(-678.623 -305.697)" fill="#dd6d7d"/>
    <path id="Path_128" data-name="Path 128" d="M731.674,368.752l-2,.571-2.283,9.844s-2.711.571-1.855,1.569a43.571,43.571,0,0,0,4.423,3.567Z" transform="translate(-598.527 -306.775)" fill="#dd6d7d"/>
    <path id="Path_129" data-name="Path 129" d="M771.912,261.631a4.875,4.875,0,0,0-3.846-1.963h-.182c-3.518,0-6.371,3.184-6.371,7.111h1.179l.19-1.449.279,1.449h6.992l.586-1.226-.146,1.226h1.376q.963,4.782-2.767,9.563h2.343l1.172-2.452-.293,2.452h4.467l.879-5.64A9.532,9.532,0,0,0,771.912,261.631Z" transform="translate(-627.327 -219.848)" fill="#2f2e41"/>
    <path id="Path_130" data-name="Path 130" d="M184.506,420.8c1.5-3.268,2.557-11.014,2.557-20.053,0-11.991-3.517-23.925-5.808-23.925H174.34v87.955h6.915V424.672h27.659v40.105h6.915V420.8Zm-3.252-.152c.022.051.045.1.067.152h-.067Z" transform="translate(-159.415 -313.207)" fill="#3f3d56"/>
    <path id="Path_131" data-name="Path 131" d="M354.339,514.342s8.328,3.453,5.687,5.484-8.124-2.437-7.921-3.047-.812-2.031-.812-2.031Z" transform="translate(-300.426 -422.794)" fill="#9f616a"/>
    <path id="Path_132" data-name="Path 132" d="M326.308,380.342l2.64,2.437.609,7.109,2.031,7.515s3.453,7.109,2.844,8.531a1.232,1.232,0,0,0,.609,1.828l-4.672,1.828s-5.078-5.687-5.078-6.906S326.308,380.342,326.308,380.342Z" transform="translate(-279.707 -316.011)" fill="#575a88"/>
    <path id="Path_133" data-name="Path 133" d="M326.308,380.342l2.64,2.437.609,7.109,2.031,7.515s3.453,7.109,2.844,8.531a1.232,1.232,0,0,0,.609,1.828l-4.672,1.828s-5.078-5.687-5.078-6.906S326.308,380.342,326.308,380.342Z" transform="translate(-279.707 -316.011)" fill="#585cb2" opacity="0.1"/>
    <path id="Path_134" data-name="Path 134" d="M448.482,733.17s-1.016,4.672-1.219,5.078,3.859,1.828,3.859,1.828L456,736.623s-2.031-4.468-2.031-5.281Z" transform="translate(-376.899 -595.719)" fill="#575a88"/>
    <path id="Path_135" data-name="Path 135" d="M266.414,516.342l1.422,1.625s29.451,3.656,30.06,9.343,4.875,32.5,2.437,33.31-8.734,3.859-8.734,2.234-4.062-23.967-3.25-28.029c0,0-35.138-4.468-35.951-9.546s.812-7.312.812-7.312Z" transform="translate(-221.439 -424.388)" fill="#2f2e41"/>
    <path id="Path_136" data-name="Path 136" d="M266.414,516.342l1.422,1.625s29.451,3.656,30.06,9.343,4.875,32.5,2.437,33.31-8.734,3.859-8.734,2.234-4.062-23.967-3.25-28.029c0,0-35.138-4.468-35.951-9.546s.812-7.312.812-7.312Z" transform="translate(-221.439 -424.388)" opacity="0.1"/>
    <path id="Path_137" data-name="Path 137" d="M442.493,752.478s-.812-1.828-1.219-1.219-1.828,7.718-.406,7.718,14.421,3.25,16.249,2.844,5.281.2,4.875-1.828a2.851,2.851,0,0,0-2.437-2.234s-7.515-4.468-7.921-6.7-2.64-1.016-2.64-1.016v1.422S444.727,754.712,442.493,752.478Z" transform="translate(-371.316 -610.356)" fill="#2f2e41"/>
    <path id="Path_138" data-name="Path 138" d="M251.872,299.084s1.422,6.906-1.625,7.515,3.859,4.672,3.859,4.672l4.468,2.437,3.25-3.25s-2.945-5.992-.711-10.46S251.872,299.084,251.872,299.084Z" transform="translate(-219.286 -250.19)" fill="#9f616a"/>
    <path id="Path_139" data-name="Path 139" d="M261.824,310.458l-3.25,3.25-4.468-2.437s-6.906-4.062-3.859-4.672c1.96-.392,2.07-3.39,1.9-5.478a18.883,18.883,0,0,0-.276-2.037s11.476-3.554,9.242.914a7.793,7.793,0,0,0-.7,2.185C259.73,306.2,261.824,310.458,261.824,310.458Z" transform="translate(-219.286 -250.19)" fill="#9f616a"/>
    <path id="Path_140" data-name="Path 140" d="M265.433,697.759v4.672h7.718l.609-1.828-.812-4.875Z" transform="translate(-211.521 -554.418)" fill="#575a88"/>
    <path id="Path_141" data-name="Path 141" d="M209.292,526.779s0,11.983,4.875,12.39,22.342,2.64,22.342,2.64,1.016,19.9,2.844,26.4.2,6.906,1.828,7.312,8.531-1.016,8.328-2.437-1.016-37.372-1.016-37.372,1.828-7.718-22.545-11.374Z" transform="translate(-187.268 -430.763)" fill="#2f2e41"/>
    <path id="Path_142" data-name="Path 142" d="M358.7,772.433s-1.219-2.641-1.422-1.828-2.64,7.921-.2,8.531,10.156,3.859,15.233,3.656a37.76,37.76,0,0,0,5.687-.406s1.422-2.031-.406-3.25-9.343-8.328-9.749-9.14-3.453-1.422-3.453,0S360.117,774.261,358.7,772.433Z" transform="translate(-304.174 -625.843)" fill="#2f2e41"/>
    <path id="Path_143" data-name="Path 143" d="M270.533,300a7.793,7.793,0,0,0-.7,2.185c-1.011.611-1.688.455-2.957.455-1.883,0-2.642-2.407-3.859-3.656-.1-1.16-1.726.1-1.726.1S272.768,295.53,270.533,300Z" transform="translate(-228.706 -250.19)" opacity="0.1"/>
    <circle id="Ellipse_9" data-name="Ellipse 9" cx="6.703" cy="6.703" r="6.703" transform="translate(30.961 38.942)" fill="#9f616a"/>
    <path id="Path_144" data-name="Path 144" d="M226.643,349.936s-1.016,7.312-1.625,9.952-1.422,14.827-1.828,16.452-2.844,2.031-7.718,1.422a9.173,9.173,0,0,0-.922-.069c-3-.1-6.437,1.028-9.615,1.909a24.171,24.171,0,0,1-5.1,1c-2.315.106-2.994-2.462-2.915-5.24a14.489,14.489,0,0,1,1.493-6.337c1.233-1.763.02-17.591.475-22.811v0a3.782,3.782,0,0,1,.337-1.56c1.219-1.625,9.14-5.687,10.028-5.523s8.455,4.913,8.455,4.913c1.828,0,1.769-1.982,1.769-1.982a6.522,6.522,0,0,0,3.715,3C225.628,345.671,226.643,349.936,226.643,349.936Z" transform="translate(-177.403 -283.168)" fill="#585cb2"/>
    <path id="Path_145" data-name="Path 145" d="M269.1,521.984s13.084.417,10.792,1.971-12.448,2.976-12.651.945A3.071,3.071,0,0,1,269.1,521.984Z" transform="translate(-233.433 -428.884)" fill="#9f616a"/>
    <path id="Path_146" data-name="Path 146" d="M214.574,404.958c.043.78-2.055,2.537-2.734,3.725-.376.658-3.284-.209-6.881-1.816a70.561,70.561,0,0,1-8.017-4.237,14.489,14.489,0,0,1,1.493-6.337c1.233-1.763.02-17.591.475-22.811v0a2.254,2.254,0,0,1,.337-.138h2.437c8.328,3.859-1.219,20.514-1.219,20.514s12.593,10.359,13.812,10.765A.365.365,0,0,1,214.574,404.958Z" transform="translate(-177.426 -310.433)" opacity="0.1"/>
    <path id="Path_147" data-name="Path 147" d="M175.119,367.342h-2.437s-2.234.609-4.062,4.672-8.531,16.655-2.64,21.53,18.483,10.562,19.3,9.14,3.656-3.656,2.437-4.062S173.9,387.856,173.9,387.856,183.447,371.2,175.119,367.342Z" transform="translate(-150.861 -305.652)" fill="#585cb2"/>
    <path id="Path_148" data-name="Path 148" d="M247.377,245.887s.294-4.072,3.923-2.412,3.392-2.916,2.3-3.725-1.062-1.009-5.072-.468-11.8,1.458-9.279,9.522,4.8,5.99,4.8,5.99-2-7.257.026-5.874L246.1,250.3l1.07-.227Z" transform="translate(-210.745 -203.361)" fill="#2f2e41"/>
    <path id="Path_149" data-name="Path 149" d="M540.914,535.616c0-3.666-27.243-6.638-60.849-6.638s-60.849,2.972-60.849,6.638c0,1.421,4.095,2.737,11.064,3.817v45.415H433.6V539.9c11.162,1.439,27.835,2.353,46.467,2.353,18.786,0,35.581-.929,46.743-2.388v44.983h3.319V539.389C536.928,538.318,540.914,537.018,540.914,535.616Z" transform="translate(-354.554 -434.457)" fill="#3f3d56"/>
    <ellipse id="Ellipse_10" data-name="Ellipse 10" cx="12.39" cy="3.047" rx="12.39" ry="3.047" transform="translate(120.745 95.203)" fill="#f2f2f2"/>
    <ellipse id="Ellipse_11" data-name="Ellipse 11" cx="10.156" cy="2.497" rx="10.156" ry="2.497" transform="translate(122.98 95.753)" fill="#d0cde1"/>
    <ellipse id="Ellipse_12" data-name="Ellipse 12" cx="12.39" cy="3.047" rx="12.39" ry="3.047" transform="translate(74.639 97.641)" fill="#f2f2f2"/>
    <ellipse id="Ellipse_13" data-name="Ellipse 13" cx="10.156" cy="2.497" rx="10.156" ry="2.497" transform="translate(76.873 98.19)" fill="#d0cde1"/>
    <ellipse id="Ellipse_14" data-name="Ellipse 14" cx="5.907" cy="0.933" rx="5.907" ry="0.933" transform="translate(126.94 96.17)" fill="#9f616a"/>
    <ellipse id="Ellipse_15" data-name="Ellipse 15" cx="1.865" cy="1.01" rx="1.865" ry="1.01" transform="translate(127.834 94.732)" fill="#6c63ff"/>
    <ellipse id="Ellipse_16" data-name="Ellipse 16" cx="1.865" cy="1.01" rx="1.865" ry="1.01" transform="translate(127.135 94.732)" fill="#6c63ff"/>
    <ellipse id="Ellipse_17" data-name="Ellipse 17" cx="1.865" cy="1.01" rx="1.865" ry="1.01" transform="translate(135.295 94.965)" fill="#6c63ff"/>
    <ellipse id="Ellipse_18" data-name="Ellipse 18" cx="1.865" cy="1.01" rx="1.865" ry="1.01" transform="translate(131.02 94.732)" fill="#6c63ff"/>
    <ellipse id="Ellipse_19" data-name="Ellipse 19" cx="1.865" cy="1.01" rx="1.865" ry="1.01" transform="translate(134.207 94.732)" fill="#6c63ff"/>
    <path id="Path_150" data-name="Path 150" d="M738.143,513a19.135,19.135,0,0,1-11.347,0v-.157a4.635,4.635,0,0,1,4.4-4.632,29.1,29.1,0,0,1,3,0,4.188,4.188,0,0,1,3.945,4.192Z" transform="translate(-599.662 -417.878)" fill="#3f3d56"/>
    <path id="Path_151" data-name="Path 151" d="M736.641,543.687a37.277,37.277,0,0,1-7.493,0,2.394,2.394,0,0,1-2.16-2.379H738.8A2.394,2.394,0,0,1,736.641,543.687Z" transform="translate(-599.814 -444.284)" fill="#3f3d56"/>
    <path id="Path_152" data-name="Path 152" d="M740.368,514.809a2.223,2.223,0,0,1-1.71,0A2.223,2.223,0,0,1,740.368,514.809Z" transform="translate(-609.114 -423.03)" fill="#d0cde1"/>
    <path id="Path_153" data-name="Path 153" d="M748.786,518.253a2.223,2.223,0,0,1-1.71,0A2.223,2.223,0,0,1,748.786,518.253Z" transform="translate(-615.823 -425.775)" fill="#d0cde1"/>
    <path id="Path_154" data-name="Path 154" d="M749.552,512.131a2.223,2.223,0,0,1-1.71,0A2.223,2.223,0,0,1,749.552,512.131Z" transform="translate(-616.433 -420.896)" fill="#d0cde1"/>
    <path id="Path_155" data-name="Path 155" d="M765.24,512.131a2.223,2.223,0,0,1-1.71,0A2.223,2.223,0,0,1,765.24,512.131Z" transform="translate(-628.935 -420.896)" fill="#d0cde1"/>
    <path id="Path_156" data-name="Path 156" d="M761.031,515.575a2.223,2.223,0,0,1-1.71,0A2.223,2.223,0,0,1,761.031,515.575Z" transform="translate(-625.58 -423.641)" fill="#d0cde1"/>
    <ellipse id="Ellipse_20" data-name="Ellipse 20" cx="5.907" cy="0.933" rx="5.907" ry="0.933" transform="translate(81.037 98.607)" fill="#9f616a"/>
    <ellipse id="Ellipse_21" data-name="Ellipse 21" cx="1.865" cy="1.01" rx="1.865" ry="1.01" transform="translate(81.931 97.169)" fill="#6c63ff"/>
    <ellipse id="Ellipse_22" data-name="Ellipse 22" cx="1.865" cy="1.01" rx="1.865" ry="1.01" transform="translate(81.232 97.169)" fill="#6c63ff"/>
    <ellipse id="Ellipse_23" data-name="Ellipse 23" cx="1.865" cy="1.01" rx="1.865" ry="1.01" transform="translate(89.392 97.403)" fill="#6c63ff"/>
    <ellipse id="Ellipse_24" data-name="Ellipse 24" cx="1.865" cy="1.01" rx="1.865" ry="1.01" transform="translate(85.117 97.169)" fill="#6c63ff"/>
    <ellipse id="Ellipse_25" data-name="Ellipse 25" cx="1.865" cy="1.01" rx="1.865" ry="1.01" transform="translate(88.304 97.169)" fill="#6c63ff"/>
    <path id="Path_157" data-name="Path 157" d="M512.143,525a19.133,19.133,0,0,1-11.347,0v-.157a4.635,4.635,0,0,1,4.4-4.632,29.119,29.119,0,0,1,3,0,4.188,4.188,0,0,1,3.945,4.192Z" transform="translate(-419.565 -427.441)" fill="#3f3d56"/>
    <path id="Path_158" data-name="Path 158" d="M510.641,555.687a37.277,37.277,0,0,1-7.493,0,2.394,2.394,0,0,1-2.16-2.379H512.8A2.394,2.394,0,0,1,510.641,555.687Z" transform="translate(-419.717 -453.846)" fill="#3f3d56"/>
    <path id="Path_159" data-name="Path 159" d="M514.368,526.809a2.222,2.222,0,0,1-1.71,0A2.222,2.222,0,0,1,514.368,526.809Z" transform="translate(-429.017 -432.593)" fill="#d0cde1"/>
    <path id="Path_160" data-name="Path 160" d="M522.786,530.253a2.223,2.223,0,0,1-1.71,0A2.223,2.223,0,0,1,522.786,530.253Z" transform="translate(-435.726 -435.338)" fill="#d0cde1"/>
    <path id="Path_161" data-name="Path 161" d="M523.552,524.131a2.222,2.222,0,0,1-1.71,0A2.222,2.222,0,0,1,523.552,524.131Z" transform="translate(-436.336 -430.459)" fill="#d0cde1"/>
    <path id="Path_162" data-name="Path 162" d="M539.24,524.131a2.222,2.222,0,0,1-1.71,0A2.222,2.222,0,0,1,539.24,524.131Z" transform="translate(-448.837 -430.459)" fill="#d0cde1"/>
    <path id="Path_163" data-name="Path 163" d="M535.031,527.575a2.223,2.223,0,0,1-1.71,0A2.223,2.223,0,0,1,535.031,527.575Z" transform="translate(-445.483 -433.204)" fill="#d0cde1"/>
    <path id="Path_164" data-name="Path 164" d="M785.313,543.277l.029.629.036.816s-3.748.212-4.5,1.01a.462.462,0,0,0-.048.055l-1.5-.328,0-.74.061-.033.032-.017A13.663,13.663,0,0,1,785.313,543.277Z" transform="translate(-641.519 -445.852)" fill="#6c63ff"/>
    <path id="Path_165" data-name="Path 165" d="M785.552,543.277l.029.629a25.115,25.115,0,0,0-4.807,1.042l-1.151-.262A13.624,13.624,0,0,1,785.552,543.277Z" transform="translate(-641.758 -445.852)" opacity="0.1"/>
    <path id="Path_166" data-name="Path 166" d="M779.415,550.13l1.119.279.341.784a.461.461,0,0,0-.048.055l-1.5-.329,0-.74.061-.033Z" transform="translate(-641.519 -451.313)" fill="#fff" opacity="0.1"/>
    <path id="Path_167" data-name="Path 167" d="M562.313,556.277l.029.629.036.816s-3.748.212-4.5,1.01a.462.462,0,0,0-.048.055l-1.5-.328,0-.74.061-.033.032-.017A13.662,13.662,0,0,1,562.313,556.277Z" transform="translate(-463.812 -456.212)" fill="#6c63ff"/>
    <path id="Path_168" data-name="Path 168" d="M562.552,556.277l.029.629a25.115,25.115,0,0,0-4.807,1.042l-1.151-.262A13.624,13.624,0,0,1,562.552,556.277Z" transform="translate(-464.052 -456.212)" opacity="0.1"/>
    <path id="Path_169" data-name="Path 169" d="M556.415,563.13l1.119.279.341.784a.462.462,0,0,0-.048.055l-1.5-.329,0-.74.061-.033Z" transform="translate(-463.812 -461.673)" fill="#fff" opacity="0.1"/>
    <path id="Path_170" data-name="Path 170" d="M895.679,415.165a3.748,3.748,0,0,0-1.106-.764v-7.892a.349.349,0,0,0-.349-.349H892.27a.349.349,0,0,0-.349.349v7.741a3.542,3.542,0,0,0-2.427,3.361v16.93a1.551,1.551,0,0,0,1.551,1.551h4.185a1.544,1.544,0,0,0,1.544-1.544V417.809A3.728,3.728,0,0,0,895.679,415.165Z" transform="translate(-729.314 -336.585)" fill="#3f3d56"/>
    <rect id="Rectangle_24" data-name="Rectangle 24" width="7.281" height="9.618" transform="translate(160.18 83.507)" fill="#6c63ff"/>
    <path id="Path_171" data-name="Path 171" d="M903.634,406.7h-.157v-.19a.349.349,0,0,0-.349-.349h-1.954a.349.349,0,0,0-.349.349v.19h-.157v.809h.157v4.135h2.652v-4.135h.157Z" transform="translate(-738.219 -336.585)" fill="#6c63ff"/>
    <path id="Path_172" data-name="Path 172" d="M601.489,481.076c-.193-.411-.345-.7-.4-.8a10.589,10.589,0,0,1-5.792,0,19.21,19.21,0,0,0-1.642,4.293c-.383,1.755-.161,2.932.661,3.5l.024.017.005,0c.907.6,1.773,1.128,2.573,1.574l.3.167.01.006.007.009a4.85,4.85,0,0,1,.306.432,1.7,1.7,0,0,1,.31.84v8.718H597.8c-2.085.042-3.375.4-3.375.7,0,.332,1.547.7,3.767.7s3.767-.37,3.767-.7c0-.3-1.268-.65-3.318-.7h-.055l.052-8.065a3.557,3.557,0,0,1,.371-1.574c.041-.082.086-.162.132-.237s.077-.12.117-.176l.007-.01.011-.006q.154-.084.327-.182l.014-.007c.757-.427,1.572-.928,2.424-1.49.76-.5,1.025-1.514.787-3.011A16.071,16.071,0,0,0,601.489,481.076Z" transform="translate(-493.419 -395.645)" fill="#d0cde1"/>
    <path id="Path_173" data-name="Path 173" d="M603.36,505.11c-.893.589-1.63,1.03-2.194,1.348h0a12.834,12.834,0,0,0-2.466.069c-.578-.323-1.357-.785-2.316-1.417l-.027-.019h0c-.88-.605-.9-1.887-.615-3.2a7.751,7.751,0,0,1,3.448.512,8.05,8.05,0,0,0,4.9-.053C604.273,503.509,604.161,504.582,603.36,505.11Z" transform="translate(-495.094 -412.849)" fill="#6c63ff"/>
    <circle id="Ellipse_26" data-name="Ellipse 26" cx="0.253" cy="0.253" r="0.253" transform="translate(102.704 88.065)" fill="#6c63ff"/>
    <circle id="Ellipse_27" data-name="Ellipse 27" cx="0.253" cy="0.253" r="0.253" transform="translate(101.997 90.391)" fill="#fff"/>
    <circle id="Ellipse_28" data-name="Ellipse 28" cx="0.152" cy="0.152" r="0.152" transform="translate(103.412 88.773)" fill="#6c63ff"/>
    <circle id="Ellipse_29" data-name="Ellipse 29" cx="0.152" cy="0.152" r="0.152" transform="translate(104.019 91.655)" fill="#fff"/>
    <circle id="Ellipse_30" data-name="Ellipse 30" cx="0.152" cy="0.152" r="0.152" transform="translate(102.957 91.807)" fill="#fff"/>
    <circle id="Ellipse_31" data-name="Ellipse 31" cx="0.152" cy="0.152" r="0.152" transform="translate(106.041 86.751)" fill="#6c63ff"/>
    <path id="Path_174" data-name="Path 174" d="M659.868,440.611c-.193-.411-.345-.7-.4-.8a10.589,10.589,0,0,1-5.792,0,19.217,19.217,0,0,0-1.642,4.293c-.383,1.755-.161,2.932.661,3.5l.024.017.005,0c.907.6,1.773,1.128,2.573,1.574l.3.167.01.005.007.009a4.862,4.862,0,0,1,.306.432,1.7,1.7,0,0,1,.31.839v8.718h-.055c-2.085.042-3.375.4-3.375.7,0,.332,1.547.7,3.767.7s3.767-.37,3.767-.7c0-.3-1.268-.65-3.318-.7h-.055l.052-8.065a3.556,3.556,0,0,1,.371-1.573c.041-.082.086-.162.132-.237s.077-.12.117-.176l.007-.01.011-.006q.154-.084.327-.182l.014-.007c.757-.427,1.572-.929,2.424-1.49.76-.5,1.025-1.514.787-3.011A16.1,16.1,0,0,0,659.868,440.611Z" transform="translate(-539.941 -363.399)" fill="#d0cde1"/>
    <path id="Path_175" data-name="Path 175" d="M661.738,464.644c-.893.588-1.63,1.03-2.194,1.348h0a12.834,12.834,0,0,0-2.466.069c-.578-.323-1.357-.785-2.316-1.417l-.027-.019h0c-.88-.605-.9-1.887-.615-3.2a7.751,7.751,0,0,1,3.448.512,8.05,8.05,0,0,0,4.9-.053C662.652,463.043,662.539,464.116,661.738,464.644Z" transform="translate(-541.616 -380.602)" fill="#6c63ff"/>
    <circle id="Ellipse_32" data-name="Ellipse 32" cx="0.253" cy="0.253" r="0.253" transform="translate(114.562 79.846)" fill="#6c63ff"/>
    <circle id="Ellipse_33" data-name="Ellipse 33" cx="0.253" cy="0.253" r="0.253" transform="translate(113.854 82.172)" fill="#fff"/>
    <circle id="Ellipse_34" data-name="Ellipse 34" cx="0.152" cy="0.152" r="0.152" transform="translate(115.269 80.554)" fill="#6c63ff"/>
    <circle id="Ellipse_35" data-name="Ellipse 35" cx="0.152" cy="0.152" r="0.152" transform="translate(115.876 83.436)" fill="#fff"/>
    <circle id="Ellipse_36" data-name="Ellipse 36" cx="0.152" cy="0.152" r="0.152" transform="translate(114.814 83.587)" fill="#fff"/>
    <circle id="Ellipse_37" data-name="Ellipse 37" cx="0.152" cy="0.152" r="0.152" transform="translate(117.898 78.532)" fill="#6c63ff"/>
  </g>
</svg>
