<svg xmlns="http://www.w3.org/2000/svg" xmlns:xlink="http://www.w3.org/1999/xlink" width="197.147" height="142.069" viewBox="0 0 197.147 142.069">
  <defs>
    <linearGradient id="linear-gradient" x1="0.5" y1="1" x2="0.5" gradientUnits="objectBoundingBox">
      <stop offset="0" stop-color="gray" stop-opacity="0.251"/>
      <stop offset="0.54" stop-color="gray" stop-opacity="0.122"/>
      <stop offset="1" stop-color="gray" stop-opacity="0.102"/>
    </linearGradient>
    <linearGradient id="linear-gradient-2" x1="0.5" y1="1" x2="0.5" y2="0" xlink:href="#linear-gradient"/>
  </defs>
  <g id="undraw_doctor_kw5l" transform="translate(0.001 -0.015)">
    <path id="Path_176" data-name="Path 176" d="M171.486,98.591c-12.639-.439-24.686-4.52-36.172-8.983S112.443,80.2,100.1,77.833C92.164,76.31,83.088,76.1,76.7,80.351c-6.153,4.093-8.141,11.16-9.21,17.716-.8,4.934-1.271,10.125.928,14.744,1.53,3.206,4.246,5.9,6.124,8.972,6.535,10.686,1.915,23.864-5.168,34.306-3.322,4.9-7.175,9.564-9.738,14.775s-3.75,11.181-1.507,16.5c2.224,5.264,7.52,9.225,13.26,12.007,11.657,5.647,25.392,7.262,38.786,8.188,29.649,2.028,59.457,1.149,89.183.27,11-.327,22.052-.655,32.874-2.36,6.01-.946,12.216-2.445,16.58-6.064a13.887,13.887,0,0,0,3.2-18.139c-6.226-9.664-23.439-12.065-27.792-22.437-2.394-5.709.065-12.069,3.547-17.364,7.466-11.357,19.983-21.323,20.642-34.306.454-8.918-5.563-17.846-14.868-22.067-9.751-4.427-23.274-3.868-30.467,3.449C195.661,96.077,182.643,98.978,171.486,98.591Z" transform="translate(-56.94 -73.524)" fill="#6c63ff" opacity="0.1"/>
    <path id="Path_177" data-name="Path 177" d="M198.213,643.428s-9.983-7.547-11.869-17.148A18.976,18.976,0,0,0,180.5,615.8a31.949,31.949,0,0,0-4.678-3.485" transform="translate(-154.242 -511.811)" fill="none" stroke="#535461" stroke-miterlimit="10" stroke-width="2"/>
    <path id="Path_178" data-name="Path 178" d="M147.41,574.136c.875,1.183,1.271,6.2,1.271,6.2s-4.678-1.842-5.554-3.024a2.666,2.666,0,1,1,4.284-3.175Z" transform="translate(-127.054 -479.674)" fill="#6c63ff"/>
    <path id="Path_179" data-name="Path 179" d="M191.3,589.417c.091,1.468-2.3,5.894-2.3,5.894s-2.928-4.091-3.02-5.56a2.665,2.665,0,1,1,5.319-.334Z" transform="translate(-162.55 -491.021)" fill="#6c63ff"/>
    <path id="Path_180" data-name="Path 180" d="M237.04,645.58c-.661,1.314-4.961,3.928-4.961,3.928s-.459-5.01.2-6.324a2.664,2.664,0,1,1,4.76,2.4Z" transform="translate(-200.163 -535.872)" fill="#6c63ff"/>
    <path id="Path_181" data-name="Path 181" d="M260.024,702.224c-.43,1.407-4.226,4.708-4.226,4.708s-1.3-4.859-.871-6.268a2.665,2.665,0,0,1,5.1,1.559Z" transform="translate(-218.919 -582.576)" fill="#6c63ff"/>
    <path id="Path_182" data-name="Path 182" d="M168.383,628.824c1.452.2,6.043-1.877,6.043-1.877s-3.874-3.209-5.333-3.405a2.665,2.665,0,1,0-.71,5.282Z" transform="translate(-146.264 -520.976)" fill="#6c63ff"/>
    <path id="Path_183" data-name="Path 183" d="M192.8,692.68c1.452-.249,5.2-3.6,5.2-3.6s-4.658-1.9-6.108-1.654a2.665,2.665,0,1,0,.908,5.251Z" transform="translate(-165.593 -573.268)" fill="#6c63ff"/>
    <path id="Path_184" data-name="Path 184" d="M230.576,750.619c1.472,0,5.738-2.667,5.738-2.667s-4.267-2.663-5.739-2.663a2.665,2.665,0,0,0,0,5.329Z" transform="translate(-196.877 -620.645)" fill="#6c63ff"/>
    <path id="Path_185" data-name="Path 185" d="M833.49,305.332s6.153-10.9,15.429-14.04a18.973,18.973,0,0,0,9.606-7.186,31.824,31.824,0,0,0,2.83-5.106" transform="translate(-692.536 -238.993)" fill="none" stroke="#535461" stroke-miterlimit="10" stroke-width="2"/>
    <path id="Path_186" data-name="Path 186" d="M992.144,247.362c-1.056,1.024-5.974,2.084-5.974,2.084s1.207-4.883,2.263-5.908a2.664,2.664,0,1,1,3.711,3.825Z" transform="translate(-817.502 -209.352)" fill="#6c63ff"/>
    <path id="Path_187" data-name="Path 187" d="M976.038,292.78c-1.452.287-6.148-1.5-6.148-1.5s3.667-3.449,5.11-3.73a2.665,2.665,0,1,1,1.038,5.226Z" transform="translate(-804.177 -245.943)" fill="#6c63ff"/>
    <path id="Path_188" data-name="Path 188" d="M927.481,346.065c-1.391-.481-4.551-4.394-4.551-4.394s4.9-1.122,6.295-.641a2.664,2.664,0,1,1-1.744,5.035Z" transform="translate(-765.741 -289.665)" fill="#6c63ff"/>
    <path id="Path_189" data-name="Path 189" d="M873.22,375.833c-1.452-.24-5.22-3.57-5.22-3.57s4.645-1.935,6.1-1.7a2.667,2.667,0,0,1-.866,5.264Z" transform="translate(-720.782 -313.923)" fill="#6c63ff"/>
    <path id="Path_190" data-name="Path 190" d="M947.3,275.063c0,1.472,2.668,5.743,2.668,5.743s2.666-4.266,2.666-5.736a2.665,2.665,0,1,0-5.327,0Z" transform="translate(-785.688 -233.538)" fill="#6c63ff"/>
    <path id="Path_191" data-name="Path 191" d="M887.455,308.422c.439,1.4,4.258,4.681,4.258,4.681s1.271-4.868.828-6.273a2.665,2.665,0,0,0-5.082,1.592Z" transform="translate(-736.631 -260.316)" fill="#6c63ff"/>
    <path id="Path_192" data-name="Path 192" d="M834.851,352.89c.2,1.452,3.405,5.331,3.405,5.331s2.071-4.583,1.875-6.041a2.665,2.665,0,1,0-5.28.71Z" transform="translate(-693.623 -296.948)" fill="#6c63ff"/>
    <path id="Path_193" data-name="Path 193" d="M992.144,247.362c-1.056,1.024-5.974,2.084-5.974,2.084s1.207-4.883,2.263-5.908a2.664,2.664,0,1,1,3.711,3.825Z" transform="translate(-817.502 -209.352)" opacity="0.25"/>
    <path id="Path_194" data-name="Path 194" d="M976.038,292.78c-1.452.287-6.148-1.5-6.148-1.5s3.667-3.449,5.11-3.73a2.665,2.665,0,1,1,1.038,5.226Z" transform="translate(-804.177 -245.943)" opacity="0.25"/>
    <path id="Path_195" data-name="Path 195" d="M927.481,346.065c-1.391-.481-4.551-4.394-4.551-4.394s4.9-1.122,6.295-.641a2.664,2.664,0,1,1-1.744,5.035Z" transform="translate(-765.741 -289.665)" opacity="0.25"/>
    <path id="Path_196" data-name="Path 196" d="M873.22,375.833c-1.452-.24-5.22-3.57-5.22-3.57s4.645-1.935,6.1-1.7a2.667,2.667,0,0,1-.866,5.264Z" transform="translate(-720.782 -313.923)" opacity="0.25"/>
    <path id="Path_197" data-name="Path 197" d="M947.3,275.063c0,1.472,2.668,5.743,2.668,5.743s2.666-4.266,2.666-5.736a2.665,2.665,0,1,0-5.327,0Z" transform="translate(-785.688 -233.538)" opacity="0.25"/>
    <path id="Path_198" data-name="Path 198" d="M887.455,308.422c.439,1.4,4.258,4.681,4.258,4.681s1.271-4.868.828-6.273a2.665,2.665,0,0,0-5.082,1.592Z" transform="translate(-736.631 -260.316)" opacity="0.25"/>
    <path id="Path_199" data-name="Path 199" d="M834.851,352.89c.2,1.452,3.405,5.331,3.405,5.331s2.071-4.583,1.875-6.041a2.665,2.665,0,1,0-5.28.71Z" transform="translate(-693.623 -296.948)" opacity="0.25"/>
    <path id="Path_200" data-name="Path 200" d="M835.44,263.455s1.209-12.459,8.408-19.084a18.981,18.981,0,0,0,5.87-10.462,31.828,31.828,0,0,0,.525-5.808" transform="translate(-694.132 -197.332)" fill="none" stroke="#535461" stroke-miterlimit="10" stroke-width="2"/>
    <path id="Path_201" data-name="Path 201" d="M918.744,188.441c-.544,1.365-4.618,4.327-4.618,4.327s-.875-4.954-.325-6.319a2.665,2.665,0,1,1,4.943,2Z" transform="translate(-758.121 -161.877)" fill="#6c63ff"/>
    <path id="Path_202" data-name="Path 202" d="M919.486,233.612c-1.2.846-6.226,1.124-6.226,1.124s1.957-4.636,3.16-5.482a2.665,2.665,0,1,1,3.066,4.356Z" transform="translate(-757.827 -197.842)" fill="#6c63ff"/>
    <path id="Path_203" data-name="Path 203" d="M891.1,302.432c-1.467.123-5.943-2.178-5.943-2.178s4.029-3.013,5.5-3.137a2.665,2.665,0,1,1,.447,5.311Z" transform="translate(-734.827 -253.814)" fill="#6c63ff"/>
    <path id="Path_204" data-name="Path 204" d="M855.324,351.281c-1.425.363-6.224-1.138-6.224-1.138s3.462-3.65,4.886-4.021a2.665,2.665,0,0,1,1.338,5.159Z" transform="translate(-705.312 -293.861)" fill="#6c63ff"/>
    <path id="Path_205" data-name="Path 205" d="M883.172,235.186c.6,1.345,4.759,4.175,4.759,4.175s.708-4.981.113-6.326a2.665,2.665,0,0,0-4.872,2.156Z" transform="translate(-733.033 -200.12)" fill="#6c63ff"/>
    <path id="Path_206" data-name="Path 206" d="M841.462,289.057c.971,1.105,5.789,2.554,5.789,2.554s-.813-4.964-1.784-6.07a2.664,2.664,0,1,0-4,3.516Z" transform="translate(-698.519 -243.605)" fill="#6c63ff"/>
    <path id="Path_207" data-name="Path 207" d="M812,351.919c.77,1.252,5.273,3.494,5.273,3.494s.038-5.03-.726-6.284a2.665,2.665,0,0,0-4.538,2.79Z" transform="translate(-674.667 -295.409)" fill="#6c63ff"/>
    <path id="Path_208" data-name="Path 208" d="M784.44,139.026c.3-1.105.664-2.216.918-3.336C785.054,136.81,784.689,137.924,784.44,139.026Z" transform="translate(-652.389 -121.696)" fill="url(#linear-gradient)"/>
    <path id="Path_209" data-name="Path 209" d="M345.445,86.638c-.025-.044-.044-.087-.064-.127h0c0-.018-.018-.033-.025-.051a1.135,1.135,0,0,1-.122.049c-.08.031-.161.06-.245.083s-.118.036-.182.051a1.057,1.057,0,0,1-.161.042l.014.033c.067-.015.133-.027.2-.045l.018.225c.076,0,.147-.011.216-.011a.891.891,0,0,1,.1,0h.363C345.518,86.8,345.478,86.72,345.445,86.638Zm36.847,58.653c-.853-1.149-2.556-13.481-2.556-13.481s-3.349-8.769-2.436-12.269-2.494-12.454-2.494-12.454-2.251-.978-2.372-2.43c0,0-9.19-2.9-9.62-5.082-.349-1.786-6.048-3.068-8.1-3.472-.624-2.519-1.253-4.87-1.715-6.153-.125-.4-.243-.744-.352-1.016-.782-2-3.2-2.178-4.954-2.018a2.7,2.7,0,0,0-.416-.949.521.521,0,0,0-.165-.252.964.964,0,0,0-.12-.087.573.573,0,0,0-.123-.156.873.873,0,0,0-.163-.116,1.1,1.1,0,0,0-.131-.06,1.745,1.745,0,0,0-.325-.089,2.678,2.678,0,0,0-.392-.051,2.387,2.387,0,0,0,.837-.612,1.745,1.745,0,0,0,.343-.632,1.859,1.859,0,0,0,.076-.6,1.539,1.539,0,0,1-.163.234,6.71,6.71,0,0,0-.592-2.421,7.164,7.164,0,0,1-.16-3.2h0c.243-1.608.846-3.235,1.254-4.872a.123.123,0,0,0,0-.027,12.651,12.651,0,0,0,.4-2.485,10.966,10.966,0,0,0-1.06-4.926,5.934,5.934,0,0,0-2.93-3.267,10.507,10.507,0,0,0-3.32-.421,28.786,28.786,0,0,1-7.286-1.841,19.833,19.833,0,0,0-7.35-1.392,7.4,7.4,0,0,0-6.239,3.572,22.376,22.376,0,0,1-1.006,2.116c-.813,1.229-2.269,1.844-3.483,2.692a6.888,6.888,0,0,0-2.723,3.487,4.652,4.652,0,0,0-.1,2.387h0a4.274,4.274,0,0,0,.152.526,3.732,3.732,0,0,0,.79,1.291,3.851,3.851,0,0,0,.9.7h0a5.275,5.275,0,0,0,1.325.516c-.016.054-.033.113-.051.169-.029.093-.054.182-.082.281-.06.223-.116.45-.163.679a.216.216,0,0,0,0,.049,14.824,14.824,0,0,0-.334,3.142,14.5,14.5,0,0,0,.076,1.5h0a15.13,15.13,0,0,0,14.32,13.554c.258.013.517.02.781.02h.363c.118.156.234.316.345.472s.212.316.309.472l-.263-.272h0l-.263-.241a2.139,2.139,0,0,1-.238.274,4.413,4.413,0,0,0-.525-.149h0a6.727,6.727,0,0,0-3.411.227,14.916,14.916,0,0,0-5.071,2.9l-9.677,5.808-5.235,3.184-1.886,4.61s-1.418,5.478-2.995,11.755c-.062.018-.122.036-.182.058a3.4,3.4,0,0,0-.385-.022,3.538,3.538,0,0,0-3.543,3.4c-3.137,3.812-3.314,7.624-2.578,9.373h0a2.5,2.5,0,0,0,.25.466,44.058,44.058,0,0,1,2.3,4.409c-.024.158-.038.29-.045.39q0,.049,0,.1s.545,8.224-1.271,10.582a1.827,1.827,0,0,0,0,1.937h0c1.216,2.69,6.024,6.282,6.024,6.282s5.767-.031,8.979-.381c-.009.323-.016.644-.024.958-.073,3.173-.073,5.832-.073,5.832l-.12,3.327s-1.089,7.012-1.634,8.945c-.343,1.213.053,12.439.4,20.693h56.818c.668-4.883-.274-19.718-.274-19.718a38.977,38.977,0,0,1-.927-7.179.027.027,0,0,1,0-.024c0-.292,0-.577.011-.857l.412-.015.741-.025h.067s.018-.069.06-.182h0a3.468,3.468,0,0,1,.4-.793,1.968,1.968,0,0,1,1.552-.955,4.2,4.2,0,0,0,1.762-.839.033.033,0,0,0,.015,0c1.93-1.305,4.48-3.714,5.1-4.109.851-.545,4.928-4.175,4.928-4.175s.608-.77,1.256-1.7l.024-.033c.806-1.162,1.663-2.55,1.452-2.988-.363-.784.243-2.659.243-2.659C385.152,151.032,383.146,146.44,382.293,145.291Zm-35.1-55.83a.729.729,0,0,1,.033.167c-.045-.06-.091-.123-.136-.182l-.044-.058-.031-.044.069-.094v.013h0A.63.63,0,0,1,347.193,89.461Zm-.61-1.608c-.2.04-.354.076-.456.1-.129-.229-.252-.457-.363-.69A5.267,5.267,0,0,1,346.583,87.852Zm-.341.287a.038.038,0,0,1,0-.011l.015.011h0c.074.049.147.1.214.145h0c.06.044.114.085.169.129a1.733,1.733,0,0,1-.116.182c-.064-.1-.123-.2-.182-.3A.653.653,0,0,1,346.242,88.139Zm-1.089-2.24a5.368,5.368,0,0,1,1.055,0h0a.8.8,0,0,1,.136.016h0a1.51,1.51,0,0,1,.289.074,2.11,2.11,0,0,1,.383,1.018l-.1.015-.1.018c-.182.031-.363.062-.5.091l-.182.038c-.241.053-.381.093-.387.094-.024-.049-.047-.094-.073-.142-.04-.078-.082-.158-.118-.236s-.083-.167-.122-.249c-.025-.044-.044-.087-.064-.127h0c0-.018-.018-.033-.025-.051a.435.435,0,0,1-.027-.06c-.111-.225-.212-.45-.31-.672-.011-.022-.02-.045-.029-.067l.138-.009V85.7ZM301.845,198.5a45.027,45.027,0,0,0-.755-8.371c-.232-1.167-.472-2.334-.715-3.481-.062-.287-.122-.57-.182-.853l-.559.074h-.051c-1.525-7.19-3.118-13.525-3.118-13.525s-3.166-12.087-2.8-13.051a2.333,2.333,0,0,0-.147-.958c-.766-2.748-3.964-10.321-5.082-12.909h0a.1.1,0,0,0-.013-.033h0c-.182-.434-.312-.726-.352-.811l.263-3.863.014-.232.034-.494-.014-.013.014-.229a26.481,26.481,0,0,0-7.442-3.9c-.181-.065-.374-.129-.564-.191.234-1.563.545-3.327.949-5.046.038-.172.08-.339.123-.508h0c.038-.169.082-.332.125-.5.069-.269.143-.534.22-.8.252-.08.5-.169.746-.263l.094-.036A13.4,13.4,0,0,0,290.8,112.9h0a13.321,13.321,0,0,0-2.338-4.928h0c-.084-.113-.172-.225-.261-.336s-.2-.234-.3-.347a10.413,10.413,0,0,0,1.194-3.487,3.557,3.557,0,0,0,0-.441h0v-.018a3.728,3.728,0,0,0-1.167-2.294,7.8,7.8,0,0,0-4.322-2.037c-1.6-.283-3.229-.29-4.837-.481-2.666-.319-5.264-1.142-7.93-1.394a18.843,18.843,0,0,0-9.589,1.634c-1.984.908-3.993,2.494-4.113,4.67-.1,1.8,1.154,3.523.839,5.3-.314,1.746-2.093,3.12-1.937,4.886a3.507,3.507,0,0,0,.857,1.857h0c.152.182.314.363.481.545a7.855,7.855,0,0,1,1.719,2.2c.014.036.029.073.042.109a2.048,2.048,0,0,1-.59,2.416.027.027,0,0,1,.009.013h0c.011.015.022.025.031.04a.013.013,0,0,0,0-.009,1.985,1.985,0,0,0,1.036.646l.154.047c-.125.136-.243.278-.363.427l-.078.1a7.553,7.553,0,0,0-.545.844c-.093.163-.181.327-.256.49a6.155,6.155,0,0,0-.535,1.574c-.194,1.2.08,2.454-.214,3.63-.363,1.452-1.512,2.567-2.16,3.915-1.227,2.541-.532,5.523-.285,8.33a49.928,49.928,0,0,1-.751,11.426q-.432,3.02-.864,6.046l-2.178,15.189c-.265,1.855-.579,3.812-1.815,5.244h.013a.016.016,0,0,1-.013.015,3.794,3.794,0,0,0,1.169.3h0a8.371,8.371,0,0,0,4.776-1.472,22.573,22.573,0,0,0,3.255-2.285q-.223.817-.479,1.777a.1.1,0,0,1,0,.018h0c-2.049,7.805-5.346,22.114-5.346,22.114s-.3.623-.688,1.55h51.187c-.6-.726-1.156-1.421-1.592-1.982Zm-37.9-72.17c.013-.022.022-.042.034-.062v.394h0a1.351,1.351,0,0,1-.029.223v.016l.181.067.211.087h0q1.866.737,3.779,1.334c.131.042.263.082.4.12l.027.225c.033.231.064.465.093.7v.018c.082.648.161,1.294.232,1.926,0,0-3.333-1.271-3.291.659a.943.943,0,0,0,0,.1.853.853,0,0,0,0,.138,9.62,9.62,0,0,0,.6,2.852.128.128,0,0,1-.029.051.993.993,0,0,0-.08.561,5.515,5.515,0,0,0,.076.969c-.1.06-.194.12-.29.182h0c-.073.045-.142.1-.212.147a26.958,26.958,0,0,0-1.741-4.487,7.61,7.61,0,0,1-1.055-3.226,1.825,1.825,0,0,1,.009-.221,3.814,3.814,0,0,1,.185-.96c.042-.118.087-.234.138-.348a8.546,8.546,0,0,1,.4-.8h0c.094-.171.194-.339.29-.51.031-.051.06-.1.089-.154Zm81.5-39.692c-.025-.044-.044-.087-.064-.127h0c0-.018-.018-.033-.025-.051a1.135,1.135,0,0,1-.122.049c-.08.031-.161.06-.245.083s-.118.036-.182.051l-.162.042.015.033c.067-.015.133-.027.2-.045l.018.225c.076,0,.147-.011.216-.011h.461C345.518,86.8,345.478,86.72,345.445,86.638Z" transform="translate(-214.745 -58.66)" fill="url(#linear-gradient-2)"/>
    <path id="Path_210" data-name="Path 210" d="M521.578,355.256l-1.089.481s-7.1,27.579-7.1,29.808,15.053,14.632,15.053,14.632l2.349-15.853S527.419,347.968,521.578,355.256Z" transform="translate(-430.539 -300.617)" fill="#e8f5ff"/>
    <path id="Path_211" data-name="Path 211" d="M684.984,213.9l-6.289-3.282a12.6,12.6,0,0,0-1.844-4.2,9.36,9.36,0,0,0-3.668-3.314c-3.854-1.728,16.3-10.8,16.3-10.8a32.786,32.786,0,0,0,1.12,3.213c1.038,2.563,2.761,5.877,4.981,6.821C699.356,203.941,684.984,213.9,684.984,213.9Z" transform="translate(-560.925 -168.03)" fill="#ffc1c7"/>
    <path id="Path_212" data-name="Path 212" d="M690.6,195.513a15.026,15.026,0,0,1-13.752,10.9,9.362,9.362,0,0,0-3.668-3.314c-3.854-1.728,16.3-10.8,16.3-10.8A32.756,32.756,0,0,0,690.6,195.513Z" transform="translate(-560.925 -168.03)" opacity="0.1"/>
    <path id="Path_213" data-name="Path 213" d="M639.053,117.072a14.946,14.946,0,1,1-4.378-10.636A15.017,15.017,0,0,1,639.053,117.072Z" transform="translate(-508.81 -94.169)" fill="#ffc1c7"/>
    <path id="Path_214" data-name="Path 214" d="M627.382,229.69l-4.095,9.555-3.612,6.342H608.113l-3.373-8.671,1.367-8.992h8.831l5.7-.321,1.926-.643,1.241.7Z" transform="translate(-494.972 -185.751)" fill="#575a89"/>
    <path id="Path_215" data-name="Path 215" d="M733.961,230.459s2.554.545.267,2.42-10.178,7.838-10.178,7.838,2.772,2.469,2.2,5.36l9.183-5.119,1.634-8.19S737.248,230.307,733.961,230.459Z" transform="translate(-602.961 -199.258)" opacity="0.1"/>
    <path id="Path_216" data-name="Path 216" d="M699.427,287l-5.841.964s1.205,4.456.6,5.721a.86.86,0,0,0-.045.122l-2.383,6.442,1.786,5.059,6.182-8.431-2.107-3.191a29.368,29.368,0,0,1,3.552-3.975C702.5,288.686,699.427,287,699.427,287Z" transform="translate(-576.532 -245.541)" opacity="0.1"/>
    <path id="Path_217" data-name="Path 217" d="M699.427,285.63l-5.841.962s1.205,4.456.6,5.721a.858.858,0,0,0-.045.122l-2.383,6.442,1.786,5.059,6.182-8.437-2.107-3.191a29.368,29.368,0,0,1,3.552-3.975C702.5,287.309,699.427,285.63,699.427,285.63Z" transform="translate(-576.532 -244.42)" fill="#dce6f2"/>
    <path id="Path_218" data-name="Path 218" d="M734.206,227.809s2.554.544.265,2.42-10.421,8.319-10.421,8.319,3.011,1.988,2.44,4.877l9.183-5.117,1.634-8.19S737.488,227.657,734.206,227.809Z" transform="translate(-602.961 -197.089)" fill="#575a89"/>
    <path id="Path_219" data-name="Path 219" d="M667.42,273.18a11.5,11.5,0,0,0,3.017,2.921s-4.095,2.178-2.528,5.24l-6.264-1.634-.964-3.011Z" transform="translate(-551.093 -234.229)" opacity="0.1"/>
    <path id="Path_220" data-name="Path 220" d="M666.1,271.86a11.5,11.5,0,0,0,3.017,2.921s-4.1,2.167-2.529,5.239l-6.262-1.634-.964-3.01Z" transform="translate(-550.013 -233.149)" fill="#575a89"/>
    <path id="Path_221" data-name="Path 221" d="M684.322,291.526l-4.095,9.555-3.6,6.342h-11.57l-3.373-8.671,1.365-8.992H665.5c-.04,2.1.726,4.563.677,5.48-.083,1.507,2.247,9.635,2.247,9.635s4.877-7.889,6.8-8.591c1.211-.441,3.776-4.111,5.516-6.783Z" transform="translate(-551.912 -247.587)" opacity="0.1"/>
    <path id="Path_222" data-name="Path 222" d="M611.148,325.633l-.416.523s3.011,15.115,2.178,18.547a9.753,9.753,0,0,0-.241,1.884v.027a36.339,36.339,0,0,0,.908,8.025s.842,13.359.363,18.854H557.558c-.33-8.125-.686-18.651-.363-19.818.544-1.926,1.634-8.912,1.634-8.912l.12-3.311s0-3.2.1-6.765c.042-1.6.1-3.285.192-4.777a25.243,25.243,0,0,1,.494-4.235,9.339,9.339,0,0,0,.232-1.793.929.929,0,0,1,.011-.172c0-.181.018-.378.025-.579v-.181c.034-1.169.022-2.556-.016-3.993v-.238c-.031-1.078-.076-2.178-.127-3.224-.158-3.267-.363-6.03-.363-6.03L552.57,286.52l1.866-4.6,5.179-3.173,9.575-5.781c4.67-3.839,7.745-3.378,8.918-2.957a3.1,3.1,0,0,1,.334.136c.036.018.065.033.092.049a.768.768,0,0,1,.107.062h0a2.211,2.211,0,0,0-.813.67,2.962,2.962,0,0,0-.5,1.089,5.058,5.058,0,0,0-.129.742c-.024.263-.033.536-.033.81a14.033,14.033,0,0,0,.154,1.8v.04c.06.425.134.84.207,1.231a.084.084,0,0,0,0,.02c.083.456.167.877.223,1.24.011.065.02.125.029.181a4.14,4.14,0,0,1,.056.726,8.829,8.829,0,0,0,.236,1.742c.047.24.1.5.162.762.082.363.171.759.267,1.162.053.221.109.45.167.677.022.091.045.181.067.274l.036.143c.386,1.537.806,3.068,1.064,3.993.152.545.249.88.249.88A67.764,67.764,0,0,1,585,281.5c.033-.036.062-.071.092-.1.216-.249.429-.476.632-.675a3.73,3.73,0,0,1,1.165-.875,1.275,1.275,0,0,0,.2-.093c.893-.506,2.334-2.345,3.683-4.271.132-.182.261-.379.392-.566.3-.432.59-.866.864-1.281.211-.318.412-.626.6-.92.908-1.412,1.547-2.465,1.547-2.465l1.26-.056.22-.011h.147l5.72-.265s.247.042.653.123a.116.116,0,0,1,.067.015c2.029.4,7.667,1.679,8.012,3.449.421,2.167,9.515,5.059,9.515,5.059.12,1.452,2.347,2.409,2.347,2.409s3.372,8.912,2.47,12.4c-.891,3.449,2.32,11.98,2.4,12.22h0l-.615.777Z" transform="translate(-462.607 -231.413)" fill="#e8f5ff"/>
    <path id="Path_223" data-name="Path 223" d="M744.174,225.271s5.567-1.579,6.832,1.672,4.095,16.38,4.095,16.38-7.348,1.385-9.274,0a5.549,5.549,0,0,0-3.915-1.024l-4.155,2.83-1.227-.363s6.647-9.882,8.092-13.24S746.555,226.667,744.174,225.271Z" transform="translate(-613.175 -194.703)" opacity="0.1"/>
    <path id="Path_224" data-name="Path 224" d="M742.876,221.271s5.571-1.579,6.841,1.672,4.1,16.38,4.1,16.38-7.346,1.385-9.274,0a5.544,5.544,0,0,0-3.914-1.024l-4.158,2.83-1.227-.363s6.647-9.882,8.092-13.24S745.258,222.67,742.876,221.271Z" transform="translate(-612.12 -191.429)" fill="#e8f5ff"/>
    <path id="Path_225" data-name="Path 225" d="M571.147,511.55s4.155,1.024,4.939,3.372-3.071,2.409-3.071,2.409S570.666,513.176,571.147,511.55Z" transform="translate(-477.759 -429.332)" opacity="0.1"/>
    <path id="Path_226" data-name="Path 226" d="M619.82,607.09s-10.176,20.836-7.827,22.823S619.82,607.09,619.82,607.09Z" transform="translate(-510.956 -507.53)" opacity="0.1"/>
    <path id="Path_227" data-name="Path 227" d="M734,522.5s8.13,20.239,6.5,23.365,3.492,0,3.492,0Z" transform="translate(-611.105 -438.294)" opacity="0.1"/>
    <path id="Path_228" data-name="Path 228" d="M702.065,632.64s-27.459,1.325-19.449,9.876,24.448.363,24.448.363Z" transform="translate(-567.849 -528.442)" fill="#ffc1c7"/>
    <path id="Path_229" data-name="Path 229" d="M641.321,117.081a14.949,14.949,0,0,1-1.138,5.739c-.252.029-.5.047-.748.058a6.08,6.08,0,0,1-.161-2.594c.007-.877-.316-1.908-1.16-2.144-1.683-.474-2.844,2.672-4.5,2.1-1.271-.432-.939-2.36-1.67-3.472-.579-.88-1.739-1.129-2.641-1.681-1.919-1.178-1.86-3.062-2.752-4.845-.933-1.868-2.9-1.316-4.616-.214a37.279,37.279,0,0,1-3.812,2.63,9.43,9.43,0,0,1-3.89.822,8.547,8.547,0,0,1-2.44-.258,15.017,15.017,0,0,1,29.529,3.854Z" transform="translate(-511.078 -94.178)" opacity="0.1"/>
    <path id="Path_230" data-name="Path 230" d="M607.934,80.114a38.078,38.078,0,0,1-3.812,2.632,9.457,9.457,0,0,1-3.89.82,5.914,5.914,0,0,1-4.509-1.43,4.35,4.35,0,0,1-.837-4.193,6.81,6.81,0,0,1,2.7-3.472c1.222-.859,2.639-1.452,3.449-2.681a21.681,21.681,0,0,0,.991-2.107,7.351,7.351,0,0,1,6.171-3.56,19.4,19.4,0,0,1,7.283,1.387,28.74,28.74,0,0,0,7.217,1.842,10.292,10.292,0,0,1,3.285.419,5.969,5.969,0,0,1,2.9,3.267,10.925,10.925,0,0,1,1.049,4.9c-.153,3.589-2.523,7.11-1.481,10.548.276.917.793,1.857.517,2.774-.4,1.338-2.129,1.643-3.525,1.706a6.084,6.084,0,0,1-.161-2.594c.007-.875-.316-1.908-1.158-2.144-1.685-.47-2.846,2.67-4.5,2.1-1.261-.434-.935-2.36-1.668-3.472-.579-.882-1.741-1.129-2.641-1.681-1.919-1.178-1.861-3.062-2.752-4.845C611.621,78.459,609.648,79.011,607.934,80.114Z" transform="translate(-497.075 -64.741)" fill="#99607e"/>
    <path id="Path_231" data-name="Path 231" d="M507.787,511.854l-1.385.483s.545,8.19-1.271,10.539,5.961,8.188,5.961,8.188,10.659-.06,10.96-.908-.545-15.175-.545-15.175-5.721-2.229-5.24-5.781c0,0-1.746,8.37-4.335,8.008S506.406,514.685,507.787,511.854Z" transform="translate(-423.554 -427.409)" fill="#e8f5ff"/>
    <ellipse id="Ellipse_38" data-name="Ellipse 38" cx="3.654" cy="3.342" rx="3.654" ry="3.342" transform="translate(85.198 85.651)" opacity="0.1"/>
    <path id="Path_232" data-name="Path 232" d="M510.6,444.257s-.726-22.159-7.046-17.222-6.382,10.842-5.179,12.586,5.062,10.477,5.062,10.477h0a4.416,4.416,0,0,0,6.535-2.9Z" transform="translate(-417.752 -359.57)" fill="#ffc1c7"/>
    <path id="Path_233" data-name="Path 233" d="M564.172,213.311a.534.534,0,0,0-.163-.25,2.818,2.818,0,0,0-2-.3l.042.479c1.35-.116,1.617.152,1.652.2v.045l.042.06a2.025,2.025,0,0,1,.363,1.6,5.262,5.262,0,0,1-2.131,2.67l-.044.025-.027.042c-.784,1.164-5.219,4.447-6.378,5.3l-.1-.116c-.519.45-5.082,4.445-5.329,5.975-.16.96-1.242,1.332-1.634,1.436a10.256,10.256,0,0,1-2.456-2.581c-.655-1.127,1.982-3.327,2.214-4.186l-.363-.372c-.038.138-3.425,3.3-2.483,4.921A10.774,10.774,0,0,0,548,231.028c-.154,1.4-1.115,9.629-2.59,11.579-1.833,2.423-3.374,14.636-3.2,18.9.151,3.788-.839,10.943-4.142,14.017a5.3,5.3,0,0,1-4.369,1.452h-.08a12.892,12.892,0,0,1-8.865-2.9c-3.294-2.772-5.16-7.3-5.549-13.448h-.08l-.033-1.792a3.494,3.494,0,1,0-.521.042h.04l.033,1.781-.16.011c.4,6.353,2.36,11.052,5.808,13.955a13.433,13.433,0,0,0,9.368,3.066,6.744,6.744,0,0,0,.726.04,5.954,5.954,0,0,0,4.175-1.679c3.48-3.24,4.538-10.659,4.373-14.576-.182-4.518,1.436-16.291,3.058-18.435,1.59-2.1,2.554-10.3,2.723-11.889a2.733,2.733,0,0,0,2.1-2c.16-.958,3.207-3.912,5.082-5.547l-.056-.065a70.653,70.653,0,0,0,5.7-4.552c.483-.463.962-.926,1.463-1.367a4.685,4.685,0,0,0,1.57-2.383A2.478,2.478,0,0,0,564.172,213.311Z" transform="translate(-431.898 -184.754)" opacity="0.1"/>
    <path id="Path_234" data-name="Path 234" d="M682.887,277.623a11.1,11.1,0,0,1-2.79-2.9c-.94-1.617,2.447-4.781,2.483-4.919l.363.372c-.23.857-2.868,3.059-2.213,4.184a10.548,10.548,0,0,0,2.583,2.677Z" transform="translate(-566.851 -231.463)" fill="#353146"/>
    <path id="Path_235" data-name="Path 235" d="M735.483,222.44l-.283-.39c.058-.042,5.76-4.166,6.658-5.5l.029-.04.042-.027a5.253,5.253,0,0,0,2.131-2.67,2.013,2.013,0,0,0-.363-1.6l-.042-.062v-.044c-.036-.047-.3-.314-1.654-.2l-.042-.481a2.816,2.816,0,0,1,2,.3.545.545,0,0,1,.165.252,2.48,2.48,0,0,1,.41,1.926,4.658,4.658,0,0,1-1.57,2.383c-.5.441-.98.908-1.461,1.367A76.271,76.271,0,0,1,735.483,222.44Z" transform="translate(-612.087 -183.665)" fill="#e8f5ff"/>
    <rect id="Rectangle_25" data-name="Rectangle 25" width="0.481" height="2.924" transform="translate(86.47 73.454) rotate(-1.05)" fill="#e8f5ff"/>
    <circle id="Ellipse_39" data-name="Ellipse 39" cx="3.512" cy="3.512" r="3.512" transform="translate(82.919 66.864)" fill="#6c63ff"/>
    <circle id="Ellipse_40" data-name="Ellipse 40" cx="2.917" cy="2.917" r="2.917" transform="translate(83.514 67.459)" fill="#e8f5ff"/>
    <path id="Path_236" data-name="Path 236" d="M548.563,322.98a6.733,6.733,0,0,1-.726-.038,13.452,13.452,0,0,1-9.368-3.066c-3.449-2.9-5.406-7.6-5.808-13.957l.726-.045c.388,6.153,2.254,10.678,5.551,13.448a12.942,12.942,0,0,0,8.863,2.9h.08a5.306,5.306,0,0,0,4.371-1.452c3.3-3.073,4.291-10.228,4.14-14.016-.181-4.267,1.36-16.48,3.195-18.9,1.606-2.122,2.6-11.686,2.614-11.782l.027-.272.269-.047c.016,0,1.585-.3,1.781-1.47.254-1.528,4.81-5.524,5.327-5.975l.474.545c-1.882,1.634-4.93,4.589-5.082,5.549a2.725,2.725,0,0,1-2.1,2c-.182,1.59-1.138,9.785-2.723,11.889-1.623,2.144-3.24,13.917-3.059,18.435.156,3.917-.891,11.337-4.371,14.576A5.956,5.956,0,0,1,548.563,322.98Z" transform="translate(-446.311 -230.243)" fill="#353146"/>
    <g id="Group_14" data-name="Group 14" transform="translate(97.762 12.947)" opacity="0.1">
      <path id="Path_237" data-name="Path 237" d="M783,146.152c.3-1.1.657-2.207.908-3.322C783.608,143.95,783.247,145.052,783,146.152Z" transform="translate(-748.973 -140.487)"/>
      <path id="Path_238" data-name="Path 238" d="M626.527,144.229a6.081,6.081,0,0,1-.162-2.594c.007-.875-.316-1.9-1.158-2.144-1.684-.47-2.846,2.672-4.5,2.1-1.271-.434-.935-2.36-1.668-3.472-.579-.882-1.739-1.129-2.639-1.681-1.92-1.178-1.862-3.062-2.752-4.845-.935-1.87-2.9-1.318-4.618-.214a37.807,37.807,0,0,1-3.812,2.632,9.458,9.458,0,0,1-3.89.82,5.918,5.918,0,0,1-4.509-1.43,4.215,4.215,0,0,1-.993-3.485c-.031.085-.058.171-.085.256a4.361,4.361,0,0,0,.837,4.193,5.925,5.925,0,0,0,4.509,1.43,9.466,9.466,0,0,0,3.892-.82,37.262,37.262,0,0,0,3.812-2.632c1.714-1.1,3.685-1.655,4.618.214.889,1.782.833,3.667,2.752,4.845.907.545,2.06.8,2.641,1.681.726,1.116.4,3.039,1.668,3.472,1.654.566,2.815-2.574,4.5-2.1.842.236,1.167,1.271,1.158,2.144a6.111,6.111,0,0,0,.161,2.594c1.4-.064,3.122-.363,3.527-1.706a1.955,1.955,0,0,0,.076-.594C629.3,143.911,627.783,144.173,626.527,144.229Z" transform="translate(-595.536 -129.92)"/>
    </g>
    <path id="Path_239" data-name="Path 239" d="M812.056,362.948l2.107,2.229s1.686,12.283,2.528,13.432,2.832,5.72.964,9.152c0,0-.6,1.868-.242,2.65s-2.708,4.7-2.708,4.7-4.035,3.612-4.879,4.155-5.3,4.877-6.8,4.937-2,1.928-2,1.928l-8.491.3s-4.69-.245-5.71.417c0,0,.545-7.166-4.7-11.864l6.683-2.409s2.53-1.089,3.312-2.227a4.09,4.09,0,0,1,2-1.5s1.866-1.325,1.926-2.047,2.282-1.608,2.282-1.608l-1.258-10.737.662-17.825s2.107-14.935,6.563-14.091S812.056,362.948,812.056,362.948Z" transform="translate(-650.498 -290.967)" opacity="0.1"/>
    <path id="Path_240" data-name="Path 240" d="M816.056,362.948l2.107,2.229s1.686,12.283,2.529,13.432,2.832,5.72.964,9.152c0,0-.6,1.868-.24,2.65s-2.71,4.7-2.71,4.7-4.035,3.612-4.879,4.155-5.3,4.877-6.8,4.937-2,1.928-2,1.928l-8.491.3s-4.694-.245-5.71.417c0,0,.544-7.166-4.7-11.864l6.683-2.409s2.531-1.089,3.313-2.227a4.089,4.089,0,0,1,2-1.5s1.866-1.325,1.926-2.047,2.282-1.608,2.282-1.608l-1.258-10.737.662-17.825s2.107-14.935,6.564-14.091S816.056,362.948,816.056,362.948Z" transform="translate(-653.772 -290.967)" fill="#e8f5ff"/>
    <path id="Path_241" data-name="Path 241" d="M907.84,551.512s6.2-1.634,7.829.363S907.84,551.512,907.84,551.512Z" transform="translate(-753.39 -461.525)" opacity="0.1"/>
    <path id="Path_242" data-name="Path 242" d="M899.88,569.44c2.107,1.476,8.611,1.536,8.611,1.536Z" transform="translate(-746.875 -476.714)" opacity="0.1"/>
    <path id="Path_243" data-name="Path 243" d="M917.46,610.08c.182.06,4.471,4.638,6.271,3.253S917.46,610.08,917.46,610.08Z" transform="translate(-761.264 -509.977)" opacity="0.1"/>
    <path id="Path_244" data-name="Path 244" d="M599.22,398.42s1.26,8.673.639,12.205,1.644,7.909,1.644,7.909Z" transform="translate(-500.789 -336.737)" opacity="0.1"/>
    <path id="Path_245" data-name="Path 245" d="M367.922,410.406c-1.452,1.138-2.512,3.832-3.28,6.792a73.064,73.064,0,0,0-1.777,11.152s-11.562-2.65-10.72-3.854c.53-.757-.181-6.46-.775-10.595-.354-2.443-.67-4.34-.67-4.34S371.9,407.273,367.922,410.406Z" transform="translate(-297.379 -345.196)" fill="#ffccd0"/>
    <path id="Path_246" data-name="Path 246" d="M367.922,409.08c-1.452,1.14-2.512,3.832-3.28,6.792a13.341,13.341,0,0,1-13.272-3.294c-.354-2.445-.67-4.342-.67-4.342S371.9,405.949,367.922,409.08Z" transform="translate(-297.379 -344.111)" opacity="0.1"/>
    <path id="Path_247" data-name="Path 247" d="M359.2,320.493a13.374,13.374,0,1,1-2.942-8.364A13.374,13.374,0,0,1,359.2,320.493Z" transform="translate(-282.442 -262.012)" fill="#ffccd0"/>
    <path id="Path_248" data-name="Path 248" d="M517.749,777.776h-3.812l-.321-6.732-.336-6.968s.866-.129,2.245-.321l.557-.074h.046c.3,1.414.6,2.866.886,4.317a44.352,44.352,0,0,1,.742,7.8v.534C517.767,776.82,517.756,777.3,517.749,777.776Z" transform="translate(-430.449 -635.697)" opacity="0.1"/>
    <path id="Path_249" data-name="Path 249" d="M318.314,552.945h-47.8c.207-.47.345-.755.345-.755s3.825-16.732,5.769-23.811a.086.086,0,0,0,0-.018,28.342,28.342,0,0,1,.879-2.841h0a.966.966,0,0,1,.085-.182c.962-1.565,2.167-3.251.481-5.66s-1.089-13.007-1.089-13.007,2.048-9.034,4.215-13.851a6.481,6.481,0,0,1,1.376-2,5.62,5.62,0,0,1,.6-.512h0a5.3,5.3,0,0,1,.5-.336l.034-.022a7.282,7.282,0,0,1,2.964-.92,8.462,8.462,0,0,1,2.224.062,33.19,33.19,0,0,1,8.564,2.36c6.061,2.663,7.9,6.231,7.932,6.306h0l.015.031c.243.568,3.8,8.874,5.082,12.75a5.436,5.436,0,0,1,.441,1.913c-.363.962,2.77,13.005,2.77,13.005s1.452,5.808,2.9,12.617c.063.283.123.566.182.853.26,1.236.517,2.5.766,3.754a44.125,44.125,0,0,1,.742,7.86Q318.337,551.776,318.314,552.945Z" transform="translate(-231.745 -410.865)" fill="#dd6d7d"/>
    <path id="Path_250" data-name="Path 250" d="M343.307,464.567s-3.3-1.271-3.258.657.8,2.85.563,3.131.12,1.968.12,1.968,4.456,0,6.5.922,9.595,2.77,10.559,3.333,4.538,3.086,4.538,3.086l.321-4.777a27.255,27.255,0,0,0-9.755-4.616A38.9,38.9,0,0,1,343.307,464.567Z" transform="translate(-288.661 -390.541)" opacity="0.1"/>
    <path id="Path_251" data-name="Path 251" d="M343.307,463.237s-3.3-1.271-3.258.657.8,2.85.563,3.131.12,1.968.12,1.968,4.456,0,6.5.924,9.595,2.77,10.559,3.331,4.538,3.086,4.538,3.086l.325-4.763a27.255,27.255,0,0,0-9.755-4.616A38.6,38.6,0,0,1,343.307,463.237Z" transform="translate(-288.661 -389.452)" fill="#dd6d7d"/>
    <path id="Path_252" data-name="Path 252" d="M412.85,528.43s6.3,6.823,5.981,8.713S412.85,528.43,412.85,528.43Z" transform="translate(-348.248 -443.148)" opacity="0.1"/>
    <path id="Path_253" data-name="Path 253" d="M434.32,741.85s-2.449,4.979-1.124,4.658S434.32,741.85,434.32,741.85Z" transform="translate(-364.58 -617.829)" fill="none"/>
    <path id="Path_254" data-name="Path 254" d="M327.668,664.22s-4.62,4.257-5.981,4.5,1.044,1.044,2.608.4,4.9-2.327,4.9-2.327Z" transform="translate(-273.303 -554.29)" opacity="0.1"/>
    <path id="Path_255" data-name="Path 255" d="M459.914,775.845H449.141c-1.507-1.307-2.931-2.518-3.839-3.246a12.529,12.529,0,0,1-3.167-4.26c-.151-.314-.281-.608-.392-.875a14.583,14.583,0,0,1-.523-1.407l7.978-4.737a12.48,12.48,0,0,1,1.24,1.212l.1.111a3.277,3.277,0,0,1,.868,1.6c.04.566,1.615,2.757,3.225,4.861,1.634,2.14,3.307,4.186,3.418,4.324h0s.276.376.726.953C459.088,774.8,459.48,775.3,459.914,775.845Z" transform="translate(-371.468 -633.765)" fill="#ffccd0"/>
    <path id="Path_256" data-name="Path 256" d="M356.287,312.159a7.78,7.78,0,0,0-.777,2.723c-.143,2.777.089,8.987-2.986,10.381-1.523.686-3.153-.82-4.823-.857a3.921,3.921,0,0,0-3.037,1.69,18.273,18.273,0,0,0-1.721,3.162,21.592,21.592,0,0,1-1.668,2.813,7.076,7.076,0,0,1-.617.779,13.37,13.37,0,1,1,15.628-20.684Z" transform="translate(-282.472 -262.042)" opacity="0.1"/>
    <path id="Path_257" data-name="Path 257" d="M291.037,289.4c-.145,2.777.089,8.987-2.988,10.379-1.523.686-3.153-.819-4.823-.855a3.922,3.922,0,0,0-3.037,1.688,18.164,18.164,0,0,0-1.721,3.164,21.645,21.645,0,0,1-1.668,2.813,4.085,4.085,0,0,1-1.363,1.359,4.381,4.381,0,0,1-3.291-.107q-2.091-.659-4.12-1.485a4.154,4.154,0,0,0,.047-.617c-.04.076-.083.147-.127.223l-.085.149c-.154.272-.3.545-.443.824-.053.107-.1.218-.149.329a4.173,4.173,0,0,0-.339,1.3,6.962,6.962,0,0,0,1.035,3.449c2.038,4.213,3.3,9.139,1.764,13.559-.664,1.922-1.815,3.63-2.656,5.487a17.728,17.728,0,0,0-1.24,10.488c.419,2.2,1.26,4.378,1.053,6.609-.363,3.839-3.674,6.7-6.99,8.66-1.792,1.056-3.984,2-5.887,1.162,1.213-1.416,1.525-3.374,1.786-5.222q1.073-7.56,2.151-15.127.43-3.011.859-6.023a50.152,50.152,0,0,0,.741-11.381c-.243-2.8-.929-5.767.283-8.3.641-1.341,1.782-2.452,2.138-3.9.292-1.174.02-2.423.212-3.619a6.159,6.159,0,0,1,.53-1.568,7.705,7.705,0,0,1,1.216-1.855,2.077,2.077,0,0,1-1.216-.742,2.084,2.084,0,0,0,.545-2.514,7.725,7.725,0,0,0-1.7-2.194,4.238,4.238,0,0,1-1.33-2.4c-.154-1.763,1.606-3.127,1.917-4.866.314-1.77-.927-3.491-.828-5.282.116-2.166,2.106-3.739,4.07-4.652a18.514,18.514,0,0,1,9.49-1.634c2.646.25,5.208,1.069,7.847,1.387,1.592.182,3.206.2,4.786.479a7.69,7.69,0,0,1,4.278,2.029C294.718,283.656,291.2,286.174,291.037,289.4Z" transform="translate(-218.24 -237.048)" fill="#ffe0d0"/>
    <path id="Path_258" data-name="Path 258" d="M346.335,591.888c-.926-.4-2.61-.161-5.5-1.042s-3.449-4.859-3.449-4.859v-.013h0a13.322,13.322,0,0,0-2.122-2.755c-2.009-2.289-6.353-13.849-6.353-13.849s-3.852-4.137-3.73-5.661-.684-5.582-.6-10.119,8.671-7.547,8.671-7.547c16.541-2.931,12.646,16.139,12.205,17.583s1.848,5.347,1.848,5.347c-.323,1.7,1.325,4.329,1.325,4.329s.4,2.327.481,3.211a.541.541,0,0,0,.027.12c.265.833,2.425,1.588,3.3,2.047.924.483,3.9,4.7,3.9,4.7C356.971,586.471,347.257,592.294,346.335,591.888Z" transform="translate(-275.991 -457.312)" opacity="0.1"/>
    <path id="Path_259" data-name="Path 259" d="M348.993,587.928c-.924-.4-2.61-.161-5.5-1.044s-3.449-4.857-3.449-4.857v-.013h0a13.164,13.164,0,0,0-2.122-2.755c-2.009-2.289-6.353-13.851-6.353-13.851s-3.852-4.135-3.732-5.66-.682-5.581-.6-10.116,8.666-7.542,8.666-7.542c16.541-2.932,12.646,16.138,12.2,17.583s1.848,5.347,1.848,5.347c-.323,1.7,1.325,4.329,1.325,4.329s.4,2.327.483,3.211a.457.457,0,0,0,.025.12c.265.833,2.425,1.588,3.305,2.048.922.481,3.9,4.7,3.9,4.7C359.631,582.516,349.917,588.339,348.993,587.928Z" transform="translate(-278.169 -454.079)" fill="#dd6d7d"/>
    <path id="Path_260" data-name="Path 260" d="M376.8,598.32s7.226,7.624,9.112,7.624S376.8,598.32,376.8,598.32Z" transform="translate(-318.742 -500.352)" opacity="0.1"/>
    <path id="Path_261" data-name="Path 261" d="M406.779,727.214c-.924-.4-2.61-.162-5.5-1.044s-3.449-4.857-3.449-4.857V721.3h0c1.915-1.271,6.765-4.859,8.676-6.172a13.392,13.392,0,0,0,3.086-3.169c.265.833,2.425,1.588,3.305,2.047.922.481,3.9,4.7,3.9,4.7C417.417,721.8,407.7,727.625,406.779,727.214Z" transform="translate(-335.954 -593.365)" fill="#dd6d7d"/>
    <g id="Group_15" data-name="Group 15" transform="translate(35.77 43.064)" opacity="0.1">
      <path id="Path_262" data-name="Path 262" d="M302,406.122c.009.014.022.027.033.042.054-.069.111-.138.169-.2a1.351,1.351,0,0,1-.2.161Z" transform="translate(-293.289 -385.972)"/>
      <path id="Path_263" data-name="Path 263" d="M266.932,435.616a6.848,6.848,0,0,1,1.12-2.781c-.33-.127-.661-.256-.987-.39a4.116,4.116,0,0,0,.047-.615,7.055,7.055,0,0,0-1.144,2.823A6.958,6.958,0,0,0,267,438.1c2.04,4.211,3.3,9.137,1.764,13.559-.666,1.92-1.815,3.63-2.656,5.487a17.721,17.721,0,0,0-1.238,10.486c.416,2.2,1.258,4.378,1.051,6.609-.363,3.839-3.672,6.7-6.99,8.658a8.694,8.694,0,0,1-4.456,1.485,5.489,5.489,0,0,1-.468.644c1.9.84,4.1-.105,5.887-1.165,3.32-1.96,6.636-4.81,7-8.656.207-2.231-.635-4.407-1.053-6.609a17.736,17.736,0,0,1,1.234-10.486c.835-1.855,2-3.567,2.656-5.487,1.534-4.422.274-9.348-1.764-13.559A7.007,7.007,0,0,1,266.932,435.616Z" transform="translate(-254.01 -407.146)"/>
      <path id="Path_264" data-name="Path 264" d="M354.985,296.348a5.241,5.241,0,0,0-.574-.508c2.2,2.853-.977,5.278-1.134,8.35-.142,2.777.091,8.989-2.986,10.379-1.521.688-3.153-.819-4.821-.855a3.93,3.93,0,0,0-3.039,1.69,18.089,18.089,0,0,0-1.719,3.162,21.747,21.747,0,0,1-1.67,2.813,3.981,3.981,0,0,1-1.365,1.361,4.377,4.377,0,0,1-3.289-.109q-1.57-.494-3.111-1.089a3.931,3.931,0,0,1-.047.565q2.031.828,4.122,1.485a4.377,4.377,0,0,0,3.289.109,4.084,4.084,0,0,0,1.365-1.363,21.388,21.388,0,0,0,1.668-2.812,18.111,18.111,0,0,1,1.721-3.164,3.93,3.93,0,0,1,3.037-1.688c1.67.036,3.3,1.543,4.823.855,3.077-1.39,2.843-7.6,2.986-10.379C354.408,301.921,357.922,299.4,354.985,296.348Z" transform="translate(-317.213 -295.84)"/>
    </g>
    <path id="Path_265" data-name="Path 265" d="M307.1,418.135c-.154.272-.3.545-.443.824-.053.107-.1.218-.149.329a29.328,29.328,0,0,0-4.56-3.942,7.74,7.74,0,0,1,1.216-1.855A8.652,8.652,0,0,1,307.1,418.135Z" transform="translate(-257.478 -349.071)" opacity="0.1"/>
    <path id="Path_266" data-name="Path 266" d="M307.187,415.817c-.713-3.229-4.021-4.977-4.021-4.977a7.707,7.707,0,0,0-1.216,1.855,30.61,30.61,0,0,1,4.709,4.095Z" transform="translate(-257.478 -346.902)" fill="#ff748e"/>
  </g>
</svg>
