<svg id="undraw_successful_purchase_uyin_5_" data-name="undraw_successful_purchase_uyin (5)" xmlns="http://www.w3.org/2000/svg" xmlns:xlink="http://www.w3.org/1999/xlink" width="211.092" height="159.393" viewBox="0 0 211.092 159.393">
  <defs>
    <linearGradient id="linear-gradient" x1="0.5" y1="1" x2="0.5" gradientUnits="objectBoundingBox">
      <stop offset="0" stop-color="gray" stop-opacity="0.251"/>
      <stop offset="0.54" stop-color="gray" stop-opacity="0.122"/>
      <stop offset="1" stop-color="gray" stop-opacity="0.102"/>
    </linearGradient>
  </defs>
  <rect id="Rectangle_2" data-name="Rectangle 2" width="15.724" height="6.47" rx="3.235" transform="translate(64.861 16.623)" fill="#6c63ff" opacity="0.1"/>
  <rect id="Rectangle_3" data-name="Rectangle 3" width="15.724" height="6.47" rx="3.235" transform="translate(111.639 10.8)" fill="#6c63ff" opacity="0.1"/>
  <rect id="Rectangle_4" data-name="Rectangle 4" width="15.724" height="6.47" rx="3.235" transform="translate(102.991 76.578)" fill="#6c63ff" opacity="0.1"/>
  <rect id="Rectangle_5" data-name="Rectangle 5" width="15.724" height="6.47" rx="3.235" transform="translate(110.067 83.695)" fill="#6c63ff" opacity="0.1"/>
  <rect id="Rectangle_6" data-name="Rectangle 6" width="15.724" height="6.47" rx="3.235" transform="translate(152.128 80.46)" fill="#6c63ff" opacity="0.1"/>
  <rect id="Rectangle_7" data-name="Rectangle 7" width="15.724" height="6.47" rx="3.235" transform="translate(24.175 85.636)" fill="#6c63ff" opacity="0.1"/>
  <rect id="Rectangle_8" data-name="Rectangle 8" width="15.724" height="6.47" rx="3.235" transform="translate(98.077 90.812)" fill="#6c63ff" opacity="0.1"/>
  <path id="Path_1" data-name="Path 1" d="M501.409,119.734,494.2,96.783l-2.591.431-2.319.326c.059-.863.161-3.96-1.278-5.584a4.278,4.278,0,0,0-1.215-1.9c-3.447-3.468-4.165,3.625-4.165,3.625s-.786,1.5-1.869,3.589l-.568-.119-.161,1.544c-2.4,4.652-5.584,10.947-5.584,11.538a8.438,8.438,0,0,1-.43,2.206s-2.441,4.412-3.3,6.621a10.681,10.681,0,0,1-2.162,3.468s-.208.175-.55.431a5.872,5.872,0,0,1,.2-1.231,32.75,32.75,0,0,0,1.24-3.254,4.16,4.16,0,0,0,.051-.843,19.688,19.688,0,0,0-.81-4.061c-.293-1.577-.136-3.313-.9-4.682a4.409,4.409,0,0,0-2.722-2,19.107,19.107,0,0,0-2.987-.293c-.924-.108-1.806-.556-2.73-.722a3.219,3.219,0,0,0-1.5,0c-1.563.472-2.052,2.633-3.259,3.822-.434.431-.967.729-1.36,1.2a3.85,3.85,0,0,0-.741,2.588,6.052,6.052,0,0,0,.051.942c.149,1.128.546,2.2.786,3.3a12.483,12.483,0,0,1,.293,2.5c0,.19,0,.38-.016.567a2.14,2.14,0,0,1-.265,1.078,2.8,2.8,0,0,1-.9.7,7.68,7.68,0,0,1-2.264-3.524s-.053.073-.143.216v-.216a17.412,17.412,0,0,1-2.264-5.752l.684.078,1.572-24.273-4.016-.647a10.778,10.778,0,0,0-1.224-4.4c.674-1.458,1.014-3.431-1.942-3.627-3.459-.231-3.247,2.726-2.879,4.343a11.909,11.909,0,0,0-.2,2.685l-3.538-.565-.02.315h-.841l-2.575,24.763,2.194-.121,8.039.919c.643,6.412,1.653,14.335,2.852,16.2a1.587,1.587,0,0,0,.132.179V140.5s-.143,14.665-2.587,17.022a11.748,11.748,0,0,1,4.674-.8q-.041.146-.083.311a29.927,29.927,0,0,0-.745,4.417q-.051.494-.092,1.031a61,61,0,0,0,.124,9.862c1.006,11.663,2.587,20.018,2.587,20.018l.44,6.781s-.43,11.506.717,15.288a5.178,5.178,0,0,0,1.47,1.046c.01.108.022.216.031.33s.026.291.039.442c-.515.257-1.476,1.275-1.684,5.273,0,0,.287,3-.43,4.412s-.287,5.517,1.867,5.989a10.509,10.509,0,0,0,4.165,0s1.006,0,.287-3.94l-.126-1.009c-.016-1.952.059-4.042.413-4.665a2.408,2.408,0,0,0-.287-2.521s-.071.043-.187.1a20.406,20.406,0,0,1-.34-4.208,3.307,3.307,0,0,1,.029-.334,6.065,6.065,0,0,0,1.217-.921V199.452s-.143-23.011,1.437-23.486a113.565,113.565,0,0,1,.43,12.452,42.851,42.851,0,0,0,.43,8.512l.287,16.708a7.413,7.413,0,0,0,.719.315l-.03.3c-.175,1.857-.456,4.66-.711,6.377a1.24,1.24,0,0,0-.7.884c-.43,1.577-.143,5.517-1.006,6.621a3.693,3.693,0,0,0-.82,2.9c-.187.817-.1,2.094,2.113,2.305a5.29,5.29,0,0,0,4.741-1.576,3.02,3.02,0,0,0,0-2.206,10.094,10.094,0,0,1,.143-3.94s.309-2.139-.2-2.42c-.043-.254-.083-.416-.083-.416a2.006,2.006,0,0,0-.454-1.311,29.831,29.831,0,0,1,.578-6.711c.031-.114.063-.216.1-.334a3.659,3.659,0,0,0,1.215-.468,18.007,18.007,0,0,1,.863-6.146c1.006-2.521.43-12.61.43-12.61a13.015,13.015,0,0,1,.177-4.8,50.959,50.959,0,0,0,1.561-7.289l.847-6.511a29.112,29.112,0,0,0-.708-16.061q-.18-.5-.393-1.009c-.244-.584-.515-1.171-.818-1.753-.047-.091-.1-.183-.147-.274.309-.084.483-.134.483-.134s-3.878-9.921-1.437-14.974a6.734,6.734,0,0,0,1.572-3.168c.244-2.193.509-4.384.945-6.541l.077-.38s.012-.073.031-.2c.055-.039.108-.08.161-.123,4.139-3.317,7.709-17.167,7.709-17.167l1.15-2.372.546-1.268-1.12,10.725,8.762,2.372,5.6-.472-.016-1.322,4.269-.364ZM445.864,88.463l-1.557-.25c-.273-1.542-.458-2.553-.458-2.553a9.488,9.488,0,0,0,.863-1.417,10.535,10.535,0,0,1,1.152,4.212Zm-5.814-3.31c.108.405.206.666.206.666l.2,1.779-.531-.084a12.8,12.8,0,0,1,.13-2.37Zm49.1,12.424-2.107.3a9.45,9.45,0,0,0,.45-3.949,2.089,2.089,0,0,0,.578-1.65c1.252,1.641,1.134,4.54,1.079,5.295Zm-3.5-2.461a5.115,5.115,0,0,0,1.716-1.059,9.545,9.545,0,0,1-.484,3.839l-1.965.276-.543-.114Z" transform="translate(-360.109 -80.421)" fill="url(#linear-gradient)"/>
  <path id="Path_2" data-name="Path 2" d="M671.685,101.541l-5.128,2.349L660.6,81.1l1.4-1.82,2.561-.436Z" transform="translate(-530.761 -61.82)" fill="#6c63ff"/>
  <path id="Path_3" data-name="Path 3" d="M671.685,101.541l-5.128,2.349L660.6,81.1l1.4-1.82,2.561-.436Z" transform="translate(-530.761 -61.82)" fill="#fff" opacity="0.2"/>
  <path id="Path_4" data-name="Path 4" d="M631.33,80.86l-8.9,1.253,4.562,24.12,8.9-.759Z" transform="translate(-500.093 -63.404)" fill="#6c63ff"/>
  <path id="Path_5" data-name="Path 5" d="M631.33,80.86l-8.9,1.253,4.562,24.12,8.9-.759Z" transform="translate(-500.093 -63.404)" fill="#fff" opacity="0.07"/>
  <path id="Path_6" data-name="Path 6" d="M707.459,139.722l-.142-.019c0-.058.59-5.752-2.667-6.47l.027-.153C708.074,133.828,707.47,139.664,707.459,139.722Z" transform="translate(-578.535 -121.723)" fill="#535461"/>
  <rect id="Rectangle_9" data-name="Rectangle 9" width="9.804" height="15.746" transform="translate(96.002 34.618)" fill="#774e55"/>
  <rect id="Rectangle_10" data-name="Rectangle 10" width="9.804" height="15.746" transform="translate(96.002 34.618)" opacity="0.2"/>
  <path id="Path_7" data-name="Path 7" d="M646.861,113.714l-5.541.468.853-23.7,1.846-1.247,2.557.468Z" transform="translate(-515.27 -69.977)" fill="#6c63ff"/>
  <path id="Path_8" data-name="Path 8" d="M646.861,113.714l-5.541.468.853-23.7,1.846-1.247,2.557.468Z" transform="translate(-515.27 -69.977)" opacity="0.2"/>
  <path id="Path_9" data-name="Path 9" d="M608.594,82.432l-8.807-1.872-2.557,24.476,8.666,2.338Z" transform="translate(-479.846 -63.169)" fill="#6c63ff"/>
  <path id="Path_10" data-name="Path 10" d="M375.537,35.03h-1.28L371.7,59.5l5.682-.311Z" transform="translate(-298.643 -27.458)" fill="#6c63ff"/>
  <path id="Path_11" data-name="Path 11" d="M375.537,35.03h-1.28L371.7,59.5l5.682-.311Z" transform="translate(-298.643 -27.458)" opacity="0.2"/>
  <path id="Path_12" data-name="Path 12" d="M382.663,33.58,381.1,58.211l13.638,1.559L396.3,35.763Z" transform="translate(-306.196 -26.321)" fill="#6c63ff"/>
  <path id="Path_13" data-name="Path 13" d="M524.726,706.808s-1.7-.155-1.989,5.3c0,0,.285,2.961-.427,4.365s-.285,5.456,1.848,5.924a10.4,10.4,0,0,0,4.128,0s.995,0,.285-3.9l-1.421-11.381Z" transform="translate(-431.778 -571.719)" fill="#5c3d53"/>
  <path id="Path_14" data-name="Path 14" d="M524.726,706.808s-1.7-.155-1.989,5.3c0,0,.285,2.961-.427,4.365s-.285,5.456,1.848,5.924a10.4,10.4,0,0,0,4.128,0s.995,0,.285-3.9l-1.421-11.381Z" transform="translate(-431.778 -571.719)" opacity="0.05"/>
  <path id="Path_15" data-name="Path 15" d="M550.075,257.533a11.394,11.394,0,0,0,.3,3.666l-3.693,1.091s-6.109.936-3.693-1.725a7.551,7.551,0,0,0,1.425-4.149,25.207,25.207,0,0,0,.1-3.416q-.049-1.6-.251-3.192s8.951-3.429,6.962,2.183a21.439,21.439,0,0,0-.855,3.127A18,18,0,0,0,550.075,257.533Z" transform="translate(-448.195 -212.464)" fill="#f8bdc5"/>
  <path id="Path_16" data-name="Path 16" d="M558.762,252a21.44,21.44,0,0,0-.855,3.127,5.806,5.806,0,0,1-5.855-2.118q-.049-1.6-.252-3.192S560.751,246.389,558.762,252Z" transform="translate(-455.728 -212.471)" opacity="0.1"/>
  <ellipse id="Ellipse_1" data-name="Ellipse 1" cx="6.109" cy="6.703" rx="6.109" ry="6.703" transform="translate(94.795 29.084)" fill="#f8bdc5"/>
  <path id="Path_17" data-name="Path 17" d="M479.975,122.574V124.6l-3.125,8.885-.853-.936a1.558,1.558,0,0,1-.13-.177c-2.064-3.218-3.565-24.609-3.565-24.609l-1.987-18.088s-2.131-5.607,2.555-5.3.995,5.144.995,5.144,3.125,17.147,2.7,17.771,0,2.5,0,2.5a19.848,19.848,0,0,1,1.136,6.235C477.555,118.669,479.975,122.574,479.975,122.574Z" transform="translate(-389.87 -83.514)" fill="#f8bdc5"/>
  <path id="Path_18" data-name="Path 18" d="M628.1,130.064l-7.388,17.147-1.136,2.333s-3.538,13.7-7.624,16.979a3.669,3.669,0,0,1-.759.481l-.853-7.484.786-2.174.059-.166a10.568,10.568,0,0,0,2.131-3.429c.853-2.183,3.268-6.548,3.268-6.548a8.341,8.341,0,0,0,.427-2.183c0-.936,8.1-16.369,8.1-16.369s.71-7.016,4.128-3.587S628.1,130.064,628.1,130.064Z" transform="translate(-502.762 -114.698)" fill="#f8bdc5"/>
  <path id="Path_19" data-name="Path 19" d="M537.4,703.572s-4.831,2.182-4.263.155a17.754,17.754,0,0,0,.065-5.176c-.1-1.059-.208-1.831-.208-1.831l4.128.468a3.974,3.974,0,0,0-.238,1.24A23.85,23.85,0,0,0,537.4,703.572Z" transform="translate(-440.615 -563.806)" fill="#f8bdc5"/>
  <path id="Path_20" data-name="Path 20" d="M575,691.821a34.61,34.61,0,0,0-.55,7.781s-4.4.623-3.978-.623a72.316,72.316,0,0,0,.967-7.65c.1-1.1.169-1.859.169-1.859l3.978.936A4.575,4.575,0,0,0,575,691.821Z" transform="translate(-470.706 -558.12)" fill="#f8bdc5"/>
  <path id="Path_21" data-name="Path 21" d="M533,696.69l4.128.468a3.975,3.975,0,0,0-.238,1.24,3.879,3.879,0,0,1-3.675.123C533.11,697.46,533,696.69,533,696.69Z" transform="translate(-440.623 -563.783)" opacity="0.1"/>
  <path id="Path_22" data-name="Path 22" d="M579.659,690.4a4.573,4.573,0,0,0-.59,1.417,7.02,7.02,0,0,1-3.559-.492c.1-1.1.169-1.859.169-1.859Z" transform="translate(-474.777 -558.12)" opacity="0.1"/>
  <path id="Path_23" data-name="Path 23" d="M528.656,449.988l-.837,6.44a50.4,50.4,0,0,1-1.545,7.21,12.847,12.847,0,0,0-.175,4.745s.568,9.977-.427,12.472a17.834,17.834,0,0,0-.853,6.08c-2.274,1.4-5.541-.313-5.541-.313l-.285-16.524a42.374,42.374,0,0,1-.427-8.411,112.559,112.559,0,0,0-.427-12.314c-1.572.468-1.421,23.227-1.421,23.227v14.81a4.3,4.3,0,0,1-6.394,0c-1.136-3.742-.71-15.122-.71-15.122l-.427-6.7s-1.572-8.262-2.555-19.8a60.319,60.319,0,0,1-.122-9.754q.041-.531.09-1.02a29.6,29.6,0,0,1,.735-4.367,10.5,10.5,0,0,1,.432-1.382l15.266.779.9.045,2.162.11c.236.39.458.787.664,1.184.3.576.568,1.156.808,1.725.138.332.267.666.393,1A28.791,28.791,0,0,1,528.656,449.988Z" transform="translate(-419.228 -354.028)" fill="#5e52ad"/>
  <path id="Path_24" data-name="Path 24" d="M512.46,436.462s-.668,7.333-5.379,5.21q.041-.531.09-1.02c1.109.33,4.177.785,4.293-4.193Z" transform="translate(-419.797 -359.675)" opacity="0.1"/>
  <path id="Path_25" data-name="Path 25" d="M596.1,436.92c-3.263,1.279-4.493-2.126-4.914-4.07l.9.045c.489,3.056,2.443,3.235,3.632,3.019Q595.923,436.426,596.1,436.92Z" transform="translate(-487.376 -356.844)" opacity="0.1"/>
  <path id="Path_26" data-name="Path 26" d="M529.261,717a1.6,1.6,0,0,1-1.486-2.092s-1.342-.509-1.2,5.571a20.445,20.445,0,0,1-.427,3.587c-.285.625,0,4.365,2.984,4.052,0,0,2.131.779,2.7-.468,0,0-.427-7.171.285-8.411a2.386,2.386,0,0,0-.285-2.5,2.864,2.864,0,0,1-1.73.431A7,7,0,0,0,529.261,717Z" transform="translate(-435.048 -578.067)" fill="#5c3d53"/>
  <path id="Path_27" data-name="Path 27" d="M559.213,746.032s-1.421,2.651,1.848,2.961a5.23,5.23,0,0,0,4.688-1.559,2.983,2.983,0,0,0,0-2.182,9.969,9.969,0,0,1,.142-3.9s.427-2.961-.568-2.338S559.213,746.032,559.213,746.032Z" transform="translate(-461.437 -596.913)" fill="#5c3d53"/>
  <path id="Path_28" data-name="Path 28" d="M559.213,746.032s-1.421,2.651,1.848,2.961a5.23,5.23,0,0,0,4.688-1.559,2.983,2.983,0,0,0,0-2.182,9.969,9.969,0,0,1,.142-3.9s.427-2.961-.568-2.338S559.213,746.032,559.213,746.032Z" transform="translate(-461.437 -596.913)" opacity="0.05"/>
  <path id="Path_29" data-name="Path 29" d="M562.857,727.062s-1.7-.779-2.13.779-.142,5.456-.995,6.548-1.989,4.052,1.421,3.9,4.128-1.4,4.128-1.4-.142-3.9.285-4.988a5.714,5.714,0,0,0,0-2.8S565.7,726.9,562.857,727.062Z" transform="translate(-461.386 -587.452)" fill="#5c3d53"/>
  <ellipse id="Ellipse_2" data-name="Ellipse 2" cx="0.285" cy="0.313" rx="0.285" ry="0.313" transform="translate(79.875 9.129)" opacity="0.2"/>
  <ellipse id="Ellipse_3" data-name="Ellipse 3" cx="0.285" cy="0.313" rx="0.285" ry="0.313" transform="translate(85.842 9.907)" opacity="0.2"/>
  <path id="Path_30" data-name="Path 30" d="M476.094,100.751h-.142c0-.067.1-6.642-3.341-7.248a1.7,1.7,0,0,0-1.647.5c-1.421,1.546-.833,5.914-.828,5.957l-.14.024c-.026-.183-.6-4.49.869-6.09a1.828,1.828,0,0,1,1.769-.546C476.2,93.973,476.1,100.685,476.094,100.751Z" transform="translate(-389.896 -90.529)" fill="#535461"/>
  <path id="Path_31" data-name="Path 31" d="M702.78,142l-.128-.067c.022-.052,2.211-5.256-.682-7.069l.071-.136C705.046,136.615,702.8,141.948,702.78,142Z" transform="translate(-576.382 -123.017)" fill="#535461"/>
  <path id="Path_32" data-name="Path 32" d="M550.376,288.963l-3.693,1.091s-6.109.936-3.693-1.725a7.55,7.55,0,0,0,1.425-4.149c.965,1.661,2.127,1.188,2.127,1.188l3.522-.076h.014A11.334,11.334,0,0,0,550.376,288.963Z" transform="translate(-448.195 -240.236)" opacity="0.1"/>
  <path id="Path_33" data-name="Path 33" d="M611.962,286.773a3.667,3.667,0,0,1-.759.481l-.853-7.484.786-2.174.2-.166C613.107,277.984,612.192,285.153,611.962,286.773Z" transform="translate(-502.77 -234.942)" opacity="0.1"/>
  <path id="Path_34" data-name="Path 34" d="M504.648,261.54v2.027l-3.125,8.885-.853-.936a1.543,1.543,0,0,1-.13-.177C500.91,266.707,504.648,261.54,504.648,261.54Z" transform="translate(-414.543 -222.479)" opacity="0.1"/>
  <path id="Path_35" data-name="Path 35" d="M530.713,431.358c-1.987.546-12.361,3.22-15.439.688a6.6,6.6,0,0,0-3.984-1.423,10.506,10.506,0,0,1,.432-1.382l15.266.779.9.045,2.162.11Q530.4,430.763,530.713,431.358Z" transform="translate(-423.18 -354.012)" opacity="0.1"/>
  <path id="Path_36" data-name="Path 36" d="M474.1,90.59s2.131,3.9,3.552,0" transform="translate(-393.299 -88.397)" fill="#f8bdc5"/>
  <path id="Path_37" data-name="Path 37" d="M696.7,127.81s-.853,4.678,2.555,2.5" transform="translate(-572.073 -117.59)" fill="#f8bdc5"/>
  <g id="Group_1" data-name="Group 1" transform="translate(88.45 75.234)" opacity="0.1">
    <path id="Path_38" data-name="Path 38" d="M545.061,524.032c-.069-.949-.12-1.542-.12-1.542-1.572.468-1.421,23.227-1.421,23.227v14.81a4.753,4.753,0,0,1-2.82,1.439,4.448,4.448,0,0,0,3.538-1.439v-14.81S544.128,529.225,545.061,524.032Z" transform="translate(-535.26 -502.386)"/>
    <path id="Path_39" data-name="Path 39" d="M533.227,434.112c-.12-.332-.248-.666-.393-1-.24-.578-.509-1.158-.808-1.725-.2-.4-.428-.791-.664-1.184l-2.162-.11-.9-.045-15.266-.779-.014.035,14.57.744.9.045,2.162.11c.236.39.458.787.664,1.184.3.576.568,1.156.808,1.725.138.332.267.666.393,1a28.8,28.8,0,0,1,.7,15.884l-.837,6.44a50.4,50.4,0,0,1-1.545,7.21,12.846,12.846,0,0,0-.175,4.745s.568,9.977-.427,12.472a17.833,17.833,0,0,0-.853,6.08,3.851,3.851,0,0,1-1.781.539,4.183,4.183,0,0,0,2.49-.539,17.828,17.828,0,0,1,.853-6.08c.995-2.493.427-12.472.427-12.472a12.848,12.848,0,0,1,.175-4.745,50.4,50.4,0,0,0,1.545-7.21l.837-6.44A28.806,28.806,0,0,0,533.227,434.112Z" transform="translate(-513.02 -429.27)"/>
  </g>
  <path id="Path_40" data-name="Path 40" d="M506.5,267.894c1.965,1.016,6.565-2.886,6.565-2.886,1.989.623.568,9.666.568,9.666l-.077.375c-.432,2.133-.694,4.3-.936,6.47a6.594,6.594,0,0,1-1.545,3.134c-2.416,4.988,1.421,14.81,1.421,14.81s-12.361,3.587-15.769.779-8.524-.623-8.524-.623c2.416-2.338,2.555-16.837,2.555-16.837V271.567c.285-4.678,4.128-9.977,4.128-9.977a7.188,7.188,0,0,0,5.942,5.152c.969,1.725,2.162,1.24,2.162,1.24Z" transform="translate(-404.628 -222.518)" fill="#eb6475"/>
  <path id="Path_41" data-name="Path 41" d="M530.178,202.243a3.184,3.184,0,0,0-1.48,0c-1.545.468-2.03,2.605-3.223,3.778-.428.431-.957.72-1.346,1.188a4.174,4.174,0,0,0-.684,3.181c.147,1.115.541,2.172.786,3.265A12.36,12.36,0,0,1,524.5,217a2.116,2.116,0,0,1-.263,1.059c-.285.431-.81.567-1.179.912-1.128,1.065-.2,3.276-1.024,4.637-.356.589-1.022.977-1.158,1.667a2.461,2.461,0,0,0,.309,1.434A10.527,10.527,0,0,0,523.154,230a8.968,8.968,0,0,0,3.092,1.779c.332.136.749.254,1-.015.313-.336.077-.906-.14-1.322a3.032,3.032,0,0,1-.409-2.157c.2-.729.843-1.212,1.276-1.82,1.114-1.574.749-3.835.2-5.732a4.85,4.85,0,0,1-.3-2.465c.084-.349.252-.666.358-1.009.472-1.527-.32-3.2-.088-4.794a7.33,7.33,0,0,1,.59-1.784l1.248-2.944a2.96,2.96,0,0,1,.552-.953,1.85,1.85,0,0,1,1.376-.47,3.6,3.6,0,0,1,2.679,1.339c1.337,1.63,1.252,4.1,1.091,6.272l-.116,1.57a6.161,6.161,0,0,1-.845,3.216c-.505.682-1.321,1.145-1.529,1.995-.181.731.159,1.525-.02,2.256-.267,1.093-1.5,1.488-2.148,2.372a2.621,2.621,0,0,0-.161,2.728c.248.431.643.863.59,1.369-.045.408-.379.738-.377,1.147a.894.894,0,0,0,.6.792,2.228,2.228,0,0,0,1,.052l3.524-.349a1.158,1.158,0,0,0,.627-.19,1.265,1.265,0,0,0,.36-.882c.141-1.376-.2-2.879.43-4.082.2-.386.485-.707.7-1.078,1.2-2.07-.01-4.878.645-7.227a32.691,32.691,0,0,0,1.227-3.218c.256-1.527-.47-3.019-.751-4.529-.289-1.559-.134-3.276-.892-4.632a4.347,4.347,0,0,0-2.691-1.975,18.958,18.958,0,0,0-2.948-.291C531.965,202.849,531.092,202.4,530.178,202.243Z" transform="translate(-430.865 -175.902)" opacity="0.1"/>
  <path id="Path_42" data-name="Path 42" d="M530.178,200.793a3.184,3.184,0,0,0-1.48,0c-1.545.468-2.03,2.605-3.223,3.778-.428.431-.957.72-1.346,1.188a4.174,4.174,0,0,0-.684,3.181c.147,1.115.541,2.172.786,3.265a12.36,12.36,0,0,1,.273,3.347,2.116,2.116,0,0,1-.263,1.059c-.285.431-.81.567-1.179.912-1.128,1.065-.2,3.276-1.024,4.637-.356.589-1.022.977-1.158,1.667a2.461,2.461,0,0,0,.309,1.434,10.527,10.527,0,0,0,1.966,3.289,8.969,8.969,0,0,0,3.092,1.779c.332.136.749.254,1-.015.313-.336.077-.906-.14-1.322a3.032,3.032,0,0,1-.409-2.157c.2-.729.843-1.212,1.276-1.82,1.114-1.574.749-3.835.2-5.732a4.85,4.85,0,0,1-.3-2.465c.084-.349.252-.666.358-1.009.472-1.527-.32-3.2-.088-4.794a7.33,7.33,0,0,1,.59-1.784l1.248-2.944a2.96,2.96,0,0,1,.552-.953,1.85,1.85,0,0,1,1.376-.47,3.6,3.6,0,0,1,2.679,1.339c1.337,1.63,1.252,4.1,1.091,6.272l-.116,1.57a6.161,6.161,0,0,1-.845,3.216c-.505.682-1.321,1.145-1.529,1.995-.181.731.159,1.525-.02,2.256-.267,1.093-1.5,1.488-2.148,2.372a2.621,2.621,0,0,0-.161,2.728c.248.431.643.863.59,1.369-.045.408-.379.738-.377,1.147a.894.894,0,0,0,.6.791,2.227,2.227,0,0,0,1,.052l3.524-.349a1.158,1.158,0,0,0,.627-.19,1.265,1.265,0,0,0,.36-.882c.141-1.376-.2-2.879.43-4.083.2-.386.485-.707.7-1.078,1.2-2.07-.01-4.878.645-7.227a32.691,32.691,0,0,0,1.227-3.218c.256-1.527-.47-3.019-.751-4.529-.289-1.559-.134-3.276-.892-4.632a4.348,4.348,0,0,0-2.691-1.975,18.961,18.961,0,0,0-2.948-.291C531.965,201.4,531.092,200.957,530.178,200.793Z" transform="translate(-430.865 -174.764)" fill="#774e55"/>
  <path id="Path_43" data-name="Path 43" d="M529.75,362.741s2.842.936,6.962-1.091h2.129s.141,2.183,5.682,1.247" transform="translate(-438.012 -300.999)" opacity="0.1"/>
  <ellipse id="Ellipse_4" data-name="Ellipse 4" cx="105.546" cy="10.568" rx="105.546" ry="10.568" transform="translate(0 138.258)" fill="#6c63ff" opacity="0.1"/>
  <rect id="Rectangle_11" data-name="Rectangle 11" width="15.724" height="6.47" rx="3.235" transform="translate(49.53 55.659)" fill="#6c63ff" opacity="0.1"/>
  <rect id="Rectangle_12" data-name="Rectangle 12" width="15.724" height="6.47" rx="3.235" transform="translate(56.606 62.775)" fill="#6c63ff" opacity="0.1"/>
  <rect id="Rectangle_13" data-name="Rectangle 13" width="15.724" height="6.47" rx="3.235" transform="translate(118.518 56.09)" fill="#6c63ff" opacity="0.1"/>
  <rect id="Rectangle_14" data-name="Rectangle 14" width="15.724" height="6.47" rx="3.235" transform="translate(125.594 63.207)" fill="#6c63ff" opacity="0.1"/>
  <rect id="Rectangle_15" data-name="Rectangle 15" width="15.724" height="6.47" rx="3.235" transform="translate(44.616 69.892)" fill="#6c63ff" opacity="0.1"/>
  <rect id="Rectangle_16" data-name="Rectangle 16" width="15.724" height="6.47" rx="3.235" transform="translate(60.34 95.125)" fill="#6c63ff" opacity="0.1"/>
  <rect id="Rectangle_17" data-name="Rectangle 17" width="15.724" height="6.47" rx="3.235" transform="translate(67.416 102.242)" fill="#6c63ff" opacity="0.1"/>
  <rect id="Rectangle_18" data-name="Rectangle 18" width="15.724" height="6.47" rx="3.235" transform="translate(55.426 109.359)" fill="#6c63ff" opacity="0.1"/>
  <rect id="Rectangle_19" data-name="Rectangle 19" width="15.724" height="6.47" rx="3.235" transform="translate(123.628 113.241)" fill="#6c63ff" opacity="0.1"/>
  <rect id="Rectangle_20" data-name="Rectangle 20" width="15.724" height="6.47" rx="3.235" transform="translate(111.639 120.358)" fill="#6c63ff" opacity="0.1"/>
  <g id="Group_2" data-name="Group 2" transform="translate(176.946 83.368)" opacity="0.1">
    <path id="Path_44" data-name="Path 44" d="M1005.436,565.281s-2.846-15.821,3.015-26.665a26.381,26.381,0,0,0,3.072-15.084,44.612,44.612,0,0,0-1.376-7.363" transform="translate(-996.594 -505.562)" fill="none" stroke="#535461" stroke-miterlimit="10" stroke-width="2"/>
    <path id="Path_45" data-name="Path 45" d="M1025.344,470.734c-.157,1.887-3.734,7.048-3.734,7.048s-2.657-5.788-2.5-7.678a3.224,3.224,0,0,1,3.4-3.105,3.359,3.359,0,0,1,2.83,3.733Z" transform="translate(-1008.131 -466.984)" fill="#6c63ff"/>
    <path id="Path_46" data-name="Path 46" d="M1045.524,514.647c-1.067,1.49-6.624,3.692-6.624,3.692s.637-6.444,1.7-7.934a3.018,3.018,0,0,1,2.942-1.4,3.2,3.2,0,0,1,2.52,2.176,3.7,3.7,0,0,1-.548,3.467Z" transform="translate(-1024.036 -499.92)" fill="#6c63ff"/>
    <path id="Path_47" data-name="Path 47" d="M1033.526,593.895c-1.608.694-7.416-.483-7.416-.483s3.514-5.21,5.122-5.9a3.046,3.046,0,0,1,4.058,1.935,3.55,3.55,0,0,1-1.764,4.453Z" transform="translate(-1013.76 -561.326)" fill="#6c63ff"/>
    <path id="Path_48" data-name="Path 48" d="M1012.924,655.987c-1.478.983-7.384.9-7.384.9s2.661-5.786,4.139-6.77a2.975,2.975,0,0,1,4.3,1.155,3.629,3.629,0,0,1-1.053,4.716Z" transform="translate(-997.233 -610.231)" fill="#6c63ff"/>
    <path id="Path_49" data-name="Path 49" d="M1002.383,530.391c1.124,1.441,6.759,3.382,6.759,3.382s-.884-6.41-2.007-7.848a2.941,2.941,0,0,0-4.412-.374,3.669,3.669,0,0,0-.341,4.841Z" transform="translate(-994.091 -512.272)" fill="#6c63ff"/>
    <path id="Path_50" data-name="Path 50" d="M976.1,599.744c1.464,1,7.372,1.007,7.372,1.007s-2.591-5.823-4.057-6.83a2.971,2.971,0,0,0-4.312,1.092,3.634,3.634,0,0,0,1,4.731Z" transform="translate(-972.4 -566.135)" fill="#6c63ff"/>
    <path id="Path_51" data-name="Path 51" d="M964.4,673.632c1.289,1.262,7.111,2.362,7.111,2.362s-1.657-6.222-2.948-7.484a2.932,2.932,0,0,0-3.107-.787,3.343,3.343,0,0,0-2.123,2.612A3.625,3.625,0,0,0,964.4,673.632Z" transform="translate(-963.273 -624.303)" fill="#6c63ff"/>
  </g>
  <g id="Group_3" data-name="Group 3" transform="translate(156.403 107.653)" opacity="0.1">
    <path id="Path_52" data-name="Path 52" d="M881.114,631.881s-1.527-8.495,1.618-14.318a14.165,14.165,0,0,0,1.649-8.1,23.967,23.967,0,0,0-.735-3.953" transform="translate(-876.421 -599.92)" fill="none" stroke="#535461" stroke-miterlimit="10" stroke-width="2"/>
    <path id="Path_53" data-name="Path 53" d="M891.8,581.5c-.085,1.014-2,3.785-2,3.785s-1.427-3.108-1.342-4.121a1.721,1.721,0,0,1,1.815-1.562,1.793,1.793,0,0,1,1.526,1.9Z" transform="translate(-882.614 -579.591)" fill="#6c63ff"/>
    <path id="Path_54" data-name="Path 54" d="M902.628,605.071c-.574.8-3.558,1.982-3.558,1.982s.342-3.451.916-4.259a1.58,1.58,0,0,1,2.328-.268A1.967,1.967,0,0,1,902.628,605.071Z" transform="translate(-891.145 -597.27)" fill="#6c63ff"/>
    <path id="Path_55" data-name="Path 55" d="M896.192,647.334c-.863.373-3.982-.259-3.982-.259s1.887-2.8,2.752-3.17a1.639,1.639,0,0,1,2.13,1.059,1.913,1.913,0,0,1-.9,2.37Z" transform="translate(-885.633 -629.95)" fill="#6c63ff"/>
    <path id="Path_56" data-name="Path 56" d="M885.134,680.478c-.786.528-3.964.483-3.964.483s1.429-3.108,2.223-3.636a1.554,1.554,0,0,1,1.7-.069,1.935,1.935,0,0,1,.039,3.222Z" transform="translate(-876.763 -656.02)" fill="#6c63ff"/>
    <path id="Path_57" data-name="Path 57" d="M879.462,613.15c.6.774,3.63,1.816,3.63,1.816s-.474-3.451-1.077-4.214a1.58,1.58,0,0,0-2.37-.2,1.971,1.971,0,0,0-.185,2.6Z" transform="translate(-875.065 -603.525)" fill="#6c63ff"/>
    <path id="Path_58" data-name="Path 58" d="M865.359,650.385c.786.539,3.958.541,3.958.541s-1.392-3.127-2.178-3.666a1.6,1.6,0,0,0-2.315.587,1.952,1.952,0,0,0,.535,2.541Z" transform="translate(-863.425 -632.446)" fill="#6c63ff"/>
    <path id="Path_59" data-name="Path 59" d="M859.3,690.208c.692.677,3.819,1.268,3.819,1.268s-.888-3.341-1.572-4.018a1.578,1.578,0,0,0-2.372.149,1.972,1.972,0,0,0,.136,2.6Z" transform="translate(-858.75 -663.828)" fill="#6c63ff"/>
  </g>
  <g id="Group_4" data-name="Group 4" transform="translate(31.988 108.947)" opacity="0.1">
    <path id="Path_60" data-name="Path 60" d="M248.115,637.881s-1.527-8.5,1.618-14.318a14.166,14.166,0,0,0,1.649-8.1,23.96,23.96,0,0,0-.735-3.953" transform="translate(-243.421 -605.92)" fill="none" stroke="#535461" stroke-miterlimit="10" stroke-width="2"/>
    <path id="Path_61" data-name="Path 61" d="M258.8,587.5c-.085,1.014-2,3.785-2,3.785s-1.427-3.108-1.342-4.121a1.72,1.72,0,0,1,1.815-1.562,1.793,1.793,0,0,1,1.526,1.9Z" transform="translate(-249.614 -585.592)" fill="#6c63ff"/>
    <path id="Path_62" data-name="Path 62" d="M269.628,611.071c-.574.8-3.558,1.982-3.558,1.982s.342-3.451.916-4.259a1.58,1.58,0,0,1,2.328-.268A1.967,1.967,0,0,1,269.628,611.071Z" transform="translate(-258.145 -603.27)" fill="#6c63ff"/>
    <path id="Path_63" data-name="Path 63" d="M263.192,653.334c-.863.373-3.982-.259-3.982-.259s1.887-2.8,2.752-3.17a1.64,1.64,0,0,1,2.131,1.059,1.912,1.912,0,0,1-.9,2.37Z" transform="translate(-252.633 -635.95)" fill="#6c63ff"/>
    <path id="Path_64" data-name="Path 64" d="M252.134,686.477c-.786.528-3.964.483-3.964.483s1.429-3.108,2.223-3.636a1.554,1.554,0,0,1,1.7-.07,1.935,1.935,0,0,1,.039,3.223Z" transform="translate(-243.763 -662.019)" fill="#6c63ff"/>
    <path id="Path_65" data-name="Path 65" d="M246.462,619.15c.6.774,3.63,1.816,3.63,1.816s-.474-3.451-1.077-4.214a1.58,1.58,0,0,0-2.37-.2,1.971,1.971,0,0,0-.185,2.6Z" transform="translate(-242.065 -609.525)" fill="#6c63ff"/>
    <path id="Path_66" data-name="Path 66" d="M232.359,656.385c.786.539,3.958.541,3.958.541s-1.392-3.127-2.178-3.666a1.6,1.6,0,0,0-2.316.587,1.952,1.952,0,0,0,.535,2.541Z" transform="translate(-230.425 -638.446)" fill="#6c63ff"/>
    <path id="Path_67" data-name="Path 67" d="M226.3,696.208c.692.677,3.819,1.268,3.819,1.268s-.888-3.341-1.572-4.018a1.578,1.578,0,0,0-2.372.149,1.972,1.972,0,0,0,.136,2.6Z" transform="translate(-225.75 -669.828)" fill="#6c63ff"/>
  </g>
</svg>
