<svg xmlns="http://www.w3.org/2000/svg" xmlns:xlink="http://www.w3.org/1999/xlink" width="218" height="159" viewBox="0 0 218 159">
  <defs>
    <clipPath id="clip-path">
      <rect id="Rectangle_22" data-name="Rectangle 22" width="218" height="159" transform="translate(-372.238 50.917)" fill="#fff" stroke="#707070" stroke-width="1"/>
    </clipPath>
    <linearGradient id="linear-gradient" x1="0.5" y1="1" x2="0.5" gradientUnits="objectBoundingBox">
      <stop offset="0" stop-color="gray" stop-opacity="0.251"/>
      <stop offset="0.54" stop-color="gray" stop-opacity="0.122"/>
      <stop offset="1" stop-color="gray" stop-opacity="0.102"/>
    </linearGradient>
    <linearGradient id="linear-gradient-2" x1="0.5" y1="1" x2="0.5" y2="0" xlink:href="#linear-gradient"/>
  </defs>
  <g id="Mask_Group_1" data-name="Mask Group 1" transform="translate(372.238 -50.917)" clip-path="url(#clip-path)">
    <g id="undraw_fishing_hoxa" transform="translate(-369.164 50.919)">
      <path id="Path_69" data-name="Path 69" d="M21.847,47.072c-4.237,7.216-1.379,16.223-.685,24.533a45.112,45.112,0,0,1-1.307,15.124c-1.827,7-5.327,13.568-6.223,20.732s1.871,15.606,8.742,18.1c1.705.619,3.55.828,5.21,1.56,4.5,1.99,6.5,7.315,6.651,12.175s-1.057,9.693-.838,14.551c.123,2.734.774,5.59,2.655,7.6,1.729,1.849,4.245,2.734,6.667,3.522,7.658,2.494,15.654,4.7,23.681,3.928s16.165-5.112,19.25-12.458c1.116-2.659,1.53-5.572,2.653-8.223s3.248-5.2,6.137-5.612a11.589,11.589,0,0,1,5.011.776l23.335,7.264c3.582,1.116,7.6,2.207,10.965.553a14.557,14.557,0,0,0,4.3-3.781c9.97-11.393,20.358-23.749,22.183-38.688.643-5.264.171-10.619.886-15.872s2.9-10.7,7.441-13.532c3.5-2.189,7.833-2.517,11.956-2.959,6.675-.716,13.391-1.93,19.445-4.79S211.4,64.049,213.98,57.94a9.541,9.541,0,0,0,.844-5.715c-.768-3.4-4.193-5.49-7.4-6.965-9.6-4.378-20.012-6.722-30.382-8.786a70.064,70.064,0,0,0-14.412-1.791,78.538,78.538,0,0,0-12.5,1.51C114.7,42.284,76.417,46.131,40.857,38.7A17.467,17.467,0,0,0,21.847,47.072Z" transform="translate(-13.471 -10.056)" fill="#6c63ff" opacity="0.1"/>
      <path id="Path_70" data-name="Path 70" d="M72.531,33.1S115.364,19.46,132.2,29.476c11.578,6.887,37.667,4.907,52.833,3a54.035,54.035,0,0,1,24.875,2.7c7.676,2.734,15.745,6.036,15.407,7.725-.639,3.2-152.782,1.278-152.782,1.278Z" transform="translate(-13.471 -10.056)" fill="#6c63ff" opacity="0.4"/>
      <path id="Path_71" data-name="Path 71" d="M173.753,95.078l-.159.014.05-.123-.2.082.2-.523s-.647.261-1.845.687c-29.415,1.371-90.964-23.586-90.964-23.586L46.766,76.306a7.175,7.175,0,0,1-.561-.587l.151.615q-.08-.088-.151-.173l.054.215H46.2l.084.115,3.9,15.813s69.476,38.28,111.288,33.415l11.9-30.081Z" transform="translate(-13.471 -10.056)" fill="url(#linear-gradient)"/>
      <path id="Path_72" data-name="Path 72" d="M81.908,72.636s62.011,25.138,89.5,22.581l-18.326,27.277-66.268-20.67-32.4-14.7L69.542,76.891Z" transform="translate(-13.471 -10.056)" fill="#6c63ff"/>
      <path id="Path_73" data-name="Path 73" d="M81.908,72.636s62.011,25.138,89.5,22.581l-18.326,27.277-66.268-20.67-32.4-14.7L69.542,76.891Z" transform="translate(-13.471 -10.056)" opacity="0.1"/>
      <path id="Path_74" data-name="Path 74" d="M65.985,70.139,82.5,73.868,48.831,79.834,40.947,72.8Z" fill="#fff" opacity="0.1"/>
      <path id="Path_75" data-name="Path 75" d="M73.337,85.374l19.5-7.138,13.745,4.581L82.5,91.768Z" fill="#fff" opacity="0.1"/>
      <path id="Path_76" data-name="Path 76" d="M100.188,93.472,121.6,87.613l19.072,5.22-20.245,6.82Z" fill="#fff" opacity="0.1"/>
      <path id="Path_77" data-name="Path 77" d="M35.086,67.156l33.351-4.581v8.1L40.521,74.72Z" fill="#6c63ff"/>
      <path id="Path_78" data-name="Path 78" d="M35.3,67.581l33.138-5.007v8.1L40.521,74.72Z" fill="#fff" opacity="0.1"/>
      <path id="Path_79" data-name="Path 79" d="M19.043,50.573A14.509,14.509,0,0,1,30.187,36.467c13.876-3.329,37.148-7.363,48.531-.6,16.836,10.016,64.356,1.278,64.356,1.278S172.48,46.1,171.841,49.287,19.049,50.565,19.049,50.565Z" transform="translate(-13.471 -10.056)" fill="#6c63ff"/>
      <path id="Path_80" data-name="Path 80" d="M136.6,39.223a2.484,2.484,0,0,0,.816-1.232,1.1,1.1,0,0,0-.571-1.256,1.608,1.608,0,0,0-1.508.529,2.02,2.02,0,0,1-1.467.708,2.235,2.235,0,0,0,.691-2.092.873.873,0,0,0-.2-.424c-.291-.31-.818-.177-1.166.068a4.347,4.347,0,0,0-1.423,3.64,6.848,6.848,0,0,1-.02-1.5,1.529,1.529,0,0,0-.563-1.325,1.7,1.7,0,0,0-.858-.2,1.773,1.773,0,0,0-1.393.4,1.39,1.39,0,0,0,.054,1.711,5.346,5.346,0,0,0,1.443,1.154,3.2,3.2,0,0,1,1.031.983.974.974,0,0,1,.076.175h3.122a8.7,8.7,0,0,0,1.936-1.341Z" transform="translate(-13.471 -10.056)" fill="#6c63ff"/>
      <path id="Path_81" data-name="Path 81" d="M67.983,32.4a2.484,2.484,0,0,0,.816-1.232,1.1,1.1,0,0,0-.571-1.256,1.608,1.608,0,0,0-1.508.529,2.02,2.02,0,0,1-1.467.708,2.235,2.235,0,0,0,.691-2.1.874.874,0,0,0-.2-.424c-.291-.31-.818-.177-1.166.068a4.347,4.347,0,0,0-1.423,3.64,6.849,6.849,0,0,1-.02-1.5,1.529,1.529,0,0,0-.563-1.325,1.7,1.7,0,0,0-.858-.2,1.773,1.773,0,0,0-1.393.4,1.39,1.39,0,0,0,.054,1.711,5.346,5.346,0,0,0,1.443,1.154,3.2,3.2,0,0,1,1.031.983.972.972,0,0,1,.076.175h3.122A8.7,8.7,0,0,0,67.983,32.4Z" transform="translate(-13.471 -10.056)" fill="#6c63ff"/>
      <path id="Path_82" data-name="Path 82" d="M169.843,47.108a2.484,2.484,0,0,0,.816-1.232,1.1,1.1,0,0,0-.571-1.256,1.608,1.608,0,0,0-1.508.529,2.02,2.02,0,0,1-1.467.708,2.235,2.235,0,0,0,.691-2.092.874.874,0,0,0-.2-.424c-.291-.31-.818-.177-1.166.068a4.347,4.347,0,0,0-1.423,3.64,6.848,6.848,0,0,1-.02-1.5,1.529,1.529,0,0,0-.563-1.325,1.7,1.7,0,0,0-.858-.2,1.773,1.773,0,0,0-1.393.4,1.39,1.39,0,0,0,.054,1.711,5.346,5.346,0,0,0,1.443,1.154,3.2,3.2,0,0,1,1.031.983.973.973,0,0,1,.076.175h3.122a8.7,8.7,0,0,0,1.936-1.341Z" transform="translate(-13.471 -10.056)" fill="#6c63ff"/>
      <path id="Path_83" data-name="Path 83" d="M130.681,111.044a16.968,16.968,0,0,1-4.4-6.955,27.584,27.584,0,0,1-1.21-4.694,16.46,16.46,0,0,0-3.518-7.447c-.068-.072-.137-.141-.2-.2-.338-1.337-1.013-4.71.157-6.8a9.677,9.677,0,0,0,.714-1.6,19.017,19.017,0,0,1,3.184-5.92,7.081,7.081,0,0,0,.744-1.093c.488.084.774-.052.714-.531v-.054c.225-.052.342-.215.3-.535-.3-2.36.892-9.737.892-9.737a28.288,28.288,0,0,0,1.469-10.348c-.3-5.606-6.241-6.786-6.241-6.786l-.492.488c-.4-.245-.844-.519-1.3-.81a.746.746,0,0,0,.4-.412,10.448,10.448,0,0,0,.615-3.692,3.487,3.487,0,0,0-.052-1.12,2.6,2.6,0,0,0-.454-.866,5.184,5.184,0,0,0-3.894-2.044c-.494-.02-1,.032-1.479.032-.907,0-1.815-.175-2.718-.1a2.7,2.7,0,0,0-2.259,1.284c-.251.507-.253,1.118-.549,1.592-.342.555-1.009.838-1.393,1.365a1.7,1.7,0,0,0-.324,1,.691.691,0,0,0,.07.336,1.331,1.331,0,0,0,.332.322,1.3,1.3,0,0,1,.255,1.612,1.592,1.592,0,0,1,1.262,1.22.5.5,0,0,0,.107.281.38.38,0,0,0,.2.084,1.98,1.98,0,0,0,1.6-.565c.036.066.07.129.109.2a4.179,4.179,0,0,0,5.2,1.672q.123.155.243.32a6.734,6.734,0,0,1,.808,1.479l-.458.454a17.889,17.889,0,0,0-1.085,1.962,17.448,17.448,0,0,0-1.616,4.49c-1.079,1.067-2.746,2.985-2.945,4.76,0,0-7.727,3.837-9.807,1.771s-4.754,1.475-4.161,2.066a3.71,3.71,0,0,0,4.458.6H112.3a9.425,9.425,0,0,0,3.582-1.248c-.147.4-.33.81-.533,1.23-.312.6-.649,1.194-.963,1.729-.173.141-.344.279-.515.41-1.065.44-2.4,1-3.795,1.592a5.99,5.99,0,0,0-2.141.919c-3.212,1.393-6.119,2.75-6.034,3.033-.215.141-.326.247-.3.3s.056.123.1.227c-.229.842-.273,2.563.2,5.97,1.194,8.557-1.487,10.032-1.487,10.032s-2.08,2.655-4.458,2.36-.3,2.066,1.791,1.771c1.4-.2,4.432-.4,6.251-.507a1.116,1.116,0,0,0,1.013-1.393,8.955,8.955,0,0,1-.131-3.994c.448-2.221,1.568-6.448,1.968-8.782v-.026a3.746,3.746,0,0,1,3.081-1.224c.714.1,1.99-.565,3.359-1.481-.716,4.078-1.264,8.458-.685,10.038a18.138,18.138,0,0,0,2.378,4.72s.571.026,1.373.016l.384.6,5.373,8.247s4.754,6.786.3,7.672c0,0-3.566.886-2.08,2.066,0,0,10.4.295,10.7-.6C131.1,111.559,130.944,111.3,130.681,111.044Z" transform="translate(-13.471 -10.056)" fill="url(#linear-gradient-2)"/>
      <path id="Path_84" data-name="Path 84" d="M124.158,50.109s-4.044,8.087-4.332,4.044a6.464,6.464,0,0,0-1.208-3.335,7.986,7.986,0,0,0-2.836-2.44s2.31-4.332,2.022-3.184c-.147.6,1.514,1.861,3.184,2.961C122.57,49.211,124.158,50.109,124.158,50.109Z" transform="translate(-13.471 -10.056)" fill="#ffb9b9"/>
      <path id="Path_85" data-name="Path 85" d="M105.1,89.969a8.826,8.826,0,0,0,.127,3.91,1.091,1.091,0,0,1-.983,1.371c-1.769.105-4.712.3-6.076.5-2.022.289-4.044-2.022-1.733-1.733s4.332-2.31,4.332-2.31,2.6-1.445,1.445-9.821c-.46-3.333-.416-5.021-.2-5.843a1.315,1.315,0,0,1,.269-.569h0a.44.44,0,0,1,.231-.139.691.691,0,0,1,.555.2s3.755,3.467,4.044,4.332A4.434,4.434,0,0,1,107,81.376C106.62,83.659,105.531,87.794,105.1,89.969Z" transform="translate(-13.471 -10.056)" fill="#ffb9b9"/>
      <path id="Path_86" data-name="Path 86" d="M105.1,89.969a8.826,8.826,0,0,0,.127,3.91,1.091,1.091,0,0,1-.983,1.371c-1.769.105-4.712.3-6.076.5-2.022.289-4.044-2.022-1.733-1.733s4.332-2.31,4.332-2.31,2.6-1.445,1.445-9.821c-.46-3.333-.416-5.021-.2-5.843a1.315,1.315,0,0,1,.269-.569h0a.44.44,0,0,1,.231-.139.691.691,0,0,1,.555.2s3.755,3.467,4.044,4.332A4.434,4.434,0,0,1,107,81.376C106.62,83.659,105.531,87.794,105.1,89.969Z" transform="translate(-13.471 -10.056)" opacity="0.05"/>
      <path id="Path_87" data-name="Path 87" d="M130.514,110.767c-.289.866-10.4.577-10.4.577-1.445-1.156,2.022-2.022,2.022-2.022,4.332-.866-.289-7.51-.289-7.51l-5.234-8.082-1.128-1.747a4.574,4.574,0,0,1,4.044-1.733,3.09,3.09,0,0,1,1.779,1.087,16.181,16.181,0,0,1,3.421,7.289,27.249,27.249,0,0,0,1.176,4.595,16.708,16.708,0,0,0,4.273,6.808C130.44,110.3,130.586,110.55,130.514,110.767Z" transform="translate(-13.471 -10.056)" fill="#ffb9b9"/>
      <path id="Path_88" data-name="Path 88" d="M107.008,81.374a5.049,5.049,0,0,0-.756.8c-2.129-.267-3.767-4.945-4.237-6.131-.04-.1-.072-.177-.1-.223s.1-.181.364-.346h0l.231-.139a.691.691,0,0,1,.555.2s3.755,3.467,4.044,4.332A4.281,4.281,0,0,1,107.008,81.374Z" transform="translate(-13.471 -10.056)" opacity="0.1"/>
      <path id="Path_89" data-name="Path 89" d="M116.07,69.173s-14.153,5.771-13.865,6.354,2.022,6.066,4.332,6.354c0,0,1.445-2.022,3.467-1.733s8.665-5.771,8.665-5.771l4.621-3.467Z" transform="translate(-13.471 -10.056)" fill="#4c4c78"/>
      <path id="Path_90" data-name="Path 90" d="M116.07,69.173s-14.153,5.771-13.865,6.354,2.022,6.066,4.332,6.354c0,0,1.445-2.022,3.467-1.733s8.665-5.771,8.665-5.771l4.621-3.467Z" transform="translate(-13.471 -10.056)" opacity="0.05"/>
      <path id="Path_91" data-name="Path 91" d="M121.559,92.28c0,1.2-3.065,1.433-4.937,1.459l-1.128-1.747a4.574,4.574,0,0,1,4.044-1.733,3.09,3.09,0,0,1,1.779,1.087C121.447,91.919,121.559,92.28,121.559,92.28Z" transform="translate(-13.471 -10.056)" opacity="0.1"/>
      <path id="Path_92" data-name="Path 92" d="M114.916,70.618s-3.467,14.726-2.31,17.91a17.5,17.5,0,0,0,2.31,4.621s6.354.289,6.354-1.445c0,0-1.445-4.621,0-7.222a9.511,9.511,0,0,0,.695-1.568,18.659,18.659,0,0,1,3.087-5.8,3.969,3.969,0,0,0,1.128-2.744C125.891,72.061,114.916,70.618,114.916,70.618Z" transform="translate(-13.471 -10.056)" fill="#4c4c78"/>
      <path id="Path_93" data-name="Path 93" d="M117.227,58.2s-3.467,2.9-3.755,5.485c0,0-7.51,3.755-9.532,1.733s-4.621,1.451-4.04,2.026a3.584,3.584,0,0,0,4.332.577h8.085s5.489-.577,5.771-4.909S117.227,58.2,117.227,58.2Z" transform="translate(-13.471 -10.056)" fill="#ffb9b9"/>
      <path id="Path_94" data-name="Path 94" d="M117.227,58.2s-3.467,2.9-3.755,5.485c0,0-7.51,3.755-9.532,1.733s-4.621,1.451-4.04,2.026a3.584,3.584,0,0,0,4.332.577h8.085s5.489-.577,5.771-4.909S117.227,58.2,117.227,58.2Z" transform="translate(-13.471 -10.056)" opacity="0.05"/>
      <path id="Path_95" data-name="Path 95" d="M120.259,47.944c-.052.187.078-.173,0,0-.422.955-.673,2.476-1.64,2.874a7.986,7.986,0,0,0-2.836-2.44s2.31-4.332,2.022-3.184C117.656,45.789,118.606,46.843,120.259,47.944Z" transform="translate(-13.471 -10.056)" opacity="0.1"/>
      <path id="Path_96" data-name="Path 96" d="M120.837,46.788a4.018,4.018,0,1,1-1.177-2.867A4.044,4.044,0,0,1,120.837,46.788Z" transform="translate(-13.471 -10.056)" fill="#ffb9b9"/>
      <path id="Path_97" data-name="Path 97" d="M118.671,53.287l4.044-4.044s5.771,1.156,6.066,6.643A27.87,27.87,0,0,1,127.336,66s-1.156,7.222-.866,9.532-7.51-3.467-7.51-3.467-6.354,1.156-6.066.289,3.755-5.771,3.184-7.51a12.853,12.853,0,0,1-.014-4.044,17.156,17.156,0,0,1,2.613-7.51Z" transform="translate(-13.471 -10.056)" opacity="0.1"/>
      <path id="Path_98" data-name="Path 98" d="M127.625,65.418s-1.154,7.218-.86,9.532-7.51-3.467-7.51-3.467-1,.181-2.189.346c-1.8.251-4.052.466-3.879-.058a2.586,2.586,0,0,1,.165-.356c.754-1.425,3.536-5.59,3.013-7.164a12.851,12.851,0,0,1-.014-4.044,17.174,17.174,0,0,1,2.615-7.51l4.044-4.044s5.771,1.156,6.066,6.643a27.87,27.87,0,0,1-1.451,10.121Z" transform="translate(-13.471 -10.056)" fill="#dd6d7d"/>
      <path id="Path_99" data-name="Path 99" d="M120.837,46.788a4.018,4.018,0,0,1-.34,1.626,4.237,4.237,0,0,1-.882-1,16.242,16.242,0,0,0-1.126-1.536.768.768,0,0,0-.35-.275.555.555,0,0,0-.613.436,2.5,2.5,0,0,0,0,.83.963.963,0,0,1-.217.78c-.344.32-.9.1-1.294-.165s-.884-.555-1.3-.334a1.21,1.21,0,0,0-.382.384,9.862,9.862,0,0,1-1.009,1.329,4.044,4.044,0,1,1,7.51-2.08Z" transform="translate(-13.471 -10.056)" opacity="0.1"/>
      <path id="Path_100" data-name="Path 100" d="M122.249,44.334a3.434,3.434,0,0,0-.05-1.1,2.553,2.553,0,0,0-.44-.846,5.029,5.029,0,0,0-3.781-2c-.48-.018-.957.032-1.437.032-.882,0-1.763-.171-2.643-.1a2.6,2.6,0,0,0-2.189,1.256c-.243.5-.245,1.095-.533,1.566-.332.543-.981.82-1.353,1.337a1.676,1.676,0,0,0-.314.973.681.681,0,0,0,.068.328,1.3,1.3,0,0,0,.322.314,1.282,1.282,0,0,1,.247,1.578,1.544,1.544,0,0,1,1.226,1.194.5.5,0,0,0,.1.275.368.368,0,0,0,.2.082,1.923,1.923,0,0,0,1.592-.587,9.2,9.2,0,0,0,1.075-1.393,1.18,1.18,0,0,1,.38-.384c.416-.221.905.076,1.3.336s.951.484,1.3.161a.957.957,0,0,0,.217-.778,2.46,2.46,0,0,1,0-.83.553.553,0,0,1,.613-.436.754.754,0,0,1,.346.277,16.12,16.12,0,0,1,1.128,1.536c.374.579,1.493,1.95,2.038.814A10.117,10.117,0,0,0,122.249,44.334Z" transform="translate(-13.471 -10.056)" fill="#b96b6b"/>
      <path id="Path_101" data-name="Path 101" d="M116.218,64.119s4.332-.289,5.489.577,5.771.577,5.771.577" transform="translate(-13.471 -10.056)" opacity="0.1"/>
      <path id="Path_102" data-name="Path 102" d="M125.891,62.531a16.987,16.987,0,0,0-1.445,3.755c0,.868-1.156,2.022-1.156,2.022s-3.264,1.791-6.231,3.524c-1.8.251-4.052.466-3.879-.058a2.591,2.591,0,0,1,.165-.356c3.079-1.875,7.345-7.164,7.345-7.164a33.184,33.184,0,0,1,1.445-7.222s3.467-1.733,4.621,0S125.891,62.531,125.891,62.531Z" transform="translate(-13.471 -10.056)" opacity="0.05"/>
      <path id="Path_103" data-name="Path 103" d="M48.557,76.57l3.835,15.556s66.915,36.867,107.191,32.179L171.3,94.684s-28.887,11.677-59.542,6.308a30.447,30.447,0,0,1-3.479-.83C99.123,97.42,54.668,83.828,48.557,76.57Z" transform="translate(-13.471 -10.056)" opacity="0.1"/>
      <path id="Path_104" data-name="Path 104" d="M48.557,77l3.835,15.556S119.3,129.418,159.58,124.731L171.3,95.109s-28.887,11.677-59.542,6.308a30.45,30.45,0,0,1-3.479-.83C99.123,97.846,54.668,84.254,48.557,77Z" transform="translate(-13.471 -10.056)" fill="#6c63ff"/>
      <rect id="Rectangle_23" data-name="Rectangle 23" width="1.493" height="55.452" transform="matrix(0.644, -0.765, 0.765, 0.644, 57.306, 30.864)" fill="#535461"/>
      <path id="Path_105" data-name="Path 105" d="M121.559,56.465a33.276,33.276,0,0,0-1.445,7.216s-6.066,7.51-8.955,7.8-4.621,2.022-3.467,2.6,2.6,1.445,4.332,0,10.686-6.354,10.686-6.354,1.156-1.156,1.156-2.022a17.027,17.027,0,0,1,1.445-3.755s2.022-3.755.866-5.488S121.559,56.465,121.559,56.465Z" transform="translate(-13.471 -10.056)" fill="#ffb9b9"/>
      <path id="Path_106" data-name="Path 106" d="M125.026,51.842s-5.2-.577-4.332,6.931c0,0,3.467-2.022,6.354,0C127.047,58.775,128.2,53.287,125.026,51.842Z" transform="translate(-13.471 -10.056)" opacity="0.1"/>
      <path id="Path_107" data-name="Path 107" d="M125.026,51.265s-5.2-.577-4.332,6.931c0,0,3.467-2.022,6.354,0C127.047,58.2,128.2,52.71,125.026,51.265Z" transform="translate(-13.471 -10.056)" fill="#dd6d7d"/>
      <line id="Line_1" data-name="Line 1" x1="1.705" y2="85.619" transform="translate(57.355 31.614)" fill="none" stroke="#535461" stroke-miterlimit="10" stroke-width="0.398"/>
      <path id="Path_108" data-name="Path 108" d="M66.564,121.107s-6.392,3.835-2.344,12.36" transform="translate(-13.471 -10.056)" fill="none" stroke="#6c63ff" stroke-miterlimit="10" stroke-width="0.199" opacity="0.15"/>
      <path id="Path_109" data-name="Path 109" d="M69.548,122.6s-6.392,3.835-2.344,12.36" transform="translate(-13.471 -10.056)" fill="none" stroke="#6c63ff" stroke-miterlimit="10" stroke-width="0.199" opacity="0.15"/>
      <path id="Path_110" data-name="Path 110" d="M72.956,121.107s6.392,3.835,2.344,12.36" transform="translate(-13.471 -10.056)" fill="none" stroke="#6c63ff" stroke-miterlimit="10" stroke-width="0.199" opacity="0.15"/>
      <path id="Path_111" data-name="Path 111" d="M70.612,123.238S77,127.073,72.956,135.6" transform="translate(-13.471 -10.056)" fill="none" stroke="#6c63ff" stroke-miterlimit="10" stroke-width="0.199" opacity="0.15"/>
      <path id="Path_112" data-name="Path 112" d="M45.088,21.691H43.621a1.027,1.027,0,1,0,0-2.054H31.745a1.027,1.027,0,0,0,0,2.054h1.467a1.027,1.027,0,1,0,0,2.054H31.158a1.027,1.027,0,1,0,0,2.054H43.034a1.027,1.027,0,0,0,0-2.054h2.054a1.027,1.027,0,1,0,0-2.054Z" transform="translate(-13.471 -10.056)" fill="#6c63ff" opacity="0.1"/>
      <path id="Path_113" data-name="Path 113" d="M126.277,12.107h-1.467a1.027,1.027,0,0,0,0-2.054H112.934a1.027,1.027,0,0,0,0,2.054H114.4a1.027,1.027,0,0,0,0,2.054h-2.052a1.027,1.027,0,0,0,0,2.054h11.876a1.027,1.027,0,1,0,0-2.054h2.054a1.027,1.027,0,1,0,0-2.054Z" transform="translate(-13.471 -10.056)" fill="#6c63ff" opacity="0.1"/>
      <path id="Path_114" data-name="Path 114" d="M168.9,27.876h-1.467a1.027,1.027,0,0,0,0-2.054H155.555a1.027,1.027,0,0,0,0,2.054h1.459a1.027,1.027,0,0,0,0,2.054h-2.046a1.027,1.027,0,0,0,0,2.054h11.876a1.027,1.027,0,0,0,0-2.054H168.9a1.027,1.027,0,0,0,0-2.054Z" transform="translate(-13.471 -10.056)" fill="#6c63ff" opacity="0.1"/>
    </g>
  </g>
</svg>
