<svg xmlns="http://www.w3.org/2000/svg" xmlns:xlink="http://www.w3.org/1999/xlink" width="132" height="129" viewBox="0 0 132 129">
  <defs>
    <clipPath id="clip-path">
      <rect id="Rectangle_6" data-name="Rectangle 6" width="132" height="129" transform="translate(127 4)" fill="#f0a500"/>
    </clipPath>
  </defs>
  <g id="Mask_Group_3" data-name="Mask Group 3" transform="translate(-127 -4)" clip-path="url(#clip-path)">
    <g id="microphone" transform="translate(128.5 4)">
      <path id="Path_13" data-name="Path 13" d="M55.052,97.626v8.7h18.9v-8.7a39.751,39.751,0,0,0,30.234-38.543V41.824H96.624V59.083a32.124,32.124,0,1,1-64.248,0V41.824H24.817V59.083A39.751,39.751,0,0,0,55.052,97.626Z" fill="#89dbed"/>
      <path id="Path_14" data-name="Path 14" d="M64.5,83.648A24.593,24.593,0,0,0,89.065,59.083V24.565a24.565,24.565,0,0,0-49.131,0V59.083A24.593,24.593,0,0,0,64.5,83.648Z" fill="#f0a500"/>
      <path id="Path_15" data-name="Path 15" d="M92.845,113.883H36.155A15.117,15.117,0,0,0,21.038,129h86.924A15.117,15.117,0,0,0,92.845,113.883Z" fill="#89dbed"/>
    </g>
  </g>
</svg>
