<svg xmlns="http://www.w3.org/2000/svg" xmlns:xlink="http://www.w3.org/1999/xlink" width="132" height="129" viewBox="0 0 132 129">
  <defs>
    <clipPath id="clip-path">
      <rect id="Rectangle_5" data-name="Rectangle 5" width="132" height="129" transform="translate(0.5)" fill="#fff" stroke="#707070" stroke-width="1"/>
    </clipPath>
  </defs>
  <g id="Mask_Group_2" data-name="Mask Group 2" transform="translate(-0.5)" clip-path="url(#clip-path)">
    <g id="Page-1" transform="translate(2.639)">
      <g id="_004---Mail" data-name="004---Mail">
        <path id="Shape" d="M40.381,24.892a22.479,22.479,0,0,0-21.825,18.1H52.046a6.789,6.789,0,0,1,6.789,6.789v31.68a6.712,6.712,0,0,1-.416,2.263h3.811A1.131,1.131,0,0,0,63.361,82.6V48.29a23.285,23.285,0,0,0-22.98-23.4Z" fill="#89dbed"/>
        <path id="Shape-2" data-name="Shape" d="M31.536,70.812a6.818,6.818,0,0,1-8.766,0L20.975,69.3,3.917,83.727H50.392L33.335,69.292Z" fill="#f0a500"/>
        <path id="Shape-3" data-name="Shape" d="M54.309,81.115V51.542L36.837,66.327Z" fill="#f0a500"/>
        <path id="Shape-4" data-name="Shape" d="M28.607,67.364,52.046,47.521H2.263L25.7,67.357A2.263,2.263,0,0,0,28.607,67.364ZM18.1,54.309a2.263,2.263,0,0,1,2.263-2.263H33.943a2.263,2.263,0,0,1,0,4.526H20.366A2.263,2.263,0,0,1,18.1,54.309Z" fill="#f0a500"/>
        <path id="Shape-5" data-name="Shape" d="M0,51.542V81.115L17.472,66.327Z" fill="#f0a500"/>
        <path id="Shape-6" data-name="Shape" d="M104.093,24.892H79.2V13.577h15.84A2.263,2.263,0,0,0,97.3,11.314V2.263A2.263,2.263,0,0,0,95.041,0h-18.1a2.263,2.263,0,0,0-2.263,2.263V24.892H55.71A27.155,27.155,0,0,1,67.886,47.521V82.6a1.131,1.131,0,0,0,1.131,1.131H125.59a1.131,1.131,0,0,0,1.131-1.131V47.521A22.629,22.629,0,0,0,104.093,24.892Zm18.1,49.783A4.526,4.526,0,0,1,117.67,79.2h-18.1a4.526,4.526,0,0,1-4.526-4.526V65.624A4.526,4.526,0,0,1,99.567,61.1h18.1a4.526,4.526,0,0,1,4.526,4.526Z" fill="#89dbed"/>
        <path id="Shape-7" data-name="Shape" d="M80.332,88.252A1.131,1.131,0,0,0,79.2,89.384V122.2a2.263,2.263,0,0,1-4.526,0V89.384a1.131,1.131,0,0,0-1.131-1.131H69.018a1.131,1.131,0,0,0-1.131,1.131v38.469a1.131,1.131,0,0,0,1.131,1.131c3.566,0,14.548.023,18.1.014a1.131,1.131,0,0,0,1.131-1.131V89.4a1.131,1.131,0,0,0-1.131-1.131Z" fill="#89dbed"/>
        <rect id="Rectangle-path" width="18.105" height="9.052" rx="1.131" transform="translate(99.567 65.624)" fill="#89dbed"/>
      </g>
    </g>
  </g>
</svg>
