<svg xmlns="http://www.w3.org/2000/svg" width="494.061" height="439.704" viewBox="0 0 494.061 439.704">
  <g id="undraw_note_list_etto" transform="translate(-3.43 -31.829)">
    <path id="Path_38" data-name="Path 38" d="M665.632,789.888c0,1.342-2.647,2.629-7.528,3.837-19.542,4.826-74.786,8.3-139.993,8.3-64.15,0-118.733-3.369-139.022-8.08-5.464-1.269-8.5-2.635-8.5-4.061,0-.5.364-.99,1.081-1.475l292.5-.243C665.135,788.735,665.632,789.281,665.632,789.888Z" transform="translate(-214.212 -338.516)" opacity="0.1"/>
    <rect id="Rectangle_22" data-name="Rectangle 22" width="6.259" height="51.614" rx="2.29" transform="translate(405.276 128.422)" fill="#d8e9ed"/>
    <rect id="Rectangle_23" data-name="Rectangle 23" width="3.515" height="16.992" rx="1.5" transform="translate(197.156 87.985)" fill="#d8e9ed"/>
    <rect id="Rectangle_24" data-name="Rectangle 24" width="3.958" height="29.577" rx="1.69" transform="translate(197.029 119.091)" fill="#d8e9ed"/>
    <rect id="Rectangle_25" data-name="Rectangle 25" width="3.77" height="29.832" rx="1.61" transform="translate(197.089 159.019)" fill="#d8e9ed"/>
    <path id="Path_67" data-name="Path 67" d="M35.69,0H173.814A35.69,35.69,0,0,1,209.5,35.69V390.1a35.69,35.69,0,0,1-35.69,35.69H35.69A35.69,35.69,0,0,1,0,390.1V35.69A35.69,35.69,0,0,1,35.69,0Z" transform="translate(199.147 31.829)" fill="#d8e9ed"/>
    <rect id="Rectangle_27" data-name="Rectangle 27" width="29.255" height="5.943" rx="2.54" transform="translate(283.69 44.548)" fill="#e6e8ec"/>
    <circle id="Ellipse_5" data-name="Ellipse 5" cx="3.369" cy="3.369" r="3.369" transform="translate(317.371 44.147)" fill="#e6e8ec"/>
    <path id="Path_39" data-name="Path 39" d="M645.98,134.83V505.151a16.64,16.64,0,0,1-16.64,16.634H478.99a16.64,16.64,0,0,1-16.64-16.634V134.83a16.64,16.64,0,0,1,16.64-16.64h22.5v2.92a13.708,13.708,0,0,0,13.7,13.7h76.492a13.7,13.7,0,0,0,13.671-13.7v-2.89H629.34a16.64,16.64,0,0,1,16.64,16.61Z" transform="translate(-250.266 -75.269)" fill="#40bad5"/>
    <rect id="Rectangle_28" data-name="Rectangle 28" width="19" height="2" transform="translate(217.298 78.701)" fill="#3f3d56"/>
    <rect id="Rectangle_29" data-name="Rectangle 29" width="19" height="2" transform="translate(217.298 82.701)" fill="#3f3d56"/>
    <rect id="Rectangle_30" data-name="Rectangle 30" width="19" height="3" transform="translate(217.298 86.701)" fill="#3f3d56"/>
    <rect id="Rectangle_31" data-name="Rectangle 31" width="19" height="2" transform="translate(217.298 78.701)" fill="#fff"/>
    <rect id="Rectangle_32" data-name="Rectangle 32" width="19" height="2" transform="translate(217.298 82.701)" fill="#fff"/>
    <rect id="Rectangle_33" data-name="Rectangle 33" width="19" height="3" transform="translate(217.298 86.701)" fill="#fff"/>
    <path id="Path_40" data-name="Path 40" d="M745.018,181.547h-.552l-.212-.176a4.62,4.62,0,0,0,1.081-2.969,4.517,4.517,0,1,0-4.492,4.541,4.692,4.692,0,0,0,2.963-1.081l.206.176v.559l3.485,3.491,1.044-1.044Zm-4.177,0a3.126,3.126,0,1,1,2.221-.92,3.145,3.145,0,0,1-2.221.92Z" transform="translate(-357.905 -97.163)" fill="#fff"/>
    <path id="Path_68" data-name="Path 68" d="M0,0H56V12H0Z" transform="translate(217.298 121.701)" fill="#89dbed"/>
    <rect id="Rectangle_35" data-name="Rectangle 35" width="173" height="7" transform="translate(217.298 141.701)" fill="#89dbed" opacity="0.3"/>
    <rect id="Rectangle_36" data-name="Rectangle 36" width="69" height="7" transform="translate(217.298 156.701)" fill="#89dbed" opacity="0.3"/>
    <rect id="Rectangle_37" data-name="Rectangle 37" width="56" height="13" transform="translate(217.298 269.701)" fill="#89dbed"/>
    <rect id="Rectangle_38" data-name="Rectangle 38" width="173" height="7" transform="translate(217.298 289.701)" fill="#89dbed" opacity="0.3"/>
    <rect id="Rectangle_39" data-name="Rectangle 39" width="69" height="7" transform="translate(217.298 304.701)" fill="#89dbed" opacity="0.3"/>
    <rect id="Rectangle_40" data-name="Rectangle 40" width="56" height="13" transform="translate(217.298 343.701)" fill="#89dbed"/>
    <rect id="Rectangle_41" data-name="Rectangle 41" width="173" height="6" transform="translate(217.298 364.701)" fill="#89dbed" opacity="0.3"/>
    <rect id="Rectangle_42" data-name="Rectangle 42" width="69" height="7" transform="translate(217.298 378.701)" fill="#89dbed" opacity="0.3"/>
    <path id="Path_70" data-name="Path 70" d="M21,0A20.755,20.755,0,0,1,42,20.5,20.755,20.755,0,0,1,21,41,20.755,20.755,0,0,1,0,20.5,20.755,20.755,0,0,1,21,0Z" transform="translate(338.299 389.701)" fill="#89dbed"/>
    <path id="Path_41" data-name="Path 41" d="M708.185,716.492v9.974a.759.759,0,0,1-.759.759H687.089a.759.759,0,0,1-.759-.759V710.579a.759.759,0,0,1,.759-.759H701.24" transform="translate(-338.271 -307.731)" fill="none" stroke="#fff" stroke-linecap="round" stroke-miterlimit="10" stroke-width="1"/>
    <line id="Line_1" data-name="Line 1" x2="13.756" transform="translate(351.908 407.96)" fill="none" stroke="#fff" stroke-linecap="round" stroke-miterlimit="10" stroke-width="1"/>
    <line id="Line_2" data-name="Line 2" x2="13.763" transform="translate(352.108 410.795)" fill="none" stroke="#fff" stroke-linecap="round" stroke-miterlimit="10" stroke-width="1"/>
    <line id="Line_3" data-name="Line 3" x2="13.763" transform="translate(352.308 413.624)" fill="none" stroke="#fff" stroke-linecap="round" stroke-miterlimit="10" stroke-width="1"/>
    <line id="Line_4" data-name="Line 4" y2="6.878" transform="translate(367.285 401.282)" fill="none" stroke="#f0f" stroke-miterlimit="10" stroke-width="1"/>
    <line id="Line_5" data-name="Line 5" x1="6.884" transform="translate(363.843 404.724)" fill="none" stroke="#f0f" stroke-miterlimit="10" stroke-width="1"/>
    <line id="Line_6" data-name="Line 6" y2="6.878" transform="translate(367.285 401.282)" fill="none" stroke="#fff" stroke-linecap="round" stroke-miterlimit="10" stroke-width="1"/>
    <line id="Line_7" data-name="Line 7" x1="6.884" transform="translate(363.843 404.724)" fill="none" stroke="#fff" stroke-linecap="round" stroke-miterlimit="10" stroke-width="1"/>
    <g id="Group_70" data-name="Group 70" transform="translate(-75)">
      <path id="Path_42" data-name="Path 42" d="M996.57,744.987c1.821-3.345-.243-7.449-2.6-10.43s-5.227-6.071-5.166-9.889c.091-5.464,5.889-8.687,10.521-11.589a50.992,50.992,0,0,0,9.446-7.595,13.843,13.843,0,0,0,2.9-3.885,15.755,15.755,0,0,0,.874-6.9q-.31-11.692-1.16-23.367" transform="translate(-457.116 -292.607)" fill="none" stroke="#3f3d56" stroke-miterlimit="10" stroke-width="4"/>
      <path id="Path_43" data-name="Path 43" d="M1029.517,665.371a8.5,8.5,0,0,0-4.25-6.981l-1.906,3.776.061-4.571a8.627,8.627,0,0,0-2.811-.34,8.5,8.5,0,1,0,8.912,8.117Z" transform="translate(-466.442 -287.073)" fill="#f0a500"/>
      <path id="Path_44" data-name="Path 44" d="M1005.091,757.6a8.5,8.5,0,1,1,.413-6.86l-5.324,4.328,5.858-1.354a8.5,8.5,0,0,1-.947,3.885Z" transform="translate(-457.21 -321.632)" fill="#f0a500"/>
      <path id="Path_45" data-name="Path 45" d="M1002.661,727.346a8.5,8.5,0,0,1-2.7-16.713l-.049,3.509,1.931-3.818h0a8.5,8.5,0,0,1,8.906,8.111,8.4,8.4,0,0,1-.364,2.908A8.5,8.5,0,0,1,1002.661,727.346Z" transform="translate(-458.988 -307.925)" fill="#f0a500"/>
      <path id="Path_46" data-name="Path 46" d="M1036.917,704.7a8.5,8.5,0,1,1,3.77-15.948l-1.505,4.128,3.1-2.975a8.5,8.5,0,0,1,2.762,5.871,8.366,8.366,0,0,1-.212,2.349,8.5,8.5,0,0,1-7.91,6.575Z" transform="translate(-472.56 -299.043)" fill="#f0a500"/>
      <path id="Path_47" data-name="Path 47" d="M1028.4,670.661c-1.967.212-3.879.826-5.852.947s-4.14-.346-5.391-1.882a26.345,26.345,0,0,1-1.572-2.774,6.071,6.071,0,0,0-2.149-2.022,8.5,8.5,0,1,0,15.93,5.658Q1028.882,670.606,1028.4,670.661Z" transform="translate(-466.468 -290.093)" opacity="0.1"/>
      <path id="Path_48" data-name="Path 48" d="M1036.84,707.842a8.5,8.5,0,0,1-8.1-12.142,6.292,6.292,0,0,1,1.712,1.712,27.873,27.873,0,0,0,1.688,2.817c1.329,1.56,3.594,2.07,5.652,1.979s4.043-.68,6.071-.868c.285,0,.571-.042.862-.049a8.5,8.5,0,0,1-7.88,6.55Z" transform="translate(-472.484 -302.183)" opacity="0.1"/>
      <path id="Path_49" data-name="Path 49" d="M1002.771,730.606a8.5,8.5,0,0,1-8.171-12,6.968,6.968,0,0,1,1.821,1.73,28.641,28.641,0,0,0,1.852,2.878c1.439,1.6,3.855,2.161,6.028,2.113s4.146-.565,6.241-.729a8.5,8.5,0,0,1-7.771,6Z" transform="translate(-459.098 -311.185)" opacity="0.1"/>
      <path id="Path_50" data-name="Path 50" d="M1004.944,761.121a8.51,8.51,0,1,1-15.535-6.951,8.4,8.4,0,0,1,1.87,1.669,37.053,37.053,0,0,0,2.283,3.035c1.742,1.712,4.553,2.428,7.06,2.483a36.424,36.424,0,0,0,4.323-.237Z" transform="translate(-457.063 -325.157)" opacity="0.1"/>
      <path id="Path_51" data-name="Path 51" d="M980.43,783.959s6.727-.206,8.754-1.651,10.32-3.163,10.842-.85,10.108,11.535,2.519,11.571-17.642-1.178-19.669-2.428S980.43,783.959,980.43,783.959Z" transform="translate(-453.828 -335.434)" fill="#656380"/>
      <path id="Path_52" data-name="Path 52" d="M1002.68,794.567c-7.595.061-17.642-1.184-19.663-2.428-1.542-.941-2.155-4.3-2.362-5.858h-.225s.425,5.427,2.428,6.678,12.075,2.471,19.669,2.428c2.192,0,2.944-.8,2.9-1.949C1005.144,794.117,1004.313,794.548,1002.68,794.567Z" transform="translate(-453.828 -337.773)" opacity="0.2"/>
    </g>
    <path id="Path_53" data-name="Path 53" d="M640.013,371.031v50.351a11.535,11.535,0,0,1-11.535,11.535H462.35V359.46H628.478a11.534,11.534,0,0,1,11.535,11.571Z" transform="translate(-250.266 -170.068)" fill="#89dbed"/>
    <g id="Group_69" data-name="Group 69">
      <rect id="Rectangle_43" data-name="Rectangle 43" width="244" height="74" rx="19.03" transform="translate(126.298 178.701)" fill="#f2f2f2"/>
      <rect id="Rectangle_44" data-name="Rectangle 44" width="244" height="74" rx="19.03" transform="translate(126.298 178.701)" fill="#f2f2f2"/>
      <path id="Path_69" data-name="Path 69" d="M0,0H56V13H0Z" transform="translate(156.298 194.701)" fill="#f0a500"/>
      <rect id="Rectangle_46" data-name="Rectangle 46" width="173" height="6" transform="translate(156.298 215.701)" fill="#f0a500" opacity="0.3"/>
      <rect id="Rectangle_47" data-name="Rectangle 47" width="69" height="7" transform="translate(156.298 229.701)" fill="#f0a500" opacity="0.3"/>
    </g>
    <g id="Group_68" data-name="Group 68">
      <circle id="Ellipse_7" data-name="Ellipse 7" cx="21.703" cy="21.703" r="21.703" transform="translate(34.355 128.149)" fill="#3f3d56"/>
      <path id="Path_54" data-name="Path 54" d="M161.953,563.412c2.24,15.717-.492,31.744-4.747,47.037a34.931,34.931,0,0,1-3.139,8.275c-1.487,2.556-3.558,4.753-5.306,7.157-3.643,5.015-5.779,10.927-7.777,16.78a473.316,473.316,0,0,0-13.854,49.368,3.381,3.381,0,0,0,0,2.107c.528,1.214,2.131,1.372,3.448,1.366l17.035-.091c.607-1.166-.516-2.428-1.214-3.545-2.428-3.776-.1-8.681,2.046-12.633a135.828,135.828,0,0,0,12.008-30.354c1.166-4.45,2.113-9,4.007-13.192,2.289-5.087,5.877-9.464,8.791-14.224a119.141,119.141,0,0,0,8.311-17.563c3.424-8.366,6.878-16.834,8.226-25.771,1.269-8.39.644-16.938-.182-25.382a1.6,1.6,0,0,0-1.858-1.821l-22.857-1.178c-4.711-.243-5.828-1.275-5.112,3.351C160.278,556.552,161.456,559.915,161.953,563.412Z" transform="translate(-118.486 -244.729)" fill="#40bad5"/>
      <path id="Path_55" data-name="Path 55" d="M161.953,563.412c2.24,15.717-.492,31.744-4.747,47.037a34.931,34.931,0,0,1-3.139,8.275c-1.487,2.556-3.558,4.753-5.306,7.157-3.643,5.015-5.779,10.927-7.777,16.78a473.316,473.316,0,0,0-13.854,49.368,3.381,3.381,0,0,0,0,2.107c.528,1.214,2.131,1.372,3.448,1.366l17.035-.091c.607-1.166-.516-2.428-1.214-3.545-2.428-3.776-.1-8.681,2.046-12.633a135.828,135.828,0,0,0,12.008-30.354c1.166-4.45,2.113-9,4.007-13.192,2.289-5.087,5.877-9.464,8.791-14.224a119.141,119.141,0,0,0,8.311-17.563c3.424-8.366,6.878-16.834,8.226-25.771,1.269-8.39.644-16.938-.182-25.382a1.6,1.6,0,0,0-1.858-1.821l-22.857-1.178c-4.711-.243-5.828-1.275-5.112,3.351C160.278,556.552,161.456,559.915,161.953,563.412Z" transform="translate(-118.486 -244.729)" fill="#40bad5" opacity="0.1"/>
      <path id="Path_56" data-name="Path 56" d="M186.653,508.383c-4.644,6.678-9.513,14.364-7.971,22.359,1.172,6.071,5.8,10.776,10.163,15.177,17.448,17.52,34.6,36.983,40.541,60.994,1.53,6.2,2.27,12.573,3.588,18.82,2.392,11.352,6.678,22.207,10.927,32.995l11.365,28.764a17.217,17.217,0,0,0,16.452-10.927,7.205,7.205,0,0,1-4.316-2.774c-4.857-6.72-5.852-15.365-7.1-23.561-1.378-9.058-3.218-18.042-5.063-27.021l-8.135-39.715c-.941-4.583-1.882-9.173-3.108-13.684-4.747-17.5-13.744-34-15.135-52.094-.206-2.659-.334-5.579-2.137-7.552-1.894-2.082-5-2.428-7.813-2.592C207.542,506.816,197.732,505.706,186.653,508.383Z" transform="translate(-138.693 -227.917)" fill="#40bad5"/>
      <path id="Path_57" data-name="Path 57" d="M132.5,781.6a18.128,18.128,0,0,0-3.776-.486,7.843,7.843,0,0,0-6.168,3.369,15.328,15.328,0,0,0-1.657,3.643l-1.645,4.723c-.486,1.384-.959,2.981-.237,4.25a4.5,4.5,0,0,0,2.21,1.73c3.982,1.773,8.469,1.87,12.809,2.295,4.213.413,8.39,1.154,12.548,1.937,1.433.267,2.859.54,4.31.686a51.357,51.357,0,0,0,9.75-.291l3.345-.322a12.045,12.045,0,0,0,3.29-.607,4.146,4.146,0,0,0,2.428-2.179c.826-2.046-.947-4.468-3.114-4.857-.88-.176-1.791-.1-2.683-.212a12.677,12.677,0,0,1-2.938-.88c-4.28-1.682-8.6-3.381-12.366-6.028-1.044-.735-2.137-1.761-2.022-3.035a6.186,6.186,0,0,1,.54-1.572,5.743,5.743,0,0,0,.049-4.061c-.206-.558-.607-1.147-1.172-1.214-1.6-.194-1.408,2.143-1.645,3.035-.322,1.214-.9,1.323-2.046,1.214C139.036,782.38,135.757,782.216,132.5,781.6Z" transform="translate(-115.22 -334.705)" fill="#4c4d4e"/>
      <path id="Path_58" data-name="Path 58" d="M299.3,796.448a10.715,10.715,0,0,0,2.319,6.526,5.074,5.074,0,0,0,1.651,1.33,6.63,6.63,0,0,0,3.005.48,24.313,24.313,0,0,0,8.432-1.706,24.118,24.118,0,0,1,2.914-1.1,32.706,32.706,0,0,1,3.788-.547c5.021-.722,9.428-3.685,14.279-5.184a30.028,30.028,0,0,0,4.25-1.4,19.475,19.475,0,0,0,5-3.9,8.946,8.946,0,0,0,3.278-8.268,1.572,1.572,0,0,0-.146-.856,1.275,1.275,0,0,0-.546-.431c-1.475-.729-3.224-.364-4.857-.079-5.9,1.05-11.941.856-17.933.662a2.6,2.6,0,0,1-2.756-1.572L319.7,776.76c-.65-1.044-1.682-2.24-2.859-1.882a2.33,2.33,0,0,0-1.287,2.428,12.978,12.978,0,0,1,.152,2.938,4.013,4.013,0,0,1-1.943,2.525,12.408,12.408,0,0,1-3.035,1.166c-3.351.947-7.249,2.022-9.841,4.486C299.006,790.195,299.182,794.11,299.3,796.448Z" transform="translate(-186.174 -333.268)" fill="#4c4d4e"/>
      <path id="Path_59" data-name="Path 59" d="M282.25,396.666a14.067,14.067,0,0,0,3.315-3.606,14.7,14.7,0,0,0,1.415-4.984l.953-6.022c.528-3.321,1.147-6.836,3.363-9.367s6.629-3.436,8.882-.935a7.791,7.791,0,0,1,1.615,4.031,29.346,29.346,0,0,1-7.176,24.283c-2.726,2.987-6.071,5.361-8.954,8.183-2.513,2.428-4.693,5.215-7.012,7.856a96.78,96.78,0,0,1-19.1,16.695c.085-4.517.662-9.361,0-13.848-.492-3.242-1.821-4.99,1.317-7.109C268.148,406.889,275.5,402.409,282.25,396.666Z" transform="translate(-170.304 -174.316)" fill="#fbbebe"/>
      <path id="Path_60" data-name="Path 60" d="M193.81,334.425c-.237,3.23-1.578,6.532-4.25,8.4q11.346,3.97,22.383,8.754a7.755,7.755,0,0,1-1.918-5.427c-.188-5.142,1.591-10.2,4.189-14.631a3.551,3.551,0,0,0,.686-1.931c-.085-1.433-1.785-2.094-3.181-2.428a78.231,78.231,0,0,0-14.521-2.107c-2.094-.067-4.577-.729-4.1,1.937A29.309,29.309,0,0,1,193.81,334.425Z" transform="translate(-143.082 -156.501)" fill="#fbbebe"/>
      <circle id="Ellipse_8" data-name="Ellipse 8" cx="17.745" cy="17.745" r="17.745" transform="translate(47.613 144.164)" fill="#fbbebe"/>
      <path id="Path_61" data-name="Path 61" d="M221.556,374.852a21.468,21.468,0,0,0-2.252-3.776c-3.218-4.62-6.52-9.234-10.648-13.058a66.287,66.287,0,0,0-10.108-7.425,22.941,22.941,0,0,0-6.326-3.035,24.747,24.747,0,0,0-4.061-.552l-4.608-.376a3.769,3.769,0,0,0-1.214.036,2.617,2.617,0,0,0-1.554,3.126,7.693,7.693,0,0,0,2.052,3.23c.206,9.4-3.976,18.68-4.541,28.071-.99,16.391,9.033,31.7,9.835,48.13a5.19,5.19,0,0,1-.231,2.2c-.134.34-.334.65-.486.984a9.607,9.607,0,0,0-.54,3.339,16.962,16.962,0,0,1-5,10.7,7.425,7.425,0,0,0,2.817,2.149c1.937.844,4.25.917,6.308,1.506,5.367,1.566,10.867,3.145,16.446,2.811a14.509,14.509,0,0,0,1.269-4.778c.789-.492,1.7.559,1.821,1.481s-.055,2,.607,2.665a2.5,2.5,0,0,0,2.307.461c3.406-.431,6.678-1.578,10.017-2.349s6.909-1.141,10.156-.036a2.718,2.718,0,0,0-.158-2.975,13.288,13.288,0,0,1-1.6-2.726,6.12,6.12,0,0,1-.194-1.791c0-5.191,1.068-10.436.055-15.529-.3-1.493-.771-2.95-1.075-4.45a38.379,38.379,0,0,1-.437-8.876c.079-2.969-.279-6.18-.34-9.191a29.316,29.316,0,0,0-.243-3.721c-.206-1.293-.607-2.556-.716-3.861-.328-3.315,1.008-6.605.807-9.932C229.394,382.252,223.523,379.508,221.556,374.852Z" transform="translate(-138.629 -165.014)" fill="#f0a500"/>
      <path id="Path_62" data-name="Path 62" d="M168.128,389.12c-4.3,11.4-6.4,23.494-8.5,35.5l-4.857,28.205c-1.378,7.971-2.762,15.991-2.708,24.077a25.773,25.773,0,0,1-.449,6.775c-.777,2.878-2.708,5.276-4.171,7.892a25.971,25.971,0,0,0-2.793,17.563c.5,2.519,1.858,5.379,4.413,5.67,2.1.231,3.916-1.439,5.142-3.163,2.817-3.952,4.213-8.724,5.464-13.423a303.609,303.609,0,0,0,8.42-46.8,45.569,45.569,0,0,1,.844-5.949,42.22,42.22,0,0,1,2.052-5.925q2.786-6.909,5.579-13.817c4.292-10.642,8.608-21.333,14.5-31.18-5.828-1.676-11.893-3.642-17.721-5.3C171.667,388.75,169.864,389.047,168.128,389.12Z" transform="translate(-125.25 -181.661)" fill="#fbbebe"/>
      <path id="Path_63" data-name="Path 63" d="M190.787,394.737c-4.08-.88-8.3-.607-12.463-.71a2.689,2.689,0,0,1-1.676-.437c-.844-.722-.486-2.076-.061-3.1l2.016-4.857a7.067,7.067,0,0,1,1.615-2.683,6.849,6.849,0,0,1,3.831-1.3c4.426-.51,8.979-.68,13.271.516s8.329,3.916,10.248,7.941c.8,1.676,1.172,3.788.109,5.312-1.578,2.264-5.118,4.8-7.759,3.557C196.755,397.493,194.333,395.508,190.787,394.737Z" transform="translate(-137.807 -178.634)" fill="#f0a500"/>
      <path id="Path_64" data-name="Path 64" d="M199.877,260.759a17.921,17.921,0,0,0-9.883,2.847,21.7,21.7,0,0,0-21.309-4.99,12.4,12.4,0,1,0-14.339,14.357,21.7,21.7,0,1,0,41.628,12.2,19.424,19.424,0,0,0,3.891.395c8.56,0,15.5-5.555,15.5-12.4S208.425,260.759,199.877,260.759Z" transform="translate(-125.206 -126.412)" fill="#3f3d56"/>
      <path id="Path_65" data-name="Path 65" d="M236.733,296.279a18.881,18.881,0,0,1-3.891-.395A21.594,21.594,0,0,1,230,302.131a19.5,19.5,0,0,0,3.643.352c8,0,14.57-4.857,15.414-11.073A17.1,17.1,0,0,1,236.733,296.279Z" transform="translate(-158.971 -143.33)" opacity="0.1"/>
      <path id="Path_66" data-name="Path 66" d="M178.157,297.472a21.734,21.734,0,0,1-20.75-28.1,12.4,12.4,0,0,1-10.254-12.215,12.2,12.2,0,0,1,.2-2.222,12.4,12.4,0,0,0,6.957,20.641,21.7,21.7,0,1,0,41.458,12.858A21.661,21.661,0,0,1,178.157,297.472Z" transform="translate(-125.201 -129.001)" opacity="0.1"/>
    </g>
  </g>
</svg>
