<svg id="undraw_data_reports_706v" xmlns="http://www.w3.org/2000/svg" width="580.818" height="380.324" viewBox="0 0 580.818 380.324">
  <ellipse id="Ellipse_27" data-name="Ellipse 27" cx="83.226" cy="6.348" rx="83.226" ry="6.348" transform="translate(0 367.628)" fill="#e6e6e6"/>
  <path id="Path_108" data-name="Path 108" d="M330.595,302.182l-33.2-9.055q13.3-12.549,11.571-23.644h21.632Z" transform="translate(-220.414 -206.641)" fill="#f4b9b9"/>
  <path id="Path_109" data-name="Path 109" d="M138.089,434.368l-10.725,1.509-12.92-118.725L93.819,435.373l-11.068.5V285.961h68.418Z" transform="translate(-24.386 -84.271)" fill="#40bad5"/>
  <path id="Path_110" data-name="Path 110" d="M275.836,698.979h0a7.543,7.543,0,0,0,7.481-5.513l.783-11.69-1.579-8.291c-4.167-3.424-8.379-3.353-12.634,0l-1.356,17.366a7.543,7.543,0,0,0,7.3,8.128Z" transform="translate(-211.902 -324.949)" fill="#2f2e41"/>
  <path id="Path_111" data-name="Path 111" d="M338.6,698.979h0a7.543,7.543,0,0,0,7.481-5.513l.783-11.69-1.579-8.291c-4.167-3.424-8.379-3.353-12.634,0L331.3,690.851a7.544,7.544,0,0,0,7.305,8.128Z" transform="translate(-230.399 -324.949)" fill="#2f2e41"/>
  <circle id="Ellipse_28" data-name="Ellipse 28" cx="19.117" cy="19.117" r="19.117" transform="translate(86.537 40.203)" fill="#f4b9b9"/>
  <path id="Path_112" data-name="Path 112" d="M341.807,417.992H268.861c9.455-43.816,9.428-79.106,1.9-107.646a7.626,7.626,0,0,1,4.638-9.065l19.625-7.548c5.892,7.609,14.206,10.932,27.166,6.037l10.284,2.11a10.567,10.567,0,0,1,8.433,11.049c-.757,11.162-.458,22.409-1.11,32.118C337.778,375.112,336.907,398.551,341.807,417.992Z" transform="translate(-212.006 -213.787)" fill="#f0a500"/>
  <path id="Path_113" data-name="Path 113" d="M318.661,226.427s11.068-12.577,24.148-.5l3.522,1.006-2.515,2.012s13.08,6.037,12.074,18.614a5.766,5.766,0,0,0-3.018,0c-1.006.5-1.509,6.037-1.509,6.037a31.766,31.766,0,0,0-2.012-4.528c-.5-.5-7.546,5.534-19.117-3.521,0,0-3.522,9.055-7.546,8.049s-9.558-.5-12.074,6.037C310.612,259.629,297.029,230.451,318.661,226.427Z" transform="translate(-223.069 -192.26)" fill="#2f2e41"/>
  <path id="Path_114" data-name="Path 114" d="M373.876,424.371l-6.458,8.656a8.483,8.483,0,0,0,1.83,11.947h0a8.483,8.483,0,0,0,13.345-5.535l1.848-11.547,3.522-49.8-2.515-25.154-16.1,6.037,4.528,21.632Z" transform="translate(-240.554 -231.234)" fill="#f4b9b9"/>
  <path id="Path_115" data-name="Path 115" d="M365.484,350.925l19.62-9.055-1.006-7.128a29.262,29.262,0,0,0-18.683-27.283l-5.968-2.314Z" transform="translate(-238.701 -217.15)" fill="#f0a500"/>
  <path id="Path_116" data-name="Path 116" d="M260.836,421.518l6.458,8.656a8.483,8.483,0,0,1-1.83,11.947h0a8.483,8.483,0,0,1-13.345-5.535l-1.847-11.547-3.522-49.8,2.515-25.154,16.1,6.037-4.528,21.632Z" transform="translate(-205.49 -230.393)" fill="#f4b9b9"/>
  <path id="Path_117" data-name="Path 117" d="M267.8,348.072l-19.62-9.055,1.006-7.128a29.262,29.262,0,0,1,18.683-27.283l5.968-2.314Z" transform="translate(-205.91 -216.31)" fill="#f0a500"/>
  <path id="Path_118" data-name="Path 118" d="M861.765,574.694H526.04a5.3,5.3,0,0,1-5.29-5.29v-146a5.3,5.3,0,0,1,5.29-5.29H861.765a5.3,5.3,0,0,1,5.29,5.29v146a5.3,5.3,0,0,1-5.29,5.29ZM526.04,420.232a3.177,3.177,0,0,0-3.174,3.174v146a3.177,3.177,0,0,0,3.174,3.174H861.765a3.177,3.177,0,0,0,3.174-3.174v-146a3.177,3.177,0,0,0-3.174-3.174Z" transform="translate(-286.236 -250.442)" fill="#e6e6e6"/>
  <path id="Path_119" data-name="Path 119" d="M546.424,443.616a3.174,3.174,0,1,0,0,6.348h44.434a3.174,3.174,0,1,0,0-6.348Z" transform="translate(-292.867 -257.957)" fill="#e6e6e6"/>
  <path id="Path_120" data-name="Path 120" d="M853.845,474.382v58.858H554.21V502.25c2.075-1.332,4.162-2.659,6.269-3.941,9-5.5,18.624-10.653,29.117-12.561a43.954,43.954,0,0,1,15.032-.188,85.786,85.786,0,0,1,15.3,4.5,104.459,104.459,0,0,0,15,4.7,43.92,43.92,0,0,0,15.214.3c9.635-1.445,18.686-5.317,27.7-8.82,9.071-3.522,18.417-6.85,28.233-7.288,9.691-.438,19.263,1.852,28.459,4.692,18.749,5.786,37.893,14.369,57.746,8.482,20.16-5.968,38.7-23.2,61.043-18.084a.841.841,0,0,1,.526.332Z" transform="translate(-296.097 -266.65)" fill="#d8e9ed"/>
  <path id="Path_121" data-name="Path 121" d="M853.755,475.408a.9.9,0,0,1-1.026.45,33.409,33.409,0,0,0-8.12-.838c-21.975.388-38.871,18.078-60.359,20.724-19.373,2.383-37.608-7.037-55.823-11.96-9.464-2.558-19.223-3.916-28.963-2.177-9.665,1.72-18.735,5.674-27.843,9.183-8.77,3.378-17.884,6.518-27.38,6.675-10.44.175-19.842-4.129-29.526-7.406a52.573,52.573,0,0,0-15.539-3.19,47.005,47.005,0,0,0-15.313,2.371c-10.29,3.272-19.561,9.1-28.587,14.894a.8.8,0,0,1-.532.144.969.969,0,0,1-.413-1.764l.413-.263c2.071-1.332,4.154-2.659,6.255-3.941,8.977-5.5,18.585-10.653,29.057-12.561a43.772,43.772,0,0,1,15-.188,85.475,85.475,0,0,1,15.263,4.5,104.08,104.08,0,0,0,14.969,4.7,43.738,43.738,0,0,0,15.182.3c9.615-1.445,18.647-5.317,27.643-8.82,9.052-3.522,18.378-6.85,28.174-7.288,9.671-.438,19.223,1.852,28.4,4.692,18.71,5.786,37.814,14.369,57.625,8.482,20.117-5.968,38.621-23.2,60.915-18.084a.839.839,0,0,1,.525.332A.964.964,0,0,1,853.755,475.408Z" transform="translate(-296.007 -266.65)" fill="#40bad5"/>
  <circle id="Ellipse_29" data-name="Ellipse 29" cx="4.379" cy="4.379" r="4.379" transform="translate(295.02 215.295)" fill="#40bad5"/>
  <circle id="Ellipse_30" data-name="Ellipse 30" cx="4.379" cy="4.379" r="4.379" transform="translate(405.741 209.665)" fill="#40bad5"/>
  <circle id="Ellipse_31" data-name="Ellipse 31" cx="4.379" cy="4.379" r="4.379" transform="translate(540.858 204.035)" fill="#40bad5"/>
  <path id="Path_122" data-name="Path 122" d="M607.924,593.616a3.174,3.174,0,0,0,0,6.348h44.434a3.174,3.174,0,0,0,0-6.348Z" transform="translate(-310.991 -302.161)" fill="#e6e6e6"/>
  <circle id="Ellipse_32" data-name="Ellipse 32" cx="11.99" cy="11.99" r="11.99" transform="translate(256.378 282.286)" fill="#f0a500"/>
  <path id="Path_123" data-name="Path 123" d="M759.924,593.616a3.174,3.174,0,0,0,0,6.348h44.434a3.174,3.174,0,0,0,0-6.348Z" transform="translate(-355.784 -302.161)" fill="#e6e6e6"/>
  <circle id="Ellipse_33" data-name="Ellipse 33" cx="11.99" cy="11.99" r="11.99" transform="translate(363.585 282.286)" fill="#f0a500"/>
  <path id="Path_124" data-name="Path 124" d="M911.924,593.616a3.174,3.174,0,1,0,0,6.348h44.434a3.174,3.174,0,0,0,0-6.348Z" transform="translate(-400.578 -302.161)" fill="#e6e6e6"/>
  <circle id="Ellipse_34" data-name="Ellipse 34" cx="11.99" cy="11.99" r="11.99" transform="translate(470.791 282.286)" fill="#f0a500"/>
  <path id="Path_78" data-name="Path 78" d="M900.019,343.707H734.387c-3.229,0-5.846-1.864-5.849-4.161v-36c0-2.3,2.62-4.161,5.849-4.161H900.019c3.229,0,5.846,1.864,5.849,4.161v36C905.866,341.842,903.248,343.7,900.019,343.707Zm-165.632-42.66c-1.937,0-3.508,1.119-3.51,2.5v36c0,1.378,1.572,2.5,3.51,2.5H900.019c1.938,0,3.508-1.119,3.51-2.5v-36c0-1.378-1.572-2.5-3.51-2.5Z" transform="translate(-347.47 -215.452)" fill="#e6e6e6"/>
  <path id="Path_125" data-name="Path 125" d="M788.456,328.391a3.531,3.531,0,0,0-3.527,3.527V356.6a3.531,3.531,0,0,0,3.527,3.527h126.25a3.531,3.531,0,0,0,3.527-3.527V331.918a3.531,3.531,0,0,0-3.527-3.527Z" transform="translate(-364.088 -224.001)" fill="#f0a500"/>
  <circle id="Ellipse_35" data-name="Ellipse 35" cx="7.758" cy="7.758" r="7.758" transform="translate(434.241 112.854)" fill="#fff"/>
  <path id="Path_126" data-name="Path 126" d="M863.735,346.616a3.174,3.174,0,0,0,0,6.348h44.434a3.174,3.174,0,0,0,0-6.348Z" transform="translate(-386.377 -229.371)" fill="#fff"/>
  <path id="Path_78-2" data-name="Path 78" d="M724.019,224.707H558.387c-3.229,0-5.846-1.864-5.849-4.161v-36c0-2.3,2.62-4.161,5.849-4.161H724.019c3.229,0,5.846,1.864,5.849,4.161v36C729.866,222.842,727.248,224.7,724.019,224.707Zm-165.632-42.66c-1.937,0-3.508,1.119-3.51,2.5v36c0,1.378,1.572,2.5,3.51,2.5H724.019c1.938,0,3.508-1.119,3.51-2.5v-36c0-1.378-1.572-2.5-3.51-2.5Z" transform="translate(-295.604 -180.384)" fill="#e6e6e6"/>
  <path id="Path_127" data-name="Path 127" d="M612.456,209.391a3.531,3.531,0,0,0-3.527,3.527V237.6a3.531,3.531,0,0,0,3.527,3.527h126.25a3.531,3.531,0,0,0,3.526-3.527V212.918a3.531,3.531,0,0,0-3.526-3.527Z" transform="translate(-312.222 -188.932)" fill="#40bad5"/>
  <circle id="Ellipse_36" data-name="Ellipse 36" cx="7.758" cy="7.758" r="7.758" transform="translate(310.108 28.923)" fill="#fff"/>
  <path id="Path_128" data-name="Path 128" d="M687.735,227.616a3.174,3.174,0,1,0,0,6.348h44.434a3.174,3.174,0,0,0,0-6.348Z" transform="translate(-334.51 -194.303)" fill="#fff"/>
</svg>
